%TF.GenerationSoftware,KiCad,Pcbnew,9.0.7*%
%TF.CreationDate,2026-03-09T12:56:56+09:00*%
%TF.ProjectId,ErgoDoxEZBL,4572676f-446f-4784-955a-424c2e6b6963,rev?*%
%TF.SameCoordinates,Original*%
%TF.FileFunction,Copper,L2,Bot*%
%TF.FilePolarity,Positive*%
%FSLAX46Y46*%
G04 Gerber Fmt 4.6, Leading zero omitted, Abs format (unit mm)*
G04 Created by KiCad (PCBNEW 9.0.7) date 2026-03-09 12:56:56*
%MOMM*%
%LPD*%
G01*
G04 APERTURE LIST*
G04 Aperture macros list*
%AMRoundRect*
0 Rectangle with rounded corners*
0 $1 Rounding radius*
0 $2 $3 $4 $5 $6 $7 $8 $9 X,Y pos of 4 corners*
0 Add a 4 corners polygon primitive as box body*
4,1,4,$2,$3,$4,$5,$6,$7,$8,$9,$2,$3,0*
0 Add four circle primitives for the rounded corners*
1,1,$1+$1,$2,$3*
1,1,$1+$1,$4,$5*
1,1,$1+$1,$6,$7*
1,1,$1+$1,$8,$9*
0 Add four rect primitives between the rounded corners*
20,1,$1+$1,$2,$3,$4,$5,0*
20,1,$1+$1,$4,$5,$6,$7,0*
20,1,$1+$1,$6,$7,$8,$9,0*
20,1,$1+$1,$8,$9,$2,$3,0*%
G04 Aperture macros list end*
%TA.AperFunction,SMDPad,CuDef*%
%ADD10RoundRect,0.250000X-0.506347X-1.339492X1.351584X-0.473124X0.506347X1.339492X-1.351584X0.473124X0*%
%TD*%
%TA.AperFunction,ComponentPad*%
%ADD11C,0.800000*%
%TD*%
%TA.AperFunction,SMDPad,CuDef*%
%ADD12RoundRect,0.250000X1.025000X1.000000X-1.025000X1.000000X-1.025000X-1.000000X1.025000X-1.000000X0*%
%TD*%
%TA.AperFunction,ComponentPad*%
%ADD13RoundRect,0.250000X-0.550000X-0.550000X0.550000X-0.550000X0.550000X0.550000X-0.550000X0.550000X0*%
%TD*%
%TA.AperFunction,ComponentPad*%
%ADD14C,1.600000*%
%TD*%
%TA.AperFunction,ComponentPad*%
%ADD15RoundRect,0.250000X0.550000X0.550000X-0.550000X0.550000X-0.550000X-0.550000X0.550000X-0.550000X0*%
%TD*%
%TA.AperFunction,ComponentPad*%
%ADD16RoundRect,0.250000X0.730909X-0.266029X0.266029X0.730909X-0.730909X0.266029X-0.266029X-0.730909X0*%
%TD*%
%TA.AperFunction,ComponentPad*%
%ADD17RoundRect,0.250000X0.550000X-0.550000X0.550000X0.550000X-0.550000X0.550000X-0.550000X-0.550000X0*%
%TD*%
%TA.AperFunction,SMDPad,CuDef*%
%ADD18RoundRect,0.250000X1.000000X-1.025000X1.000000X1.025000X-1.000000X1.025000X-1.000000X-1.025000X0*%
%TD*%
%TA.AperFunction,SMDPad,CuDef*%
%ADD19RoundRect,0.250000X1.339492X-0.506347X0.473124X1.351584X-1.339492X0.506347X-0.473124X-1.351584X0*%
%TD*%
%TA.AperFunction,SMDPad,CuDef*%
%ADD20R,2.200000X2.200000*%
%TD*%
%TA.AperFunction,ComponentPad*%
%ADD21RoundRect,0.250000X0.266029X0.730909X-0.730909X0.266029X-0.266029X-0.730909X0.730909X-0.266029X0*%
%TD*%
%TA.AperFunction,ComponentPad*%
%ADD22C,1.905000*%
%TD*%
%TA.AperFunction,ComponentPad*%
%ADD23O,1.400000X2.000000*%
%TD*%
%TA.AperFunction,ViaPad*%
%ADD24C,0.600000*%
%TD*%
%TA.AperFunction,Conductor*%
%ADD25C,0.200000*%
%TD*%
%TA.AperFunction,Conductor*%
%ADD26C,0.500000*%
%TD*%
G04 APERTURE END LIST*
D10*
%TO.P,SW0:3,1,1*%
%TO.N,/ROW0*%
X44468679Y-135911669D03*
D11*
X44557001Y-134480227D03*
D10*
%TO.P,SW0:3,2,2*%
%TO.N,Net-(D4-A)*%
X55111069Y-128146461D03*
D11*
X56157740Y-129070714D03*
%TD*%
D12*
%TO.P,SW1:3,1,1*%
%TO.N,/ROW1*%
X136625000Y-140970000D03*
D11*
X135940000Y-142230000D03*
D12*
%TO.P,SW1:3,2,2*%
%TO.N,Net-(D8-A)*%
X123698000Y-143510000D03*
D11*
X123140000Y-142230000D03*
%TD*%
D13*
%TO.P,D30,1,K*%
%TO.N,/COL5*%
X158730000Y-76600000D03*
D14*
%TO.P,D30,2,A*%
%TO.N,Net-(D30-A)*%
X166350000Y-76600000D03*
%TD*%
D12*
%TO.P,SW1:4,1,1*%
%TO.N,/ROW1*%
X155675000Y-142567660D03*
D11*
X154990000Y-143827660D03*
D12*
%TO.P,SW1:4,2,2*%
%TO.N,Net-(D9-A)*%
X142748000Y-145107660D03*
D11*
X142190000Y-143827660D03*
%TD*%
D12*
%TO.P,SW5:2,1,1*%
%TO.N,/ROW5*%
X117575000Y-66367660D03*
D11*
X116890000Y-67627660D03*
D12*
%TO.P,SW5:2,2,2*%
%TO.N,Net-(D34-A)*%
X104648000Y-68907660D03*
D11*
X104090000Y-67627660D03*
%TD*%
D12*
%TO.P,SW5:4,1,1*%
%TO.N,/ROW5*%
X155675000Y-66367660D03*
D11*
X154990000Y-67627660D03*
D12*
%TO.P,SW5:4,2,2*%
%TO.N,Net-(D36-A)*%
X142748000Y-68907660D03*
D11*
X142190000Y-67627660D03*
%TD*%
D15*
%TO.P,D32,1,K*%
%TO.N,/COL0*%
X83690000Y-53450000D03*
D14*
%TO.P,D32,2,A*%
%TO.N,Net-(D32-A)*%
X76070000Y-53450000D03*
%TD*%
D12*
%TO.P,SW5:5,1,1*%
%TO.N,/ROW5*%
X174725000Y-69545200D03*
D11*
X174040000Y-70805200D03*
D12*
%TO.P,SW5:5,2,2*%
%TO.N,Net-(D37-A)*%
X161798000Y-72085200D03*
D11*
X161240000Y-70805200D03*
%TD*%
D12*
%TO.P,SW4:1,1,1*%
%TO.N,/ROW4*%
X98525000Y-86687660D03*
D11*
X97840000Y-87947660D03*
D12*
%TO.P,SW4:1,2,2*%
%TO.N,Net-(D26-A)*%
X85598000Y-89227660D03*
D11*
X85040000Y-87947660D03*
%TD*%
D12*
%TO.P,SW3:6,1,1*%
%TO.N,/ROW3*%
X198537500Y-107642660D03*
D11*
X197852500Y-108902660D03*
D12*
%TO.P,SW3:6,2,2*%
%TO.N,Net-(D24-A)*%
X185610500Y-110182660D03*
D11*
X185052500Y-108902660D03*
%TD*%
D12*
%TO.P,SW4:2,1,1*%
%TO.N,/ROW4*%
X117575000Y-85417660D03*
D11*
X116890000Y-86677660D03*
D12*
%TO.P,SW4:2,2,2*%
%TO.N,Net-(D27-A)*%
X104648000Y-87957660D03*
D11*
X104090000Y-86677660D03*
%TD*%
D12*
%TO.P,SW5:3,1,1*%
%TO.N,/ROW5*%
X136625000Y-64770000D03*
D11*
X135940000Y-66030000D03*
D12*
%TO.P,SW5:3,2,2*%
%TO.N,Net-(D35-A)*%
X123698000Y-67310000D03*
D11*
X123140000Y-66030000D03*
%TD*%
D15*
%TO.P,D22,1,K*%
%TO.N,/COL4*%
X156820000Y-92600000D03*
D14*
%TO.P,D22,2,A*%
%TO.N,Net-(D22-A)*%
X149200000Y-92600000D03*
%TD*%
D12*
%TO.P,SW4:3,1,1*%
%TO.N,/ROW4*%
X136625000Y-83820000D03*
D11*
X135940000Y-85080000D03*
D12*
%TO.P,SW4:3,2,2*%
%TO.N,Net-(D28-A)*%
X123698000Y-86360000D03*
D11*
X123140000Y-85080000D03*
%TD*%
D15*
%TO.P,D36,1,K*%
%TO.N,/COL4*%
X156820000Y-54090000D03*
D14*
%TO.P,D36,2,A*%
%TO.N,Net-(D36-A)*%
X149200000Y-54090000D03*
%TD*%
D12*
%TO.P,SW1:2,1,1*%
%TO.N,/ROW1*%
X117575000Y-142567660D03*
D11*
X116890000Y-143827660D03*
D12*
%TO.P,SW1:2,2,2*%
%TO.N,Net-(D7-A)*%
X104648000Y-145107660D03*
D11*
X104090000Y-143827660D03*
%TD*%
D13*
%TO.P,D20,1,K*%
%TO.N,/COL2*%
X101720000Y-92970000D03*
D14*
%TO.P,D20,2,A*%
%TO.N,Net-(D20-A)*%
X109340000Y-92970000D03*
%TD*%
D16*
%TO.P,D1,1,K*%
%TO.N,/COL0*%
X44550176Y-142093033D03*
D14*
%TO.P,D1,2,A*%
%TO.N,Net-(D1-A)*%
X41329825Y-135186968D03*
%TD*%
D12*
%TO.P,SW5:1,1,1*%
%TO.N,/ROW5*%
X98525000Y-67640200D03*
D11*
X97840000Y-68900200D03*
D12*
%TO.P,SW5:1,2,2*%
%TO.N,Net-(D33-A)*%
X85598000Y-70180200D03*
D11*
X85040000Y-68900200D03*
%TD*%
D12*
%TO.P,SW2:1,1,1*%
%TO.N,/ROW2*%
X98525000Y-124787660D03*
D11*
X97840000Y-126047660D03*
D12*
%TO.P,SW2:1,2,2*%
%TO.N,Net-(D13-A)*%
X85598000Y-127327660D03*
D11*
X85040000Y-126047660D03*
%TD*%
D13*
%TO.P,D14,1,K*%
%TO.N,/COL2*%
X101720000Y-111330000D03*
D14*
%TO.P,D14,2,A*%
%TO.N,Net-(D14-A)*%
X109340000Y-111330000D03*
%TD*%
D13*
%TO.P,D23,1,K*%
%TO.N,/COL5*%
X158730000Y-95760000D03*
D14*
%TO.P,D23,2,A*%
%TO.N,Net-(D23-A)*%
X166350000Y-95760000D03*
%TD*%
D12*
%TO.P,SW3:1,1,1*%
%TO.N,/ROW3*%
X98525000Y-105737660D03*
D11*
X97840000Y-106997660D03*
D12*
%TO.P,SW3:1,2,2*%
%TO.N,Net-(D19-A)*%
X85598000Y-108277660D03*
D11*
X85040000Y-106997660D03*
%TD*%
D16*
%TO.P,D4,1,K*%
%TO.N,/COL3*%
X62600176Y-134193033D03*
D14*
%TO.P,D4,2,A*%
%TO.N,Net-(D4-A)*%
X59379825Y-127286968D03*
%TD*%
D10*
%TO.P,SW0:1,1,1*%
%TO.N,/ROW0*%
X35253559Y-161225309D03*
D11*
X35341881Y-159793867D03*
D10*
%TO.P,SW0:1,2,2*%
%TO.N,Net-(D2-A)*%
X45895949Y-153460101D03*
D11*
X46942620Y-154384354D03*
%TD*%
D13*
%TO.P,D28,1,K*%
%TO.N,/COL3*%
X120550000Y-71760000D03*
D14*
%TO.P,D28,2,A*%
%TO.N,Net-(D28-A)*%
X128170000Y-71760000D03*
%TD*%
D12*
%TO.P,SW4:4,1,1*%
%TO.N,/ROW4*%
X155675000Y-85417660D03*
D11*
X154990000Y-86677660D03*
D12*
%TO.P,SW4:4,2,2*%
%TO.N,Net-(D29-A)*%
X142748000Y-87957660D03*
D11*
X142190000Y-86677660D03*
%TD*%
D13*
%TO.P,D11,1,K*%
%TO.N,/COL6*%
X181730000Y-133330000D03*
D14*
%TO.P,D11,2,A*%
%TO.N,Net-(D11-A)*%
X189350000Y-133330000D03*
%TD*%
D17*
%TO.P,BT1,1,+*%
%TO.N,Net-(BT1-+)*%
X133550000Y-44900000D03*
D14*
%TO.P,BT1,2,-*%
%TO.N,/B-*%
X133550000Y-41300000D03*
%TD*%
D18*
%TO.P,SW4:0,1,1*%
%TO.N,/ROW4*%
X69850000Y-95995160D03*
D11*
X68590000Y-95310160D03*
D18*
%TO.P,SW4:0,2,2*%
%TO.N,Net-(D25-A)*%
X67310000Y-83068160D03*
D11*
X68590000Y-82510160D03*
%TD*%
D19*
%TO.P,SW0:5,1,1*%
%TO.N,/ROW0*%
X81995089Y-160560121D03*
D11*
X80563647Y-160471799D03*
D19*
%TO.P,SW0:5,2,2*%
%TO.N,Net-(D6-A)*%
X74229881Y-149917731D03*
D11*
X75154134Y-148871060D03*
%TD*%
D13*
%TO.P,D15,1,K*%
%TO.N,/COL3*%
X120550000Y-110260000D03*
D14*
%TO.P,D15,2,A*%
%TO.N,Net-(D15-A)*%
X128170000Y-110260000D03*
%TD*%
D13*
%TO.P,D19,1,K*%
%TO.N,/COL1*%
X82740000Y-93710000D03*
D14*
%TO.P,D19,2,A*%
%TO.N,Net-(D19-A)*%
X90360000Y-93710000D03*
%TD*%
D20*
%TO.P,J1,*%
%TO.N,*%
X91711000Y-38408000D03*
%TO.P,J1, *%
%TO.N,N/C*%
X83111000Y-33908000D03*
%TO.P,J1,1,PWR*%
%TO.N,/RAW*%
X83111000Y-38408000D03*
%TO.P,J1,2,GND*%
%TO.N,/GND2*%
X91711000Y-33908000D03*
%TD*%
D10*
%TO.P,SW0:0,1,1*%
%TO.N,/ROW0*%
X27204299Y-143960929D03*
D11*
X27292621Y-142529487D03*
D10*
%TO.P,SW0:0,2,2*%
%TO.N,Net-(D1-A)*%
X37846689Y-136195721D03*
D11*
X38893360Y-137119974D03*
%TD*%
D13*
%TO.P,D17,1,K*%
%TO.N,/COL5*%
X158730000Y-114540000D03*
D14*
%TO.P,D17,2,A*%
%TO.N,Net-(D17-A)*%
X166350000Y-114540000D03*
%TD*%
D12*
%TO.P,SW2:6,1,1*%
%TO.N,/ROW2*%
X198537500Y-126692660D03*
D11*
X197852500Y-127952660D03*
D12*
%TO.P,SW2:6,2,2*%
%TO.N,Net-(D18-A)*%
X185610500Y-129232660D03*
D11*
X185052500Y-127952660D03*
%TD*%
D21*
%TO.P,D5,1,K*%
%TO.N,/COL4*%
X62113033Y-150909825D03*
D14*
%TO.P,D5,2,A*%
%TO.N,Net-(D5-A)*%
X55206968Y-154130176D03*
%TD*%
D13*
%TO.P,D26,1,K*%
%TO.N,/COL1*%
X82740000Y-74550000D03*
D14*
%TO.P,D26,2,A*%
%TO.N,Net-(D26-A)*%
X90360000Y-74550000D03*
%TD*%
D19*
%TO.P,SW0:4,1,1*%
%TO.N,/ROW0*%
X64730709Y-168611921D03*
D11*
X63299267Y-168523599D03*
D19*
%TO.P,SW0:4,2,2*%
%TO.N,Net-(D5-A)*%
X56965501Y-157969531D03*
D11*
X57889754Y-156922860D03*
%TD*%
D12*
%TO.P,SW3:4,1,1*%
%TO.N,/ROW3*%
X155675000Y-104467660D03*
D11*
X154990000Y-105727660D03*
D12*
%TO.P,SW3:4,2,2*%
%TO.N,Net-(D22-A)*%
X142748000Y-107007660D03*
D11*
X142190000Y-105727660D03*
%TD*%
D12*
%TO.P,SW2:5,1,1*%
%TO.N,/ROW2*%
X174725000Y-126692660D03*
D11*
X174040000Y-127952660D03*
D12*
%TO.P,SW2:5,2,2*%
%TO.N,Net-(D17-A)*%
X161798000Y-129232660D03*
D11*
X161240000Y-127952660D03*
%TD*%
D13*
%TO.P,D24,1,K*%
%TO.N,/COL6*%
X181730000Y-95940000D03*
D14*
%TO.P,D24,2,A*%
%TO.N,Net-(D24-A)*%
X189350000Y-95940000D03*
%TD*%
D13*
%TO.P,D31,1,K*%
%TO.N,/COL6*%
X181730000Y-76790000D03*
D14*
%TO.P,D31,2,A*%
%TO.N,Net-(D31-A)*%
X189350000Y-76790000D03*
%TD*%
D21*
%TO.P,D2,1,K*%
%TO.N,/COL1*%
X60023033Y-146819825D03*
D14*
%TO.P,D2,2,A*%
%TO.N,Net-(D2-A)*%
X53116968Y-150040176D03*
%TD*%
D13*
%TO.P,D7,1,K*%
%TO.N,/COL2*%
X101720000Y-130520000D03*
D14*
%TO.P,D7,2,A*%
%TO.N,Net-(D7-A)*%
X109340000Y-130520000D03*
%TD*%
D13*
%TO.P,D13,1,K*%
%TO.N,/COL1*%
X82740000Y-112830000D03*
D14*
%TO.P,D13,2,A*%
%TO.N,Net-(D13-A)*%
X90360000Y-112830000D03*
%TD*%
D13*
%TO.P,D37,1,K*%
%TO.N,/COL5*%
X158730000Y-57810000D03*
D14*
%TO.P,D37,2,A*%
%TO.N,Net-(D37-A)*%
X166350000Y-57810000D03*
%TD*%
D13*
%TO.P,D34,1,K*%
%TO.N,/COL2*%
X101720000Y-54090000D03*
D14*
%TO.P,D34,2,A*%
%TO.N,Net-(D34-A)*%
X109340000Y-54090000D03*
%TD*%
%TO.P,SW1,1,A*%
%TO.N,Net-(BT1-+)*%
X188952500Y-69005200D03*
%TO.P,SW1,2,B*%
%TO.N,/B+*%
X188952500Y-67005200D03*
%TO.P,SW1,3,C*%
%TO.N,unconnected-(SW1A-C-Pad3)*%
X188952500Y-65005200D03*
%TO.P,SW1,4*%
%TO.N,N/C*%
X193952500Y-69005200D03*
%TO.P,SW1,5*%
X193952500Y-67005200D03*
D22*
%TO.P,SW1,6*%
X193952500Y-65005200D03*
%TD*%
D15*
%TO.P,D16,1,K*%
%TO.N,/COL4*%
X156820000Y-111570000D03*
D14*
%TO.P,D16,2,A*%
%TO.N,Net-(D16-A)*%
X149200000Y-111570000D03*
%TD*%
D13*
%TO.P,D27,1,K*%
%TO.N,/COL2*%
X101720000Y-73440000D03*
D14*
%TO.P,D27,2,A*%
%TO.N,Net-(D27-A)*%
X109340000Y-73440000D03*
%TD*%
D13*
%TO.P,D8,1,K*%
%TO.N,/COL3*%
X120550000Y-129410000D03*
D14*
%TO.P,D8,2,A*%
%TO.N,Net-(D8-A)*%
X128170000Y-129410000D03*
%TD*%
D13*
%TO.P,D21,1,K*%
%TO.N,/COL3*%
X120550000Y-91110000D03*
D14*
%TO.P,D21,2,A*%
%TO.N,Net-(D21-A)*%
X128170000Y-91110000D03*
%TD*%
D10*
%TO.P,SW0:2,1,1*%
%TO.N,/ROW0*%
X43305359Y-178492229D03*
D11*
X43393681Y-177060787D03*
D10*
%TO.P,SW0:2,2,2*%
%TO.N,Net-(D3-A)*%
X53947749Y-170727021D03*
D11*
X54994420Y-171651274D03*
%TD*%
D13*
%TO.P,D33,1,K*%
%TO.N,/COL1*%
X82740000Y-55980000D03*
D14*
%TO.P,D33,2,A*%
%TO.N,Net-(D33-A)*%
X90360000Y-55980000D03*
%TD*%
D18*
%TO.P,SW2:0,1,1*%
%TO.N,/ROW2*%
X69850000Y-124570160D03*
D11*
X68590000Y-123885160D03*
D18*
%TO.P,SW2:0,2,2*%
%TO.N,Net-(D12-A)*%
X67310000Y-111643160D03*
D11*
X68590000Y-111085160D03*
%TD*%
D15*
%TO.P,D12,1,K*%
%TO.N,/COL0*%
X80340000Y-106590000D03*
D14*
%TO.P,D12,2,A*%
%TO.N,Net-(D12-A)*%
X72720000Y-106590000D03*
%TD*%
D12*
%TO.P,SW1:6,1,1*%
%TO.N,/ROW1*%
X193775000Y-145742660D03*
D11*
X193090000Y-147002660D03*
D12*
%TO.P,SW1:6,2,2*%
%TO.N,Net-(D11-A)*%
X180848000Y-148282660D03*
D11*
X180290000Y-147002660D03*
%TD*%
D12*
%TO.P,SW4:5,1,1*%
%TO.N,/ROW4*%
X174725000Y-88592660D03*
D11*
X174040000Y-89852660D03*
D12*
%TO.P,SW4:5,2,2*%
%TO.N,Net-(D30-A)*%
X161798000Y-91132660D03*
D11*
X161240000Y-89852660D03*
%TD*%
D12*
%TO.P,SW4:6,1,1*%
%TO.N,/ROW4*%
X198537500Y-88592660D03*
D11*
X197852500Y-89852660D03*
D12*
%TO.P,SW4:6,2,2*%
%TO.N,Net-(D31-A)*%
X185610500Y-91132660D03*
D11*
X185052500Y-89852660D03*
%TD*%
D16*
%TO.P,D3,1,K*%
%TO.N,/COL2*%
X60650176Y-175913033D03*
D14*
%TO.P,D3,2,A*%
%TO.N,Net-(D3-A)*%
X57429825Y-169006968D03*
%TD*%
D21*
%TO.P,D6,1,K*%
%TO.N,/COL5*%
X79433033Y-142849825D03*
D14*
%TO.P,D6,2,A*%
%TO.N,Net-(D6-A)*%
X72526968Y-146070176D03*
%TD*%
D12*
%TO.P,SW3:3,1,1*%
%TO.N,/ROW3*%
X136625000Y-102870000D03*
D11*
X135940000Y-104130000D03*
D12*
%TO.P,SW3:3,2,2*%
%TO.N,Net-(D21-A)*%
X123698000Y-105410000D03*
D11*
X123140000Y-104130000D03*
%TD*%
D12*
%TO.P,SW3:5,1,1*%
%TO.N,/ROW3*%
X174725000Y-107642660D03*
D11*
X174040000Y-108902660D03*
D12*
%TO.P,SW3:5,2,2*%
%TO.N,Net-(D23-A)*%
X161798000Y-110182660D03*
D11*
X161240000Y-108902660D03*
%TD*%
D15*
%TO.P,D25,1,K*%
%TO.N,/COL0*%
X80340000Y-79020000D03*
D14*
%TO.P,D25,2,A*%
%TO.N,Net-(D25-A)*%
X72720000Y-79020000D03*
%TD*%
D12*
%TO.P,SW1:5,1,1*%
%TO.N,/ROW1*%
X174725000Y-145742660D03*
D11*
X174040000Y-147002660D03*
D12*
%TO.P,SW1:5,2,2*%
%TO.N,Net-(D10-A)*%
X161798000Y-148282660D03*
D11*
X161240000Y-147002660D03*
%TD*%
D13*
%TO.P,D18,1,K*%
%TO.N,/COL6*%
X181730000Y-114730000D03*
D14*
%TO.P,D18,2,A*%
%TO.N,Net-(D18-A)*%
X189350000Y-114730000D03*
%TD*%
D12*
%TO.P,SW2:4,1,1*%
%TO.N,/ROW2*%
X155675000Y-123517660D03*
D11*
X154990000Y-124777660D03*
D12*
%TO.P,SW2:4,2,2*%
%TO.N,Net-(D16-A)*%
X142748000Y-126057660D03*
D11*
X142190000Y-124777660D03*
%TD*%
D15*
%TO.P,D9,1,K*%
%TO.N,/COL4*%
X156820000Y-130480000D03*
D14*
%TO.P,D9,2,A*%
%TO.N,Net-(D9-A)*%
X149200000Y-130480000D03*
%TD*%
D12*
%TO.P,SW2:2,1,1*%
%TO.N,/ROW2*%
X117575000Y-123517660D03*
D11*
X116890000Y-124777660D03*
D12*
%TO.P,SW2:2,2,2*%
%TO.N,Net-(D14-A)*%
X104648000Y-126057660D03*
D11*
X104090000Y-124777660D03*
%TD*%
D13*
%TO.P,D10,1,K*%
%TO.N,/COL5*%
X158730000Y-133710000D03*
D14*
%TO.P,D10,2,A*%
%TO.N,Net-(D10-A)*%
X166350000Y-133710000D03*
%TD*%
D12*
%TO.P,SW2:3,1,1*%
%TO.N,/ROW2*%
X136625000Y-121920000D03*
D11*
X135940000Y-123180000D03*
D12*
%TO.P,SW2:3,2,2*%
%TO.N,Net-(D15-A)*%
X123698000Y-124460000D03*
D11*
X123140000Y-123180000D03*
%TD*%
D12*
%TO.P,SW3:2,1,1*%
%TO.N,/ROW3*%
X117575000Y-104467660D03*
D11*
X116890000Y-105727660D03*
D12*
%TO.P,SW3:2,2,2*%
%TO.N,Net-(D20-A)*%
X104648000Y-107007660D03*
D11*
X104090000Y-105727660D03*
%TD*%
D13*
%TO.P,D35,1,K*%
%TO.N,/COL3*%
X120550000Y-53100000D03*
D14*
%TO.P,D35,2,A*%
%TO.N,Net-(D35-A)*%
X128170000Y-53100000D03*
%TD*%
D15*
%TO.P,D29,1,K*%
%TO.N,/COL4*%
X156820000Y-73070000D03*
D14*
%TO.P,D29,2,A*%
%TO.N,Net-(D29-A)*%
X149200000Y-73070000D03*
%TD*%
D12*
%TO.P,SW5:0,1,1*%
%TO.N,/ROW5*%
X79475000Y-67640200D03*
D11*
X78790000Y-68900200D03*
D12*
%TO.P,SW5:0,2,2*%
%TO.N,Net-(D32-A)*%
X66548000Y-70180200D03*
D11*
X65990000Y-68900200D03*
%TD*%
D23*
%TO.P,U1,1,B-*%
%TO.N,/B-*%
X159440000Y-33030000D03*
%TO.P,U1,2,006*%
%TO.N,/RAW*%
X161980000Y-33030000D03*
%TO.P,U1,3,008*%
%TO.N,/GND2*%
X164520000Y-33030000D03*
%TO.P,U1,4,GND*%
%TO.N,/GND1*%
X167060000Y-33030000D03*
%TO.P,U1,5,GND*%
%TO.N,unconnected-(U1-GND-Pad5)*%
X169600000Y-33030000D03*
%TO.P,U1,6,017*%
%TO.N,unconnected-(U1-017-Pad6)*%
X172140000Y-33030000D03*
%TO.P,U1,7,020*%
%TO.N,unconnected-(U1-020-Pad7)*%
X174680000Y-33030000D03*
%TO.P,U1,8,022*%
%TO.N,/ROW5*%
X177220000Y-33030000D03*
%TO.P,U1,9,024*%
%TO.N,/ROW4*%
X179760000Y-33030000D03*
%TO.P,U1,10,100*%
%TO.N,/ROW3*%
X182300000Y-33030000D03*
%TO.P,U1,11,011*%
%TO.N,/ROW2*%
X184840000Y-33030000D03*
%TO.P,U1,12,104*%
%TO.N,/ROW1*%
X187380000Y-33030000D03*
%TO.P,U1,13,106*%
%TO.N,/ROW0*%
X189920000Y-33030000D03*
%TO.P,U1,14,009*%
%TO.N,/COL6*%
X189920000Y-48030000D03*
%TO.P,U1,15,010*%
%TO.N,/COL5*%
X187380000Y-48030000D03*
%TO.P,U1,16,111*%
%TO.N,/COL4*%
X184840000Y-48030000D03*
%TO.P,U1,17,113*%
%TO.N,/COL3*%
X182300000Y-48030000D03*
%TO.P,U1,18,115*%
%TO.N,/COL2*%
X179760000Y-48030000D03*
%TO.P,U1,19,002*%
%TO.N,/COL1*%
X177220000Y-48030000D03*
%TO.P,U1,20,029*%
%TO.N,/COL0*%
X174680000Y-48030000D03*
%TO.P,U1,21,031*%
%TO.N,unconnected-(U1-031-Pad21)*%
X172140000Y-48030000D03*
%TO.P,U1,22,VCC*%
%TO.N,unconnected-(U1-VCC-Pad22)*%
X169600000Y-48030000D03*
%TO.P,U1,23,RST*%
%TO.N,/RST*%
X167060000Y-48030000D03*
%TO.P,U1,24,GND*%
%TO.N,/GND2*%
X164520000Y-48030000D03*
%TO.P,U1,25,RAW*%
%TO.N,/RAW*%
X161980000Y-48030000D03*
%TO.P,U1,26,B+*%
%TO.N,/B+*%
X159440000Y-48030000D03*
%TD*%
D22*
%TO.P,RST1,1,1*%
%TO.N,/GND1*%
X119611000Y-43108000D03*
%TO.P,RST1,2,2*%
%TO.N,/RST*%
X119611000Y-48708000D03*
%TD*%
D24*
%TO.N,/RAW*%
X85940000Y-38910000D03*
%TO.N,/GND2*%
X86270000Y-34400000D03*
%TD*%
D25*
%TO.N,/ROW0*%
X81995089Y-160560121D02*
X103599000Y-150901000D01*
%TO.N,/ROW5*%
X174725000Y-69545200D02*
X179704800Y-69545200D01*
X181329000Y-67921000D02*
X181329000Y-57893900D01*
X179704800Y-69545200D02*
X181329000Y-67921000D01*
X181329000Y-57893900D02*
X188500000Y-50722900D01*
X188500000Y-50722900D02*
X188500000Y-44310000D01*
X188500000Y-44310000D02*
X177220000Y-33030000D01*
%TO.N,Net-(D1-A)*%
X37846689Y-136195721D02*
X41329825Y-135186968D01*
%TO.N,Net-(D2-A)*%
X45895949Y-153460101D02*
X53116968Y-150040176D01*
%TO.N,/COL0*%
X87030000Y-50110000D02*
X172600000Y-50110000D01*
X83690000Y-53450000D02*
X87030000Y-50110000D01*
X172600000Y-50110000D02*
X174680000Y-48030000D01*
%TO.N,/COL1*%
X84440000Y-55980000D02*
X89909000Y-50511000D01*
X174739000Y-50511000D02*
X177220000Y-48030000D01*
X82740000Y-55980000D02*
X84440000Y-55980000D01*
X89909000Y-50511000D02*
X174739000Y-50511000D01*
%TO.N,Net-(D3-A)*%
X53947749Y-170727021D02*
X57429825Y-169006968D01*
%TO.N,/COL2*%
X104898000Y-50912000D02*
X176878000Y-50912000D01*
X176878000Y-50912000D02*
X179760000Y-48030000D01*
X101720000Y-54090000D02*
X104898000Y-50912000D01*
%TO.N,Net-(D4-A)*%
X55111069Y-128146461D02*
X59379825Y-127286968D01*
%TO.N,/COL3*%
X62600176Y-134193033D02*
X66793209Y-130000000D01*
X120550000Y-53100000D02*
X122337000Y-51313000D01*
X100353840Y-130000000D02*
X100934840Y-129419000D01*
X122337000Y-51313000D02*
X179017000Y-51313000D01*
X179017000Y-51313000D02*
X182300000Y-48030000D01*
X66793209Y-130000000D02*
X100353840Y-130000000D01*
X100934840Y-129419000D02*
X120541000Y-129419000D01*
%TO.N,Net-(D5-A)*%
X56965501Y-157969531D02*
X55206968Y-154130176D01*
%TO.N,/COL4*%
X184840000Y-48030000D02*
X181156000Y-51714000D01*
X62113033Y-141886967D02*
X71500000Y-132500000D01*
X62113033Y-150909825D02*
X62113033Y-141886967D01*
X159196000Y-51714000D02*
X156820000Y-54090000D01*
X71500000Y-132500000D02*
X154800000Y-132500000D01*
X154800000Y-132500000D02*
X156820000Y-130480000D01*
X181156000Y-51714000D02*
X159196000Y-51714000D01*
%TO.N,Net-(D6-A)*%
X74229881Y-149917731D02*
X72526968Y-146070176D01*
%TO.N,/COL5*%
X187380000Y-48030000D02*
X183295000Y-52115000D01*
X183295000Y-52115000D02*
X164425000Y-52115000D01*
X164425000Y-52115000D02*
X158730000Y-57810000D01*
%TO.N,/COL6*%
X189920000Y-49870000D02*
X189920000Y-48030000D01*
X181730000Y-76790000D02*
X181730000Y-58060000D01*
X181730000Y-58060000D02*
X189920000Y-49870000D01*
%TO.N,/RAW*%
X85938000Y-38908000D02*
X85940000Y-38910000D01*
D26*
X83111000Y-38908000D02*
X85938000Y-38908000D01*
D25*
%TO.N,/ROW0*%
X198000000Y-145500000D02*
X198000000Y-134000000D01*
X49730000Y-184120000D02*
X63360000Y-177850000D01*
X198000000Y-134000000D02*
X201500000Y-130500000D01*
X203500000Y-118000000D02*
X203500000Y-46610000D01*
X203500000Y-46610000D02*
X189920000Y-33030000D01*
X103599000Y-150901000D02*
X192599000Y-150901000D01*
X63360000Y-177850000D02*
X64730709Y-168611921D01*
X201500000Y-120000000D02*
X203500000Y-118000000D01*
X35253559Y-161225309D02*
X43305359Y-178492229D01*
X27204299Y-143960929D02*
X35253559Y-161225309D01*
X201500000Y-130500000D02*
X201500000Y-120000000D01*
X192599000Y-150901000D02*
X198000000Y-145500000D01*
X64730709Y-168611921D02*
X81995089Y-160560121D01*
X43305359Y-178492229D02*
X44800000Y-181630000D01*
X44800000Y-181630000D02*
X49730000Y-184120000D01*
D26*
%TO.N,/GND2*%
X98646950Y-40843950D02*
X127476050Y-40843950D01*
X86278000Y-34408000D02*
X91211000Y-34408000D01*
X131960000Y-36360000D02*
X161190000Y-36360000D01*
X127476050Y-40843950D02*
X131960000Y-36360000D01*
X161190000Y-36360000D02*
X164520000Y-33030000D01*
X91711000Y-33908000D02*
X98646950Y-40843950D01*
X86270000Y-34400000D02*
X86278000Y-34408000D01*
D25*
%TO.N,/RST*%
X120553000Y-49650000D02*
X165440000Y-49650000D01*
X165440000Y-49650000D02*
X167060000Y-48030000D01*
X119611000Y-48708000D02*
X120553000Y-49650000D01*
%TO.N,/ROW1*%
X188030000Y-33030000D02*
X187380000Y-33030000D01*
X154990000Y-144393345D02*
X154990000Y-143827660D01*
X179482340Y-150500000D02*
X190158345Y-150500000D01*
X136625000Y-142220000D02*
X141905000Y-147500000D01*
X190158345Y-150500000D02*
X193090000Y-147568345D01*
X201099000Y-119833900D02*
X203000000Y-117932900D01*
X132485685Y-146250000D02*
X135940000Y-142795685D01*
X193775000Y-137657900D02*
X201099000Y-130333900D01*
X203000000Y-117932900D02*
X203000000Y-48000000D01*
X151883345Y-147500000D02*
X154990000Y-144393345D01*
X193775000Y-145742660D02*
X193775000Y-137657900D01*
X201099000Y-130333900D02*
X201099000Y-119833900D01*
X121257340Y-146250000D02*
X132485685Y-146250000D01*
X141905000Y-147500000D02*
X151883345Y-147500000D01*
X136625000Y-140970000D02*
X136625000Y-142220000D01*
X193090000Y-147568345D02*
X193090000Y-147002660D01*
X174040000Y-147568345D02*
X174040000Y-147002660D01*
X117575000Y-142567660D02*
X121257340Y-146250000D01*
X203000000Y-48000000D02*
X188030000Y-33030000D01*
X135940000Y-142795685D02*
X135940000Y-142230000D01*
X155675000Y-142567660D02*
X155675000Y-146675000D01*
X155675000Y-146675000D02*
X159500000Y-150500000D01*
X174725000Y-145742660D02*
X179482340Y-150500000D01*
X159500000Y-150500000D02*
X171108345Y-150500000D01*
X171108345Y-150500000D02*
X174040000Y-147568345D01*
%TO.N,/ROW2*%
X155675000Y-123517660D02*
X155675000Y-125920820D01*
X186310000Y-34500000D02*
X184840000Y-33030000D01*
X97840000Y-126613345D02*
X97840000Y-126047660D01*
X116890000Y-125343345D02*
X116890000Y-124777660D01*
X136625000Y-121920000D02*
X136625000Y-123170000D01*
X141955000Y-128500000D02*
X151833345Y-128500000D01*
X94953345Y-129500000D02*
X97840000Y-126613345D01*
X117575000Y-123517660D02*
X121057340Y-127000000D01*
X174725000Y-126692660D02*
X179532340Y-131500000D01*
X132685685Y-127000000D02*
X135940000Y-123745685D01*
X174040000Y-128518345D02*
X174040000Y-127952660D01*
X194870845Y-131500000D02*
X197852500Y-128518345D01*
X188000000Y-34500000D02*
X186310000Y-34500000D01*
X136625000Y-123170000D02*
X141955000Y-128500000D01*
X69850000Y-124570160D02*
X74779840Y-129500000D01*
X202500000Y-117865800D02*
X202500000Y-49000000D01*
X200698000Y-119667800D02*
X202500000Y-117865800D01*
X113733345Y-128500000D02*
X116890000Y-125343345D01*
X98525000Y-124787660D02*
X102237340Y-128500000D01*
X155675000Y-125920820D02*
X161254180Y-131500000D01*
X121057340Y-127000000D02*
X132685685Y-127000000D01*
X197852500Y-128518345D02*
X197852500Y-127952660D01*
X135940000Y-123745685D02*
X135940000Y-123180000D01*
X161254180Y-131500000D02*
X171058345Y-131500000D01*
X102237340Y-128500000D02*
X113733345Y-128500000D01*
X179532340Y-131500000D02*
X194870845Y-131500000D01*
X74779840Y-129500000D02*
X94953345Y-129500000D01*
X200698000Y-124532160D02*
X200698000Y-119667800D01*
X202500000Y-49000000D02*
X188000000Y-34500000D01*
X198537500Y-126692660D02*
X200698000Y-124532160D01*
X154990000Y-125343345D02*
X154990000Y-124777660D01*
X171058345Y-131500000D02*
X174040000Y-128518345D01*
X151833345Y-128500000D02*
X154990000Y-125343345D01*
%TO.N,/ROW3*%
X174040000Y-109468345D02*
X174040000Y-108902660D01*
X198537500Y-107642660D02*
X202099000Y-104081160D01*
X116890000Y-106293345D02*
X116890000Y-105727660D01*
X154990000Y-106293345D02*
X154990000Y-105727660D01*
X174725000Y-107642660D02*
X179582340Y-112500000D01*
X113683345Y-109500000D02*
X116890000Y-106293345D01*
X132635685Y-108000000D02*
X135940000Y-104695685D01*
X184171000Y-34901000D02*
X182300000Y-33030000D01*
X161304180Y-112500000D02*
X171008345Y-112500000D01*
X142000000Y-109500000D02*
X151783345Y-109500000D01*
X121107340Y-108000000D02*
X132635685Y-108000000D01*
X194820845Y-112500000D02*
X197852500Y-109468345D01*
X151783345Y-109500000D02*
X154990000Y-106293345D01*
X98525000Y-105737660D02*
X102287340Y-109500000D01*
X136625000Y-102870000D02*
X136625000Y-104125000D01*
X179582340Y-112500000D02*
X194820845Y-112500000D01*
X102287340Y-109500000D02*
X113683345Y-109500000D01*
X171008345Y-112500000D02*
X174040000Y-109468345D01*
X197852500Y-109468345D02*
X197852500Y-108902660D01*
X117575000Y-104467660D02*
X121107340Y-108000000D01*
X202099000Y-104081160D02*
X202099000Y-50099000D01*
X186901000Y-34901000D02*
X184171000Y-34901000D01*
X155675000Y-104467660D02*
X155675000Y-106870820D01*
X136625000Y-104125000D02*
X142000000Y-109500000D01*
X155675000Y-106870820D02*
X161304180Y-112500000D01*
X202099000Y-50099000D02*
X186901000Y-34901000D01*
X135940000Y-104695685D02*
X135940000Y-104130000D01*
%TO.N,/ROW4*%
X102337340Y-90500000D02*
X113633345Y-90500000D01*
X182230000Y-35500000D02*
X179760000Y-33030000D01*
X197852500Y-90418345D02*
X197852500Y-89852660D01*
X81500000Y-91500000D02*
X94853345Y-91500000D01*
X139918340Y-80526660D02*
X154026660Y-80526660D01*
X94853345Y-91500000D02*
X97840000Y-88513345D01*
X132585685Y-89000000D02*
X135940000Y-85645685D01*
X113633345Y-90500000D02*
X116890000Y-87243345D01*
X186000000Y-35500000D02*
X182230000Y-35500000D01*
X116890000Y-87243345D02*
X116890000Y-86677660D01*
X180132340Y-94000000D02*
X194270845Y-94000000D01*
X154026660Y-80526660D02*
X155675000Y-82175000D01*
X155675000Y-82175000D02*
X155675000Y-85417660D01*
X201698000Y-85432160D02*
X201698000Y-51198000D01*
X77004840Y-95995160D02*
X81500000Y-91500000D01*
X117575000Y-85417660D02*
X121157340Y-89000000D01*
X69850000Y-95995160D02*
X77004840Y-95995160D01*
X136625000Y-83820000D02*
X139918340Y-80526660D01*
X97840000Y-88513345D02*
X97840000Y-87947660D01*
X174725000Y-88592660D02*
X180132340Y-94000000D01*
X201698000Y-51198000D02*
X186000000Y-35500000D01*
X198537500Y-88592660D02*
X201698000Y-85432160D01*
X194270845Y-94000000D02*
X197852500Y-90418345D01*
X135940000Y-85645685D02*
X135940000Y-85080000D01*
X158092660Y-83000000D02*
X172700583Y-83000000D01*
X98525000Y-86687660D02*
X102337340Y-90500000D01*
X172700583Y-83000000D02*
X174725000Y-85024417D01*
X174725000Y-85024417D02*
X174725000Y-88592660D01*
X121157340Y-89000000D02*
X132585685Y-89000000D01*
X155675000Y-85417660D02*
X158092660Y-83000000D01*
%TO.N,/ROW5*%
X151683345Y-71500000D02*
X154990000Y-68193345D01*
X94915200Y-72500000D02*
X97840000Y-69575200D01*
X79475000Y-67640200D02*
X84334800Y-72500000D01*
X142105000Y-71500000D02*
X151683345Y-71500000D01*
X174725000Y-66725000D02*
X174725000Y-69545200D01*
X120707340Y-69500000D02*
X133035685Y-69500000D01*
X135940000Y-66595685D02*
X135940000Y-66030000D01*
X113583345Y-71500000D02*
X116890000Y-68193345D01*
X154990000Y-68193345D02*
X154990000Y-67627660D01*
X133035685Y-69500000D02*
X135940000Y-66595685D01*
X116890000Y-68193345D02*
X116890000Y-67627660D01*
X172000000Y-64000000D02*
X174725000Y-66725000D01*
X155675000Y-66367660D02*
X158042660Y-64000000D01*
X97840000Y-69575200D02*
X97840000Y-68900200D01*
X84334800Y-72500000D02*
X94915200Y-72500000D01*
X102384800Y-71500000D02*
X113583345Y-71500000D01*
X136625000Y-66020000D02*
X142105000Y-71500000D01*
X98525000Y-67640200D02*
X102384800Y-71500000D01*
X136625000Y-64770000D02*
X136625000Y-66020000D01*
X117575000Y-66367660D02*
X120707340Y-69500000D01*
X158042660Y-64000000D02*
X172000000Y-64000000D01*
%TO.N,/GND1*%
X156982000Y-43108000D02*
X167060000Y-33030000D01*
X119611000Y-43108000D02*
X156982000Y-43108000D01*
%TD*%
M02*
