%TF.GenerationSoftware,KiCad,Pcbnew,9.0.7*%
%TF.CreationDate,2026-03-09T12:56:56+09:00*%
%TF.ProjectId,ErgoDoxEZBL,4572676f-446f-4784-955a-424c2e6b6963,rev?*%
%TF.SameCoordinates,Original*%
%TF.FileFunction,Soldermask,Bot*%
%TF.FilePolarity,Negative*%
%FSLAX46Y46*%
G04 Gerber Fmt 4.6, Leading zero omitted, Abs format (unit mm)*
G04 Created by KiCad (PCBNEW 9.0.7) date 2026-03-09 12:56:56*
%MOMM*%
%LPD*%
G01*
G04 APERTURE LIST*
G04 Aperture macros list*
%AMRoundRect*
0 Rectangle with rounded corners*
0 $1 Rounding radius*
0 $2 $3 $4 $5 $6 $7 $8 $9 X,Y pos of 4 corners*
0 Add a 4 corners polygon primitive as box body*
4,1,4,$2,$3,$4,$5,$6,$7,$8,$9,$2,$3,0*
0 Add four circle primitives for the rounded corners*
1,1,$1+$1,$2,$3*
1,1,$1+$1,$4,$5*
1,1,$1+$1,$6,$7*
1,1,$1+$1,$8,$9*
0 Add four rect primitives between the rounded corners*
20,1,$1+$1,$2,$3,$4,$5,0*
20,1,$1+$1,$4,$5,$6,$7,0*
20,1,$1+$1,$6,$7,$8,$9,0*
20,1,$1+$1,$8,$9,$2,$3,0*%
G04 Aperture macros list end*
%ADD10C,1.750000*%
%ADD11C,3.050000*%
%ADD12C,4.000000*%
%ADD13RoundRect,0.250000X-0.506347X-1.339492X1.351584X-0.473124X0.506347X1.339492X-1.351584X0.473124X0*%
%ADD14C,0.800000*%
%ADD15RoundRect,0.250000X1.025000X1.000000X-1.025000X1.000000X-1.025000X-1.000000X1.025000X-1.000000X0*%
%ADD16RoundRect,0.250000X-0.550000X-0.550000X0.550000X-0.550000X0.550000X0.550000X-0.550000X0.550000X0*%
%ADD17C,1.600000*%
%ADD18RoundRect,0.250000X0.550000X0.550000X-0.550000X0.550000X-0.550000X-0.550000X0.550000X-0.550000X0*%
%ADD19RoundRect,0.250000X0.730909X-0.266029X0.266029X0.730909X-0.730909X0.266029X-0.266029X-0.730909X0*%
%ADD20RoundRect,0.250000X0.550000X-0.550000X0.550000X0.550000X-0.550000X0.550000X-0.550000X-0.550000X0*%
%ADD21RoundRect,0.250000X1.000000X-1.025000X1.000000X1.025000X-1.000000X1.025000X-1.000000X-1.025000X0*%
%ADD22RoundRect,0.250000X1.339492X-0.506347X0.473124X1.351584X-1.339492X0.506347X-0.473124X-1.351584X0*%
%ADD23R,2.200000X2.200000*%
%ADD24RoundRect,0.250000X0.266029X0.730909X-0.730909X0.266029X-0.266029X-0.730909X0.730909X-0.266029X0*%
%ADD25C,1.905000*%
%ADD26O,1.400000X2.000000*%
%ADD27C,5.867400*%
G04 APERTURE END LIST*
D10*
%TO.C,SW0:3*%
X47359276Y-137366341D03*
D11*
X47436837Y-134527594D03*
X47514397Y-131688847D03*
D12*
X51963320Y-135219440D03*
D11*
X52118441Y-129541946D03*
X54342902Y-131307243D03*
D10*
X56567364Y-133072539D03*
D13*
X44468679Y-135911669D03*
D14*
X44557001Y-134480227D03*
D13*
X55111069Y-128146461D03*
D14*
X56157740Y-129070714D03*
%TD*%
D10*
%TO.C,SW1:3*%
X134620000Y-138430000D03*
D11*
X133350000Y-140970000D03*
X132080000Y-143510000D03*
D12*
X129540000Y-138430000D03*
D11*
X127000000Y-143510000D03*
X125730000Y-140970000D03*
D10*
X124460000Y-138430000D03*
D15*
X136625000Y-140970000D03*
D14*
X135940000Y-142230000D03*
D15*
X123698000Y-143510000D03*
D14*
X123140000Y-142230000D03*
%TD*%
D16*
%TO.C,D30*%
X158730000Y-76600000D03*
D17*
X166350000Y-76600000D03*
%TD*%
D10*
%TO.C,SW1:4*%
X153670000Y-140027660D03*
D11*
X152400000Y-142567660D03*
X151130000Y-145107660D03*
D12*
X148590000Y-140027660D03*
D11*
X146050000Y-145107660D03*
X144780000Y-142567660D03*
D10*
X143510000Y-140027660D03*
D15*
X155675000Y-142567660D03*
D14*
X154990000Y-143827660D03*
D15*
X142748000Y-145107660D03*
D14*
X142190000Y-143827660D03*
%TD*%
D10*
%TO.C,SW5:2*%
X115570000Y-63827660D03*
D11*
X114300000Y-66367660D03*
X113030000Y-68907660D03*
D12*
X110490000Y-63827660D03*
D11*
X107950000Y-68907660D03*
X106680000Y-66367660D03*
D10*
X105410000Y-63827660D03*
D15*
X117575000Y-66367660D03*
D14*
X116890000Y-67627660D03*
D15*
X104648000Y-68907660D03*
D14*
X104090000Y-67627660D03*
%TD*%
D10*
%TO.C,SW5:4*%
X153670000Y-63827660D03*
D11*
X152400000Y-66367660D03*
X151130000Y-68907660D03*
D12*
X148590000Y-63827660D03*
D11*
X146050000Y-68907660D03*
X144780000Y-66367660D03*
D10*
X143510000Y-63827660D03*
D15*
X155675000Y-66367660D03*
D14*
X154990000Y-67627660D03*
D15*
X142748000Y-68907660D03*
D14*
X142190000Y-67627660D03*
%TD*%
D18*
%TO.C,D32*%
X83690000Y-53450000D03*
D17*
X76070000Y-53450000D03*
%TD*%
D10*
%TO.C,SW5:5*%
X172720000Y-67005200D03*
D11*
X171450000Y-69545200D03*
X170180000Y-72085200D03*
D12*
X167640000Y-67005200D03*
D11*
X165100000Y-72085200D03*
X163830000Y-69545200D03*
D10*
X162560000Y-67005200D03*
D15*
X174725000Y-69545200D03*
D14*
X174040000Y-70805200D03*
D15*
X161798000Y-72085200D03*
D14*
X161240000Y-70805200D03*
%TD*%
D10*
%TO.C,SW4:1*%
X96520000Y-84147660D03*
D11*
X95250000Y-86687660D03*
X93980000Y-89227660D03*
D12*
X91440000Y-84147660D03*
D11*
X88900000Y-89227660D03*
X87630000Y-86687660D03*
D10*
X86360000Y-84147660D03*
D15*
X98525000Y-86687660D03*
D14*
X97840000Y-87947660D03*
D15*
X85598000Y-89227660D03*
D14*
X85040000Y-87947660D03*
%TD*%
D10*
%TO.C,SW3:6*%
X196532500Y-105102660D03*
D11*
X195262500Y-107642660D03*
X193992500Y-110182660D03*
D12*
X191452500Y-105102660D03*
D11*
X188912500Y-110182660D03*
X187642500Y-107642660D03*
D10*
X186372500Y-105102660D03*
D15*
X198537500Y-107642660D03*
D14*
X197852500Y-108902660D03*
D15*
X185610500Y-110182660D03*
D14*
X185052500Y-108902660D03*
%TD*%
D10*
%TO.C,SW4:2*%
X115570000Y-82877660D03*
D11*
X114300000Y-85417660D03*
X113030000Y-87957660D03*
D12*
X110490000Y-82877660D03*
D11*
X107950000Y-87957660D03*
X106680000Y-85417660D03*
D10*
X105410000Y-82877660D03*
D15*
X117575000Y-85417660D03*
D14*
X116890000Y-86677660D03*
D15*
X104648000Y-87957660D03*
D14*
X104090000Y-86677660D03*
%TD*%
D10*
%TO.C,SW5:3*%
X134620000Y-62230000D03*
D11*
X133350000Y-64770000D03*
X132080000Y-67310000D03*
D12*
X129540000Y-62230000D03*
D11*
X127000000Y-67310000D03*
X125730000Y-64770000D03*
D10*
X124460000Y-62230000D03*
D15*
X136625000Y-64770000D03*
D14*
X135940000Y-66030000D03*
D15*
X123698000Y-67310000D03*
D14*
X123140000Y-66030000D03*
%TD*%
D18*
%TO.C,D22*%
X156820000Y-92600000D03*
D17*
X149200000Y-92600000D03*
%TD*%
D10*
%TO.C,SW4:3*%
X134620000Y-81280000D03*
D11*
X133350000Y-83820000D03*
X132080000Y-86360000D03*
D12*
X129540000Y-81280000D03*
D11*
X127000000Y-86360000D03*
X125730000Y-83820000D03*
D10*
X124460000Y-81280000D03*
D15*
X136625000Y-83820000D03*
D14*
X135940000Y-85080000D03*
D15*
X123698000Y-86360000D03*
D14*
X123140000Y-85080000D03*
%TD*%
D18*
%TO.C,D36*%
X156820000Y-54090000D03*
D17*
X149200000Y-54090000D03*
%TD*%
D10*
%TO.C,SW1:2*%
X115570000Y-140027660D03*
D11*
X114300000Y-142567660D03*
X113030000Y-145107660D03*
D12*
X110490000Y-140027660D03*
D11*
X107950000Y-145107660D03*
X106680000Y-142567660D03*
D10*
X105410000Y-140027660D03*
D15*
X117575000Y-142567660D03*
D14*
X116890000Y-143827660D03*
D15*
X104648000Y-145107660D03*
D14*
X104090000Y-143827660D03*
%TD*%
D16*
%TO.C,D20*%
X101720000Y-92970000D03*
D17*
X109340000Y-92970000D03*
%TD*%
D19*
%TO.C,D1*%
X44550176Y-142093033D03*
D17*
X41329825Y-135186968D03*
%TD*%
D10*
%TO.C,SW5:1*%
X96520000Y-65100200D03*
D11*
X95250000Y-67640200D03*
X93980000Y-70180200D03*
D12*
X91440000Y-65100200D03*
D11*
X88900000Y-70180200D03*
X87630000Y-67640200D03*
D10*
X86360000Y-65100200D03*
D15*
X98525000Y-67640200D03*
D14*
X97840000Y-68900200D03*
D15*
X85598000Y-70180200D03*
D14*
X85040000Y-68900200D03*
%TD*%
D10*
%TO.C,SW2:1*%
X96520000Y-122247660D03*
D11*
X95250000Y-124787660D03*
X93980000Y-127327660D03*
D12*
X91440000Y-122247660D03*
D11*
X88900000Y-127327660D03*
X87630000Y-124787660D03*
D10*
X86360000Y-122247660D03*
D15*
X98525000Y-124787660D03*
D14*
X97840000Y-126047660D03*
D15*
X85598000Y-127327660D03*
D14*
X85040000Y-126047660D03*
%TD*%
D16*
%TO.C,D14*%
X101720000Y-111330000D03*
D17*
X109340000Y-111330000D03*
%TD*%
D16*
%TO.C,D23*%
X158730000Y-95760000D03*
D17*
X166350000Y-95760000D03*
%TD*%
D10*
%TO.C,SW3:1*%
X96520000Y-103197660D03*
D11*
X95250000Y-105737660D03*
X93980000Y-108277660D03*
D12*
X91440000Y-103197660D03*
D11*
X88900000Y-108277660D03*
X87630000Y-105737660D03*
D10*
X86360000Y-103197660D03*
D15*
X98525000Y-105737660D03*
D14*
X97840000Y-106997660D03*
D15*
X85598000Y-108277660D03*
D14*
X85040000Y-106997660D03*
%TD*%
D19*
%TO.C,D4*%
X62600176Y-134193033D03*
D17*
X59379825Y-127286968D03*
%TD*%
D10*
%TO.C,SW0:1*%
X38144156Y-162679981D03*
D11*
X38221717Y-159841234D03*
X38299277Y-157002487D03*
D12*
X42748200Y-160533080D03*
D11*
X42903321Y-154855586D03*
X45127782Y-156620883D03*
D10*
X47352244Y-158386179D03*
D13*
X35253559Y-161225309D03*
D14*
X35341881Y-159793867D03*
D13*
X45895949Y-153460101D03*
D14*
X46942620Y-154384354D03*
%TD*%
D16*
%TO.C,D28*%
X120550000Y-71760000D03*
D17*
X128170000Y-71760000D03*
%TD*%
D10*
%TO.C,SW4:4*%
X153670000Y-82877660D03*
D11*
X152400000Y-85417660D03*
X151130000Y-87957660D03*
D12*
X148590000Y-82877660D03*
D11*
X146050000Y-87957660D03*
X144780000Y-85417660D03*
D10*
X143510000Y-82877660D03*
D15*
X155675000Y-85417660D03*
D14*
X154990000Y-86677660D03*
D15*
X142748000Y-87957660D03*
D14*
X142190000Y-86677660D03*
%TD*%
D16*
%TO.C,D11*%
X181730000Y-133330000D03*
D17*
X189350000Y-133330000D03*
%TD*%
D20*
%TO.C,BT1*%
X133550000Y-44900000D03*
D17*
X133550000Y-41300000D03*
%TD*%
D10*
%TO.C,SW4:0*%
X72390000Y-93990160D03*
D11*
X69850000Y-92720160D03*
X67310000Y-91450160D03*
D12*
X72390000Y-88910160D03*
D11*
X67310000Y-86370160D03*
X69850000Y-85100160D03*
D10*
X72390000Y-83830160D03*
D21*
X69850000Y-95995160D03*
D14*
X68590000Y-95310160D03*
D21*
X67310000Y-83068160D03*
D14*
X68590000Y-82510160D03*
%TD*%
D10*
%TO.C,SW0:5*%
X83449761Y-157669524D03*
D11*
X80611014Y-157591963D03*
X77772267Y-157514403D03*
D12*
X81302860Y-153065480D03*
D11*
X75625366Y-152910359D03*
X77390663Y-150685898D03*
D10*
X79155959Y-148461436D03*
D22*
X81995089Y-160560121D03*
D14*
X80563647Y-160471799D03*
D22*
X74229881Y-149917731D03*
D14*
X75154134Y-148871060D03*
%TD*%
D16*
%TO.C,D15*%
X120550000Y-110260000D03*
D17*
X128170000Y-110260000D03*
%TD*%
D16*
%TO.C,D19*%
X82740000Y-93710000D03*
D17*
X90360000Y-93710000D03*
%TD*%
D23*
%TO.C,J1*%
X91711000Y-38408000D03*
D14*
X87411000Y-36908000D03*
X87411000Y-31908000D03*
X84811000Y-36908000D03*
X84811000Y-31908000D03*
D23*
X83111000Y-33908000D03*
X83111000Y-38408000D03*
X91711000Y-33908000D03*
%TD*%
D10*
%TO.C,SW0:0*%
X30094896Y-145415601D03*
D11*
X30172457Y-142576854D03*
X30250017Y-139738107D03*
D12*
X34698940Y-143268700D03*
D11*
X34854061Y-137591206D03*
X37078522Y-139356503D03*
D10*
X39302984Y-141121799D03*
D13*
X27204299Y-143960929D03*
D14*
X27292621Y-142529487D03*
D13*
X37846689Y-136195721D03*
D14*
X38893360Y-137119974D03*
%TD*%
D16*
%TO.C,D17*%
X158730000Y-114540000D03*
D17*
X166350000Y-114540000D03*
%TD*%
D10*
%TO.C,SW2:6*%
X196532500Y-124152660D03*
D11*
X195262500Y-126692660D03*
X193992500Y-129232660D03*
D12*
X191452500Y-124152660D03*
D11*
X188912500Y-129232660D03*
X187642500Y-126692660D03*
D10*
X186372500Y-124152660D03*
D15*
X198537500Y-126692660D03*
D14*
X197852500Y-127952660D03*
D15*
X185610500Y-129232660D03*
D14*
X185052500Y-127952660D03*
%TD*%
D24*
%TO.C,D5*%
X62113033Y-150909825D03*
D17*
X55206968Y-154130176D03*
%TD*%
D16*
%TO.C,D26*%
X82740000Y-74550000D03*
D17*
X90360000Y-74550000D03*
%TD*%
D10*
%TO.C,SW0:4*%
X66185381Y-165721324D03*
D11*
X63346634Y-165643763D03*
X60507887Y-165566203D03*
D12*
X64038480Y-161117280D03*
D11*
X58360986Y-160962159D03*
X60126283Y-158737698D03*
D10*
X61891579Y-156513236D03*
D22*
X64730709Y-168611921D03*
D14*
X63299267Y-168523599D03*
D22*
X56965501Y-157969531D03*
D14*
X57889754Y-156922860D03*
%TD*%
D10*
%TO.C,SW3:4*%
X153670000Y-101927660D03*
D11*
X152400000Y-104467660D03*
X151130000Y-107007660D03*
D12*
X148590000Y-101927660D03*
D11*
X146050000Y-107007660D03*
X144780000Y-104467660D03*
D10*
X143510000Y-101927660D03*
D15*
X155675000Y-104467660D03*
D14*
X154990000Y-105727660D03*
D15*
X142748000Y-107007660D03*
D14*
X142190000Y-105727660D03*
%TD*%
D10*
%TO.C,SW2:5*%
X172720000Y-124152660D03*
D11*
X171450000Y-126692660D03*
X170180000Y-129232660D03*
D12*
X167640000Y-124152660D03*
D11*
X165100000Y-129232660D03*
X163830000Y-126692660D03*
D10*
X162560000Y-124152660D03*
D15*
X174725000Y-126692660D03*
D14*
X174040000Y-127952660D03*
D15*
X161798000Y-129232660D03*
D14*
X161240000Y-127952660D03*
%TD*%
D16*
%TO.C,D24*%
X181730000Y-95940000D03*
D17*
X189350000Y-95940000D03*
%TD*%
D16*
%TO.C,D31*%
X181730000Y-76790000D03*
D17*
X189350000Y-76790000D03*
%TD*%
D24*
%TO.C,D2*%
X60023033Y-146819825D03*
D17*
X53116968Y-150040176D03*
%TD*%
D16*
%TO.C,D7*%
X101720000Y-130520000D03*
D17*
X109340000Y-130520000D03*
%TD*%
D16*
%TO.C,D13*%
X82740000Y-112830000D03*
D17*
X90360000Y-112830000D03*
%TD*%
D16*
%TO.C,D37*%
X158730000Y-57810000D03*
D17*
X166350000Y-57810000D03*
%TD*%
D16*
%TO.C,D34*%
X101720000Y-54090000D03*
D17*
X109340000Y-54090000D03*
%TD*%
%TO.C,SW1*%
X188952500Y-69005200D03*
X188952500Y-67005200D03*
X188952500Y-65005200D03*
X193952500Y-69005200D03*
X193952500Y-67005200D03*
D25*
X193952500Y-65005200D03*
%TD*%
D18*
%TO.C,D16*%
X156820000Y-111570000D03*
D17*
X149200000Y-111570000D03*
%TD*%
D16*
%TO.C,D27*%
X101720000Y-73440000D03*
D17*
X109340000Y-73440000D03*
%TD*%
D16*
%TO.C,D8*%
X120550000Y-129410000D03*
D17*
X128170000Y-129410000D03*
%TD*%
D16*
%TO.C,D21*%
X120550000Y-91110000D03*
D17*
X128170000Y-91110000D03*
%TD*%
D10*
%TO.C,SW0:2*%
X46195956Y-179946901D03*
D11*
X46273517Y-177108154D03*
X46351077Y-174269407D03*
D12*
X50800000Y-177800000D03*
D11*
X50955121Y-172122506D03*
X53179582Y-173887803D03*
D10*
X55404044Y-175653099D03*
D13*
X43305359Y-178492229D03*
D14*
X43393681Y-177060787D03*
D13*
X53947749Y-170727021D03*
D14*
X54994420Y-171651274D03*
%TD*%
D16*
%TO.C,D33*%
X82740000Y-55980000D03*
D17*
X90360000Y-55980000D03*
%TD*%
D10*
%TO.C,SW2:0*%
X72390000Y-122565160D03*
D11*
X69850000Y-121295160D03*
X67310000Y-120025160D03*
D12*
X72390000Y-117485160D03*
D11*
X67310000Y-114945160D03*
X69850000Y-113675160D03*
D10*
X72390000Y-112405160D03*
D21*
X69850000Y-124570160D03*
D14*
X68590000Y-123885160D03*
D21*
X67310000Y-111643160D03*
D14*
X68590000Y-111085160D03*
%TD*%
D18*
%TO.C,D12*%
X80340000Y-106590000D03*
D17*
X72720000Y-106590000D03*
%TD*%
D10*
%TO.C,SW1:6*%
X191770000Y-143202660D03*
D11*
X190500000Y-145742660D03*
X189230000Y-148282660D03*
D12*
X186690000Y-143202660D03*
D11*
X184150000Y-148282660D03*
X182880000Y-145742660D03*
D10*
X181610000Y-143202660D03*
D15*
X193775000Y-145742660D03*
D14*
X193090000Y-147002660D03*
D15*
X180848000Y-148282660D03*
D14*
X180290000Y-147002660D03*
%TD*%
D10*
%TO.C,SW4:5*%
X172720000Y-86052660D03*
D11*
X171450000Y-88592660D03*
X170180000Y-91132660D03*
D12*
X167640000Y-86052660D03*
D11*
X165100000Y-91132660D03*
X163830000Y-88592660D03*
D10*
X162560000Y-86052660D03*
D15*
X174725000Y-88592660D03*
D14*
X174040000Y-89852660D03*
D15*
X161798000Y-91132660D03*
D14*
X161240000Y-89852660D03*
%TD*%
D10*
%TO.C,SW4:6*%
X196532500Y-86052660D03*
D11*
X195262500Y-88592660D03*
X193992500Y-91132660D03*
D12*
X191452500Y-86052660D03*
D11*
X188912500Y-91132660D03*
X187642500Y-88592660D03*
D10*
X186372500Y-86052660D03*
D15*
X198537500Y-88592660D03*
D14*
X197852500Y-89852660D03*
D15*
X185610500Y-91132660D03*
D14*
X185052500Y-89852660D03*
%TD*%
D19*
%TO.C,D3*%
X60650176Y-175913033D03*
D17*
X57429825Y-169006968D03*
%TD*%
D24*
%TO.C,D6*%
X79433033Y-142849825D03*
D17*
X72526968Y-146070176D03*
%TD*%
D10*
%TO.C,SW3:3*%
X134620000Y-100330000D03*
D11*
X133350000Y-102870000D03*
X132080000Y-105410000D03*
D12*
X129540000Y-100330000D03*
D11*
X127000000Y-105410000D03*
X125730000Y-102870000D03*
D10*
X124460000Y-100330000D03*
D15*
X136625000Y-102870000D03*
D14*
X135940000Y-104130000D03*
D15*
X123698000Y-105410000D03*
D14*
X123140000Y-104130000D03*
%TD*%
D10*
%TO.C,SW3:5*%
X172720000Y-105102660D03*
D11*
X171450000Y-107642660D03*
X170180000Y-110182660D03*
D12*
X167640000Y-105102660D03*
D11*
X165100000Y-110182660D03*
X163830000Y-107642660D03*
D10*
X162560000Y-105102660D03*
D15*
X174725000Y-107642660D03*
D14*
X174040000Y-108902660D03*
D15*
X161798000Y-110182660D03*
D14*
X161240000Y-108902660D03*
%TD*%
D18*
%TO.C,D25*%
X80340000Y-79020000D03*
D17*
X72720000Y-79020000D03*
%TD*%
D10*
%TO.C,SW1:5*%
X172720000Y-143202660D03*
D11*
X171450000Y-145742660D03*
X170180000Y-148282660D03*
D12*
X167640000Y-143202660D03*
D11*
X165100000Y-148282660D03*
X163830000Y-145742660D03*
D10*
X162560000Y-143202660D03*
D15*
X174725000Y-145742660D03*
D14*
X174040000Y-147002660D03*
D15*
X161798000Y-148282660D03*
D14*
X161240000Y-147002660D03*
%TD*%
D16*
%TO.C,D18*%
X181730000Y-114730000D03*
D17*
X189350000Y-114730000D03*
%TD*%
D10*
%TO.C,SW2:4*%
X153670000Y-120977660D03*
D11*
X152400000Y-123517660D03*
X151130000Y-126057660D03*
D12*
X148590000Y-120977660D03*
D11*
X146050000Y-126057660D03*
X144780000Y-123517660D03*
D10*
X143510000Y-120977660D03*
D15*
X155675000Y-123517660D03*
D14*
X154990000Y-124777660D03*
D15*
X142748000Y-126057660D03*
D14*
X142190000Y-124777660D03*
%TD*%
D18*
%TO.C,D9*%
X156820000Y-130480000D03*
D17*
X149200000Y-130480000D03*
%TD*%
D10*
%TO.C,SW2:2*%
X115570000Y-120977660D03*
D11*
X114300000Y-123517660D03*
X113030000Y-126057660D03*
D12*
X110490000Y-120977660D03*
D11*
X107950000Y-126057660D03*
X106680000Y-123517660D03*
D10*
X105410000Y-120977660D03*
D15*
X117575000Y-123517660D03*
D14*
X116890000Y-124777660D03*
D15*
X104648000Y-126057660D03*
D14*
X104090000Y-124777660D03*
%TD*%
D16*
%TO.C,D10*%
X158730000Y-133710000D03*
D17*
X166350000Y-133710000D03*
%TD*%
D10*
%TO.C,SW2:3*%
X134620000Y-119380000D03*
D11*
X133350000Y-121920000D03*
X132080000Y-124460000D03*
D12*
X129540000Y-119380000D03*
D11*
X127000000Y-124460000D03*
X125730000Y-121920000D03*
D10*
X124460000Y-119380000D03*
D15*
X136625000Y-121920000D03*
D14*
X135940000Y-123180000D03*
D15*
X123698000Y-124460000D03*
D14*
X123140000Y-123180000D03*
%TD*%
D10*
%TO.C,SW3:2*%
X115570000Y-101927660D03*
D11*
X114300000Y-104467660D03*
X113030000Y-107007660D03*
D12*
X110490000Y-101927660D03*
D11*
X107950000Y-107007660D03*
X106680000Y-104467660D03*
D10*
X105410000Y-101927660D03*
D15*
X117575000Y-104467660D03*
D14*
X116890000Y-105727660D03*
D15*
X104648000Y-107007660D03*
D14*
X104090000Y-105727660D03*
%TD*%
D16*
%TO.C,D35*%
X120550000Y-53100000D03*
D17*
X128170000Y-53100000D03*
%TD*%
D18*
%TO.C,D29*%
X156820000Y-73070000D03*
D17*
X149200000Y-73070000D03*
%TD*%
D10*
%TO.C,SW5:0*%
X77470000Y-65100200D03*
D11*
X76200000Y-67640200D03*
X74930000Y-70180200D03*
D12*
X72390000Y-65100200D03*
D11*
X69850000Y-70180200D03*
X68580000Y-67640200D03*
D10*
X67310000Y-65100200D03*
D15*
X79475000Y-67640200D03*
D14*
X78790000Y-68900200D03*
D15*
X66548000Y-70180200D03*
D14*
X65990000Y-68900200D03*
%TD*%
D26*
%TO.C,U1*%
X159440000Y-33030000D03*
X161980000Y-33030000D03*
X164520000Y-33030000D03*
X167060000Y-33030000D03*
X169600000Y-33030000D03*
X172140000Y-33030000D03*
X174680000Y-33030000D03*
X177220000Y-33030000D03*
X179760000Y-33030000D03*
X182300000Y-33030000D03*
X184840000Y-33030000D03*
X187380000Y-33030000D03*
X189920000Y-33030000D03*
X189920000Y-48030000D03*
X187380000Y-48030000D03*
X184840000Y-48030000D03*
X182300000Y-48030000D03*
X179760000Y-48030000D03*
X177220000Y-48030000D03*
X174680000Y-48030000D03*
X172140000Y-48030000D03*
X169600000Y-48030000D03*
X167060000Y-48030000D03*
X164520000Y-48030000D03*
X161980000Y-48030000D03*
X159440000Y-48030000D03*
%TD*%
D25*
%TO.C,RST1*%
X119611000Y-43108000D03*
X119611000Y-48708000D03*
%TD*%
D27*
%TO.C,*%
X71611000Y-52908000D03*
%TD*%
%TO.C,*%
X67917800Y-143908000D03*
%TD*%
%TO.C,*%
X67411600Y-37134800D03*
%TD*%
%TO.C,*%
X205360000Y-121908000D03*
%TD*%
%TO.C,*%
X201777600Y-140055600D03*
%TD*%
%TO.C,*%
X201142600Y-37134800D03*
%TD*%
%TO.C,*%
X196917800Y-53908000D03*
%TD*%
%TO.C,*%
X53898800Y-165836600D03*
%TD*%
%TO.C,*%
X118211600Y-37134800D03*
%TD*%
%TO.C,*%
X105435400Y-157759400D03*
%TD*%
%TO.C,*%
X139039600Y-91592400D03*
%TD*%
%TO.C,*%
X59664600Y-121666000D03*
%TD*%
M02*
