%TF.GenerationSoftware,KiCad,Pcbnew,10.0.0*%
%TF.CreationDate,2026-04-03T15:48:09+09:00*%
%TF.ProjectId,ErgoDoxEZBL,4572676f-446f-4784-955a-424c2e6b6963,rev?*%
%TF.SameCoordinates,Original*%
%TF.FileFunction,Legend,Bot*%
%TF.FilePolarity,Positive*%
%FSLAX46Y46*%
G04 Gerber Fmt 4.6, Leading zero omitted, Abs format (unit mm)*
G04 Created by KiCad (PCBNEW 10.0.0) date 2026-04-03 15:48:09*
%MOMM*%
%LPD*%
G01*
G04 APERTURE LIST*
%ADD10C,0.100000*%
%ADD11C,0.120000*%
G04 APERTURE END LIST*
D10*
X75430000Y-31960000D02*
X105430000Y-31960000D01*
X105430000Y-51960000D01*
X75430000Y-51960000D01*
X75430000Y-31960000D01*
X121312782Y-43988609D02*
X121169925Y-44036228D01*
X121169925Y-44036228D02*
X121122306Y-44083847D01*
X121122306Y-44083847D02*
X121074687Y-44179085D01*
X121074687Y-44179085D02*
X121074687Y-44321942D01*
X121074687Y-44321942D02*
X121122306Y-44417180D01*
X121122306Y-44417180D02*
X121169925Y-44464800D01*
X121169925Y-44464800D02*
X121265163Y-44512419D01*
X121265163Y-44512419D02*
X121646115Y-44512419D01*
X121646115Y-44512419D02*
X121646115Y-43512419D01*
X121646115Y-43512419D02*
X121312782Y-43512419D01*
X121312782Y-43512419D02*
X121217544Y-43560038D01*
X121217544Y-43560038D02*
X121169925Y-43607657D01*
X121169925Y-43607657D02*
X121122306Y-43702895D01*
X121122306Y-43702895D02*
X121122306Y-43798133D01*
X121122306Y-43798133D02*
X121169925Y-43893371D01*
X121169925Y-43893371D02*
X121217544Y-43940990D01*
X121217544Y-43940990D02*
X121312782Y-43988609D01*
X121312782Y-43988609D02*
X121646115Y-43988609D01*
X120646115Y-44131466D02*
X119884211Y-44131466D01*
X121312782Y-47218609D02*
X121169925Y-47266228D01*
X121169925Y-47266228D02*
X121122306Y-47313847D01*
X121122306Y-47313847D02*
X121074687Y-47409085D01*
X121074687Y-47409085D02*
X121074687Y-47551942D01*
X121074687Y-47551942D02*
X121122306Y-47647180D01*
X121122306Y-47647180D02*
X121169925Y-47694800D01*
X121169925Y-47694800D02*
X121265163Y-47742419D01*
X121265163Y-47742419D02*
X121646115Y-47742419D01*
X121646115Y-47742419D02*
X121646115Y-46742419D01*
X121646115Y-46742419D02*
X121312782Y-46742419D01*
X121312782Y-46742419D02*
X121217544Y-46790038D01*
X121217544Y-46790038D02*
X121169925Y-46837657D01*
X121169925Y-46837657D02*
X121122306Y-46932895D01*
X121122306Y-46932895D02*
X121122306Y-47028133D01*
X121122306Y-47028133D02*
X121169925Y-47123371D01*
X121169925Y-47123371D02*
X121217544Y-47170990D01*
X121217544Y-47170990D02*
X121312782Y-47218609D01*
X121312782Y-47218609D02*
X121646115Y-47218609D01*
X120646115Y-47361466D02*
X119884211Y-47361466D01*
X120265163Y-47742419D02*
X120265163Y-46980514D01*
X128412306Y-41300038D02*
X128507544Y-41252419D01*
X128507544Y-41252419D02*
X128650401Y-41252419D01*
X128650401Y-41252419D02*
X128793258Y-41300038D01*
X128793258Y-41300038D02*
X128888496Y-41395276D01*
X128888496Y-41395276D02*
X128936115Y-41490514D01*
X128936115Y-41490514D02*
X128983734Y-41680990D01*
X128983734Y-41680990D02*
X128983734Y-41823847D01*
X128983734Y-41823847D02*
X128936115Y-42014323D01*
X128936115Y-42014323D02*
X128888496Y-42109561D01*
X128888496Y-42109561D02*
X128793258Y-42204800D01*
X128793258Y-42204800D02*
X128650401Y-42252419D01*
X128650401Y-42252419D02*
X128555163Y-42252419D01*
X128555163Y-42252419D02*
X128412306Y-42204800D01*
X128412306Y-42204800D02*
X128364687Y-42157180D01*
X128364687Y-42157180D02*
X128364687Y-41823847D01*
X128364687Y-41823847D02*
X128555163Y-41823847D01*
X127936115Y-42252419D02*
X127936115Y-41252419D01*
X127936115Y-41252419D02*
X127364687Y-42252419D01*
X127364687Y-42252419D02*
X127364687Y-41252419D01*
X126888496Y-42252419D02*
X126888496Y-41252419D01*
X126888496Y-41252419D02*
X126650401Y-41252419D01*
X126650401Y-41252419D02*
X126507544Y-41300038D01*
X126507544Y-41300038D02*
X126412306Y-41395276D01*
X126412306Y-41395276D02*
X126364687Y-41490514D01*
X126364687Y-41490514D02*
X126317068Y-41680990D01*
X126317068Y-41680990D02*
X126317068Y-41823847D01*
X126317068Y-41823847D02*
X126364687Y-42014323D01*
X126364687Y-42014323D02*
X126412306Y-42109561D01*
X126412306Y-42109561D02*
X126507544Y-42204800D01*
X126507544Y-42204800D02*
X126650401Y-42252419D01*
X126650401Y-42252419D02*
X126888496Y-42252419D01*
X128996115Y-39662419D02*
X128996115Y-38662419D01*
X128996115Y-38662419D02*
X128758020Y-38662419D01*
X128758020Y-38662419D02*
X128615163Y-38710038D01*
X128615163Y-38710038D02*
X128519925Y-38805276D01*
X128519925Y-38805276D02*
X128472306Y-38900514D01*
X128472306Y-38900514D02*
X128424687Y-39090990D01*
X128424687Y-39090990D02*
X128424687Y-39233847D01*
X128424687Y-39233847D02*
X128472306Y-39424323D01*
X128472306Y-39424323D02*
X128519925Y-39519561D01*
X128519925Y-39519561D02*
X128615163Y-39614800D01*
X128615163Y-39614800D02*
X128758020Y-39662419D01*
X128758020Y-39662419D02*
X128996115Y-39662419D01*
X127996115Y-39281466D02*
X127234211Y-39281466D01*
X129056115Y-44182419D02*
X129056115Y-43182419D01*
X129056115Y-43182419D02*
X128818020Y-43182419D01*
X128818020Y-43182419D02*
X128675163Y-43230038D01*
X128675163Y-43230038D02*
X128579925Y-43325276D01*
X128579925Y-43325276D02*
X128532306Y-43420514D01*
X128532306Y-43420514D02*
X128484687Y-43610990D01*
X128484687Y-43610990D02*
X128484687Y-43753847D01*
X128484687Y-43753847D02*
X128532306Y-43944323D01*
X128532306Y-43944323D02*
X128579925Y-44039561D01*
X128579925Y-44039561D02*
X128675163Y-44134800D01*
X128675163Y-44134800D02*
X128818020Y-44182419D01*
X128818020Y-44182419D02*
X129056115Y-44182419D01*
X128056115Y-43801466D02*
X127294211Y-43801466D01*
X127675163Y-44182419D02*
X127675163Y-43420514D01*
X129258972Y-36492419D02*
X128925639Y-37492419D01*
X128925639Y-37492419D02*
X128592306Y-36492419D01*
X127687544Y-37397180D02*
X127735163Y-37444800D01*
X127735163Y-37444800D02*
X127878020Y-37492419D01*
X127878020Y-37492419D02*
X127973258Y-37492419D01*
X127973258Y-37492419D02*
X128116115Y-37444800D01*
X128116115Y-37444800D02*
X128211353Y-37349561D01*
X128211353Y-37349561D02*
X128258972Y-37254323D01*
X128258972Y-37254323D02*
X128306591Y-37063847D01*
X128306591Y-37063847D02*
X128306591Y-36920990D01*
X128306591Y-36920990D02*
X128258972Y-36730514D01*
X128258972Y-36730514D02*
X128211353Y-36635276D01*
X128211353Y-36635276D02*
X128116115Y-36540038D01*
X128116115Y-36540038D02*
X127973258Y-36492419D01*
X127973258Y-36492419D02*
X127878020Y-36492419D01*
X127878020Y-36492419D02*
X127735163Y-36540038D01*
X127735163Y-36540038D02*
X127687544Y-36587657D01*
X126687544Y-37397180D02*
X126735163Y-37444800D01*
X126735163Y-37444800D02*
X126878020Y-37492419D01*
X126878020Y-37492419D02*
X126973258Y-37492419D01*
X126973258Y-37492419D02*
X127116115Y-37444800D01*
X127116115Y-37444800D02*
X127211353Y-37349561D01*
X127211353Y-37349561D02*
X127258972Y-37254323D01*
X127258972Y-37254323D02*
X127306591Y-37063847D01*
X127306591Y-37063847D02*
X127306591Y-36920990D01*
X127306591Y-36920990D02*
X127258972Y-36730514D01*
X127258972Y-36730514D02*
X127211353Y-36635276D01*
X127211353Y-36635276D02*
X127116115Y-36540038D01*
X127116115Y-36540038D02*
X126973258Y-36492419D01*
X126973258Y-36492419D02*
X126878020Y-36492419D01*
X126878020Y-36492419D02*
X126735163Y-36540038D01*
X126735163Y-36540038D02*
X126687544Y-36587657D01*
X76871390Y-44462782D02*
X76823771Y-44319925D01*
X76823771Y-44319925D02*
X76776152Y-44272306D01*
X76776152Y-44272306D02*
X76680914Y-44224687D01*
X76680914Y-44224687D02*
X76538057Y-44224687D01*
X76538057Y-44224687D02*
X76442819Y-44272306D01*
X76442819Y-44272306D02*
X76395200Y-44319925D01*
X76395200Y-44319925D02*
X76347580Y-44415163D01*
X76347580Y-44415163D02*
X76347580Y-44796115D01*
X76347580Y-44796115D02*
X77347580Y-44796115D01*
X77347580Y-44796115D02*
X77347580Y-44462782D01*
X77347580Y-44462782D02*
X77299961Y-44367544D01*
X77299961Y-44367544D02*
X77252342Y-44319925D01*
X77252342Y-44319925D02*
X77157104Y-44272306D01*
X77157104Y-44272306D02*
X77061866Y-44272306D01*
X77061866Y-44272306D02*
X76966628Y-44319925D01*
X76966628Y-44319925D02*
X76919009Y-44367544D01*
X76919009Y-44367544D02*
X76871390Y-44462782D01*
X76871390Y-44462782D02*
X76871390Y-44796115D01*
X76633295Y-43843734D02*
X76633295Y-43367544D01*
X76347580Y-43938972D02*
X77347580Y-43605639D01*
X77347580Y-43605639D02*
X76347580Y-43272306D01*
X77347580Y-43081829D02*
X77347580Y-42510401D01*
X76347580Y-42796115D02*
X77347580Y-42796115D01*
X77347580Y-42319924D02*
X77347580Y-41748496D01*
X76347580Y-42034210D02*
X77347580Y-42034210D01*
X76871390Y-41415162D02*
X76871390Y-41081829D01*
X76347580Y-40938972D02*
X76347580Y-41415162D01*
X76347580Y-41415162D02*
X77347580Y-41415162D01*
X77347580Y-41415162D02*
X77347580Y-40938972D01*
X76347580Y-39938972D02*
X76823771Y-40272305D01*
X76347580Y-40510400D02*
X77347580Y-40510400D01*
X77347580Y-40510400D02*
X77347580Y-40129448D01*
X77347580Y-40129448D02*
X77299961Y-40034210D01*
X77299961Y-40034210D02*
X77252342Y-39986591D01*
X77252342Y-39986591D02*
X77157104Y-39938972D01*
X77157104Y-39938972D02*
X77014247Y-39938972D01*
X77014247Y-39938972D02*
X76919009Y-39986591D01*
X76919009Y-39986591D02*
X76871390Y-40034210D01*
X76871390Y-40034210D02*
X76823771Y-40129448D01*
X76823771Y-40129448D02*
X76823771Y-40510400D01*
X76823771Y-39319924D02*
X76347580Y-39319924D01*
X77347580Y-39653257D02*
X76823771Y-39319924D01*
X76823771Y-39319924D02*
X77347580Y-38986591D01*
X159317217Y-35181391D02*
X159460074Y-35133772D01*
X159460074Y-35133772D02*
X159507693Y-35086153D01*
X159507693Y-35086153D02*
X159555312Y-34990915D01*
X159555312Y-34990915D02*
X159555312Y-34848058D01*
X159555312Y-34848058D02*
X159507693Y-34752820D01*
X159507693Y-34752820D02*
X159460074Y-34705201D01*
X159460074Y-34705201D02*
X159364836Y-34657581D01*
X159364836Y-34657581D02*
X158983884Y-34657581D01*
X158983884Y-34657581D02*
X158983884Y-35657581D01*
X158983884Y-35657581D02*
X159317217Y-35657581D01*
X159317217Y-35657581D02*
X159412455Y-35609962D01*
X159412455Y-35609962D02*
X159460074Y-35562343D01*
X159460074Y-35562343D02*
X159507693Y-35467105D01*
X159507693Y-35467105D02*
X159507693Y-35371867D01*
X159507693Y-35371867D02*
X159460074Y-35276629D01*
X159460074Y-35276629D02*
X159412455Y-35229010D01*
X159412455Y-35229010D02*
X159317217Y-35181391D01*
X159317217Y-35181391D02*
X158983884Y-35181391D01*
X159983884Y-35038534D02*
X160745789Y-35038534D01*
X159317217Y-46181390D02*
X159460074Y-46133771D01*
X159460074Y-46133771D02*
X159507693Y-46086152D01*
X159507693Y-46086152D02*
X159555312Y-45990914D01*
X159555312Y-45990914D02*
X159555312Y-45848057D01*
X159555312Y-45848057D02*
X159507693Y-45752819D01*
X159507693Y-45752819D02*
X159460074Y-45705200D01*
X159460074Y-45705200D02*
X159364836Y-45657580D01*
X159364836Y-45657580D02*
X158983884Y-45657580D01*
X158983884Y-45657580D02*
X158983884Y-46657580D01*
X158983884Y-46657580D02*
X159317217Y-46657580D01*
X159317217Y-46657580D02*
X159412455Y-46609961D01*
X159412455Y-46609961D02*
X159460074Y-46562342D01*
X159460074Y-46562342D02*
X159507693Y-46467104D01*
X159507693Y-46467104D02*
X159507693Y-46371866D01*
X159507693Y-46371866D02*
X159460074Y-46276628D01*
X159460074Y-46276628D02*
X159412455Y-46229009D01*
X159412455Y-46229009D02*
X159317217Y-46181390D01*
X159317217Y-46181390D02*
X158983884Y-46181390D01*
X159983884Y-46038533D02*
X160745789Y-46038533D01*
X160364836Y-45657580D02*
X160364836Y-46419485D01*
%TO.C,U1*%
D11*
X158340000Y-31530001D02*
X191020000Y-31530000D01*
X158340000Y-37530001D02*
X158340000Y-31530001D01*
X158340000Y-43530000D02*
X158700000Y-43530000D01*
X158340000Y-49530000D02*
X158340000Y-43530000D01*
X158700000Y-37530001D02*
X158340000Y-37530001D01*
X158700000Y-43530000D02*
X158700000Y-37530001D01*
X191020000Y-31530000D02*
X191020000Y-49529999D01*
X191020000Y-49529999D02*
X158340000Y-49530000D01*
%TD*%
M02*
