M48
; DRILL file KiCad 10.0.0 date 2026-04-03T15:47:56
; FORMAT={-:-/ absolute / metric / decimal}
; #@! TF.CreationDate,2026-04-03T15:47:56+09:00
; #@! TF.GenerationSoftware,Kicad,Pcbnew,10.0.0
; #@! TF.FileFunction,NonPlated,1,2,NPTH
FMAT,2
METRIC
; #@! TA.AperFunction,NonPlated,NPTH,ComponentDrill
T1C0.991
; #@! TA.AperFunction,NonPlated,NPTH,ComponentDrill
T2C1.750
; #@! TA.AperFunction,NonPlated,NPTH,ComponentDrill
T3C3.050
; #@! TA.AperFunction,NonPlated,NPTH,ComponentDrill
T4C4.000
; #@! TA.AperFunction,NonPlated,NPTH,ComponentDrill
T5C6.375
%
G90
G05
T1
X86.611Y-33.75
X86.611Y-38.754
T2
X30.095Y-145.416
X38.144Y-162.68
X39.303Y-141.122
X46.196Y-179.947
X47.352Y-158.386
X47.359Y-137.366
X55.404Y-175.653
X56.567Y-133.073
X61.892Y-156.513
X66.185Y-165.721
X67.31Y-65.1
X72.39Y-83.83
X72.39Y-93.99
X72.39Y-112.405
X72.39Y-122.565
X77.47Y-65.1
X79.156Y-148.461
X83.45Y-157.67
X86.36Y-65.1
X86.36Y-84.148
X86.36Y-103.198
X86.36Y-122.248
X96.52Y-65.1
X96.52Y-84.148
X96.52Y-103.198
X96.52Y-122.248
X105.41Y-63.828
X105.41Y-82.878
X105.41Y-101.928
X105.41Y-120.978
X105.41Y-140.028
X115.57Y-63.828
X115.57Y-82.878
X115.57Y-101.928
X115.57Y-120.978
X115.57Y-140.028
X124.46Y-62.23
X124.46Y-81.28
X124.46Y-100.33
X124.46Y-119.38
X124.46Y-138.43
X134.62Y-62.23
X134.62Y-81.28
X134.62Y-100.33
X134.62Y-119.38
X134.62Y-138.43
X143.51Y-63.828
X143.51Y-82.878
X143.51Y-101.928
X143.51Y-120.978
X143.51Y-140.028
X153.67Y-63.828
X153.67Y-82.878
X153.67Y-101.928
X153.67Y-120.978
X153.67Y-140.028
X162.56Y-67.005
X162.56Y-86.053
X162.56Y-105.103
X162.56Y-124.153
X162.56Y-143.203
X172.72Y-67.005
X172.72Y-86.053
X172.72Y-105.103
X172.72Y-124.153
X172.72Y-143.203
X181.61Y-143.203
X186.373Y-86.053
X186.373Y-105.103
X186.373Y-124.153
X191.77Y-143.203
X196.532Y-86.053
X196.532Y-105.103
X196.532Y-124.153
T3
X30.172Y-142.577
X30.25Y-139.738
X34.854Y-137.591
X37.079Y-139.357
X38.222Y-159.841
X38.299Y-157.002
X42.903Y-154.856
X45.128Y-156.621
X46.274Y-177.108
X46.351Y-174.269
X47.437Y-134.528
X47.514Y-131.689
X50.955Y-172.123
X52.118Y-129.542
X53.18Y-173.888
X54.343Y-131.307
X58.361Y-160.962
X60.126Y-158.738
X60.508Y-165.566
X63.347Y-165.644
X67.31Y-86.37
X67.31Y-91.45
X67.31Y-114.945
X67.31Y-120.025
X68.58Y-67.64
X69.85Y-70.18
X69.85Y-85.1
X69.85Y-92.72
X69.85Y-113.675
X69.85Y-121.295
X74.93Y-70.18
X75.625Y-152.91
X76.2Y-67.64
X77.391Y-150.686
X77.772Y-157.514
X80.611Y-157.592
X87.63Y-67.64
X87.63Y-86.688
X87.63Y-105.738
X87.63Y-124.788
X88.9Y-70.18
X88.9Y-89.228
X88.9Y-108.278
X88.9Y-127.328
X93.98Y-70.18
X93.98Y-89.228
X93.98Y-108.278
X93.98Y-127.328
X95.25Y-67.64
X95.25Y-86.688
X95.25Y-105.738
X95.25Y-124.788
X106.68Y-66.368
X106.68Y-85.418
X106.68Y-104.468
X106.68Y-123.518
X106.68Y-142.568
X107.95Y-68.908
X107.95Y-87.958
X107.95Y-107.008
X107.95Y-126.058
X107.95Y-145.108
X113.03Y-68.908
X113.03Y-87.958
X113.03Y-107.008
X113.03Y-126.058
X113.03Y-145.108
X114.3Y-66.368
X114.3Y-85.418
X114.3Y-104.468
X114.3Y-123.518
X114.3Y-142.568
X125.73Y-64.77
X125.73Y-83.82
X125.73Y-102.87
X125.73Y-121.92
X125.73Y-140.97
X127.0Y-67.31
X127.0Y-86.36
X127.0Y-105.41
X127.0Y-124.46
X127.0Y-143.51
X132.08Y-67.31
X132.08Y-86.36
X132.08Y-105.41
X132.08Y-124.46
X132.08Y-143.51
X133.35Y-64.77
X133.35Y-83.82
X133.35Y-102.87
X133.35Y-121.92
X133.35Y-140.97
X144.78Y-66.368
X144.78Y-85.418
X144.78Y-104.468
X144.78Y-123.518
X144.78Y-142.568
X146.05Y-68.908
X146.05Y-87.958
X146.05Y-107.008
X146.05Y-126.058
X146.05Y-145.108
X151.13Y-68.908
X151.13Y-87.958
X151.13Y-107.008
X151.13Y-126.058
X151.13Y-145.108
X152.4Y-66.368
X152.4Y-85.418
X152.4Y-104.468
X152.4Y-123.518
X152.4Y-142.568
X163.83Y-69.545
X163.83Y-88.593
X163.83Y-107.643
X163.83Y-126.693
X163.83Y-145.743
X165.1Y-72.085
X165.1Y-91.133
X165.1Y-110.183
X165.1Y-129.233
X165.1Y-148.283
X170.18Y-72.085
X170.18Y-91.133
X170.18Y-110.183
X170.18Y-129.233
X170.18Y-148.283
X171.45Y-69.545
X171.45Y-88.593
X171.45Y-107.643
X171.45Y-126.693
X171.45Y-145.743
X182.88Y-145.743
X184.15Y-148.283
X187.642Y-88.593
X187.642Y-107.643
X187.642Y-126.693
X188.912Y-91.133
X188.912Y-110.183
X188.912Y-129.233
X189.23Y-148.283
X190.5Y-145.743
X193.992Y-91.133
X193.992Y-110.183
X193.992Y-129.233
X195.262Y-88.593
X195.262Y-107.643
X195.262Y-126.693
T4
X34.699Y-143.269
X42.748Y-160.533
X50.8Y-177.8
X51.963Y-135.219
X64.038Y-161.117
X72.39Y-65.1
X72.39Y-88.91
X72.39Y-117.485
X81.303Y-153.065
X91.44Y-65.1
X91.44Y-84.148
X91.44Y-103.198
X91.44Y-122.248
X110.49Y-63.828
X110.49Y-82.878
X110.49Y-101.928
X110.49Y-120.978
X110.49Y-140.028
X129.54Y-62.23
X129.54Y-81.28
X129.54Y-100.33
X129.54Y-119.38
X129.54Y-138.43
X148.59Y-63.828
X148.59Y-82.878
X148.59Y-101.928
X148.59Y-120.978
X148.59Y-140.028
X167.64Y-67.005
X167.64Y-86.053
X167.64Y-105.103
X167.64Y-124.153
X167.64Y-143.203
X186.69Y-143.203
X191.452Y-86.053
X191.452Y-105.103
X191.452Y-124.153
T5
X53.899Y-165.837
X59.665Y-121.666
X67.412Y-37.135
X67.918Y-143.908
X71.611Y-52.908
X105.435Y-157.759
X118.212Y-37.135
X139.04Y-91.592
X196.918Y-53.908
X201.143Y-37.135
X201.778Y-140.056
X205.36Y-121.908
M30
