%TF.GenerationSoftware,KiCad,Pcbnew,9.0.7*%
%TF.CreationDate,2026-03-09T12:56:56+09:00*%
%TF.ProjectId,ErgoDoxEZBL,4572676f-446f-4784-955a-424c2e6b6963,rev?*%
%TF.SameCoordinates,Original*%
%TF.FileFunction,Legend,Top*%
%TF.FilePolarity,Positive*%
%FSLAX46Y46*%
G04 Gerber Fmt 4.6, Leading zero omitted, Abs format (unit mm)*
G04 Created by KiCad (PCBNEW 9.0.7) date 2026-03-09 12:56:56*
%MOMM*%
%LPD*%
G01*
G04 APERTURE LIST*
%ADD10C,0.100000*%
%ADD11C,0.150000*%
%ADD12C,0.120000*%
G04 APERTURE END LIST*
D10*
X75430000Y-31980000D02*
X105430000Y-31980000D01*
X105430000Y-51980000D01*
X75430000Y-51980000D01*
X75430000Y-31980000D01*
X159612782Y-46151390D02*
X159469925Y-46103771D01*
X159469925Y-46103771D02*
X159422306Y-46056152D01*
X159422306Y-46056152D02*
X159374687Y-45960914D01*
X159374687Y-45960914D02*
X159374687Y-45818057D01*
X159374687Y-45818057D02*
X159422306Y-45722819D01*
X159422306Y-45722819D02*
X159469925Y-45675200D01*
X159469925Y-45675200D02*
X159565163Y-45627580D01*
X159565163Y-45627580D02*
X159946115Y-45627580D01*
X159946115Y-45627580D02*
X159946115Y-46627580D01*
X159946115Y-46627580D02*
X159612782Y-46627580D01*
X159612782Y-46627580D02*
X159517544Y-46579961D01*
X159517544Y-46579961D02*
X159469925Y-46532342D01*
X159469925Y-46532342D02*
X159422306Y-46437104D01*
X159422306Y-46437104D02*
X159422306Y-46341866D01*
X159422306Y-46341866D02*
X159469925Y-46246628D01*
X159469925Y-46246628D02*
X159517544Y-46199009D01*
X159517544Y-46199009D02*
X159612782Y-46151390D01*
X159612782Y-46151390D02*
X159946115Y-46151390D01*
X158946115Y-46008533D02*
X158184211Y-46008533D01*
X135303884Y-43991466D02*
X136065789Y-43991466D01*
X135303884Y-40491466D02*
X136065789Y-40491466D01*
X135684836Y-40872419D02*
X135684836Y-40110514D01*
X89427217Y-42338609D02*
X89570074Y-42386228D01*
X89570074Y-42386228D02*
X89617693Y-42433847D01*
X89617693Y-42433847D02*
X89665312Y-42529085D01*
X89665312Y-42529085D02*
X89665312Y-42671942D01*
X89665312Y-42671942D02*
X89617693Y-42767180D01*
X89617693Y-42767180D02*
X89570074Y-42814800D01*
X89570074Y-42814800D02*
X89474836Y-42862419D01*
X89474836Y-42862419D02*
X89093884Y-42862419D01*
X89093884Y-42862419D02*
X89093884Y-41862419D01*
X89093884Y-41862419D02*
X89427217Y-41862419D01*
X89427217Y-41862419D02*
X89522455Y-41910038D01*
X89522455Y-41910038D02*
X89570074Y-41957657D01*
X89570074Y-41957657D02*
X89617693Y-42052895D01*
X89617693Y-42052895D02*
X89617693Y-42148133D01*
X89617693Y-42148133D02*
X89570074Y-42243371D01*
X89570074Y-42243371D02*
X89522455Y-42290990D01*
X89522455Y-42290990D02*
X89427217Y-42338609D01*
X89427217Y-42338609D02*
X89093884Y-42338609D01*
X90046265Y-42576704D02*
X90522455Y-42576704D01*
X89951027Y-42862419D02*
X90284360Y-41862419D01*
X90284360Y-41862419D02*
X90617693Y-42862419D01*
X90808170Y-41862419D02*
X91379598Y-41862419D01*
X91093884Y-42862419D02*
X91093884Y-41862419D01*
X91570075Y-41862419D02*
X92141503Y-41862419D01*
X91855789Y-42862419D02*
X91855789Y-41862419D01*
X92474837Y-42338609D02*
X92808170Y-42338609D01*
X92951027Y-42862419D02*
X92474837Y-42862419D01*
X92474837Y-42862419D02*
X92474837Y-41862419D01*
X92474837Y-41862419D02*
X92951027Y-41862419D01*
X93951027Y-42862419D02*
X93617694Y-42386228D01*
X93379599Y-42862419D02*
X93379599Y-41862419D01*
X93379599Y-41862419D02*
X93760551Y-41862419D01*
X93760551Y-41862419D02*
X93855789Y-41910038D01*
X93855789Y-41910038D02*
X93903408Y-41957657D01*
X93903408Y-41957657D02*
X93951027Y-42052895D01*
X93951027Y-42052895D02*
X93951027Y-42195752D01*
X93951027Y-42195752D02*
X93903408Y-42290990D01*
X93903408Y-42290990D02*
X93855789Y-42338609D01*
X93855789Y-42338609D02*
X93760551Y-42386228D01*
X93760551Y-42386228D02*
X93379599Y-42386228D01*
X94570075Y-42386228D02*
X94570075Y-42862419D01*
X94236742Y-41862419D02*
X94570075Y-42386228D01*
X94570075Y-42386228D02*
X94903408Y-41862419D01*
X159612782Y-35151390D02*
X159469925Y-35103771D01*
X159469925Y-35103771D02*
X159422306Y-35056152D01*
X159422306Y-35056152D02*
X159374687Y-34960914D01*
X159374687Y-34960914D02*
X159374687Y-34818057D01*
X159374687Y-34818057D02*
X159422306Y-34722819D01*
X159422306Y-34722819D02*
X159469925Y-34675200D01*
X159469925Y-34675200D02*
X159565163Y-34627580D01*
X159565163Y-34627580D02*
X159946115Y-34627580D01*
X159946115Y-34627580D02*
X159946115Y-35627580D01*
X159946115Y-35627580D02*
X159612782Y-35627580D01*
X159612782Y-35627580D02*
X159517544Y-35579961D01*
X159517544Y-35579961D02*
X159469925Y-35532342D01*
X159469925Y-35532342D02*
X159422306Y-35437104D01*
X159422306Y-35437104D02*
X159422306Y-35341866D01*
X159422306Y-35341866D02*
X159469925Y-35246628D01*
X159469925Y-35246628D02*
X159517544Y-35199009D01*
X159517544Y-35199009D02*
X159612782Y-35151390D01*
X159612782Y-35151390D02*
X159946115Y-35151390D01*
X158946115Y-35008533D02*
X158184211Y-35008533D01*
X158565163Y-34627580D02*
X158565163Y-35389485D01*
D11*
X51940527Y-140015639D02*
X52090124Y-139998423D01*
X52090124Y-139998423D02*
X52305912Y-139897799D01*
X52305912Y-139897799D02*
X52372102Y-139814392D01*
X52372102Y-139814392D02*
X52395135Y-139751110D01*
X52395135Y-139751110D02*
X52398043Y-139644670D01*
X52398043Y-139644670D02*
X52357794Y-139558355D01*
X52357794Y-139558355D02*
X52274387Y-139492165D01*
X52274387Y-139492165D02*
X52211104Y-139469132D01*
X52211104Y-139469132D02*
X52104665Y-139466224D01*
X52104665Y-139466224D02*
X51911910Y-139503565D01*
X51911910Y-139503565D02*
X51805470Y-139500657D01*
X51805470Y-139500657D02*
X51742188Y-139477624D01*
X51742188Y-139477624D02*
X51658781Y-139411434D01*
X51658781Y-139411434D02*
X51618532Y-139325119D01*
X51618532Y-139325119D02*
X51621440Y-139218679D01*
X51621440Y-139218679D02*
X51644473Y-139155397D01*
X51644473Y-139155397D02*
X51710663Y-139071990D01*
X51710663Y-139071990D02*
X51926451Y-138971367D01*
X51926451Y-138971367D02*
X52076048Y-138954150D01*
X52358026Y-138770120D02*
X52996432Y-139575804D01*
X52996432Y-139575804D02*
X52867192Y-138847943D01*
X52867192Y-138847943D02*
X53341692Y-139414807D01*
X53341692Y-139414807D02*
X53134861Y-138407876D01*
X53652751Y-138166380D02*
X53739066Y-138126130D01*
X53739066Y-138126130D02*
X53845506Y-138129038D01*
X53845506Y-138129038D02*
X53908788Y-138152071D01*
X53908788Y-138152071D02*
X53992195Y-138218262D01*
X53992195Y-138218262D02*
X54115851Y-138370767D01*
X54115851Y-138370767D02*
X54216475Y-138586555D01*
X54216475Y-138586555D02*
X54253816Y-138779309D01*
X54253816Y-138779309D02*
X54250908Y-138885749D01*
X54250908Y-138885749D02*
X54227875Y-138949031D01*
X54227875Y-138949031D02*
X54161685Y-139032438D01*
X54161685Y-139032438D02*
X54075370Y-139072687D01*
X54075370Y-139072687D02*
X53968930Y-139069779D01*
X53968930Y-139069779D02*
X53905648Y-139046746D01*
X53905648Y-139046746D02*
X53822241Y-138980556D01*
X53822241Y-138980556D02*
X53698585Y-138828051D01*
X53698585Y-138828051D02*
X53597961Y-138612263D01*
X53597961Y-138612263D02*
X53560620Y-138419508D01*
X53560620Y-138419508D02*
X53563528Y-138313069D01*
X53563528Y-138313069D02*
X53586561Y-138249786D01*
X53586561Y-138249786D02*
X53652751Y-138166380D01*
X54725640Y-138664377D02*
X54788923Y-138687410D01*
X54788923Y-138687410D02*
X54765890Y-138750693D01*
X54765890Y-138750693D02*
X54702608Y-138727660D01*
X54702608Y-138727660D02*
X54725640Y-138664377D01*
X54725640Y-138664377D02*
X54765890Y-138750693D01*
X54504269Y-138189645D02*
X54567551Y-138212678D01*
X54567551Y-138212678D02*
X54544518Y-138275960D01*
X54544518Y-138275960D02*
X54481236Y-138252927D01*
X54481236Y-138252927D02*
X54504269Y-138189645D01*
X54504269Y-138189645D02*
X54544518Y-138275960D01*
X54688531Y-137683388D02*
X55249579Y-137421767D01*
X55249579Y-137421767D02*
X55108474Y-137907900D01*
X55108474Y-137907900D02*
X55237946Y-137847526D01*
X55237946Y-137847526D02*
X55344386Y-137850434D01*
X55344386Y-137850434D02*
X55407668Y-137873466D01*
X55407668Y-137873466D02*
X55491075Y-137939657D01*
X55491075Y-137939657D02*
X55591698Y-138155444D01*
X55591698Y-138155444D02*
X55588790Y-138261884D01*
X55588790Y-138261884D02*
X55565757Y-138325166D01*
X55565757Y-138325166D02*
X55499567Y-138408573D01*
X55499567Y-138408573D02*
X55240622Y-138529321D01*
X55240622Y-138529321D02*
X55134182Y-138526413D01*
X55134182Y-138526413D02*
X55070900Y-138503380D01*
X127492381Y-134907200D02*
X127635238Y-134954819D01*
X127635238Y-134954819D02*
X127873333Y-134954819D01*
X127873333Y-134954819D02*
X127968571Y-134907200D01*
X127968571Y-134907200D02*
X128016190Y-134859580D01*
X128016190Y-134859580D02*
X128063809Y-134764342D01*
X128063809Y-134764342D02*
X128063809Y-134669104D01*
X128063809Y-134669104D02*
X128016190Y-134573866D01*
X128016190Y-134573866D02*
X127968571Y-134526247D01*
X127968571Y-134526247D02*
X127873333Y-134478628D01*
X127873333Y-134478628D02*
X127682857Y-134431009D01*
X127682857Y-134431009D02*
X127587619Y-134383390D01*
X127587619Y-134383390D02*
X127540000Y-134335771D01*
X127540000Y-134335771D02*
X127492381Y-134240533D01*
X127492381Y-134240533D02*
X127492381Y-134145295D01*
X127492381Y-134145295D02*
X127540000Y-134050057D01*
X127540000Y-134050057D02*
X127587619Y-134002438D01*
X127587619Y-134002438D02*
X127682857Y-133954819D01*
X127682857Y-133954819D02*
X127920952Y-133954819D01*
X127920952Y-133954819D02*
X128063809Y-134002438D01*
X128397143Y-133954819D02*
X128635238Y-134954819D01*
X128635238Y-134954819D02*
X128825714Y-134240533D01*
X128825714Y-134240533D02*
X129016190Y-134954819D01*
X129016190Y-134954819D02*
X129254286Y-133954819D01*
X130159047Y-134954819D02*
X129587619Y-134954819D01*
X129873333Y-134954819D02*
X129873333Y-133954819D01*
X129873333Y-133954819D02*
X129778095Y-134097676D01*
X129778095Y-134097676D02*
X129682857Y-134192914D01*
X129682857Y-134192914D02*
X129587619Y-134240533D01*
X130587619Y-134859580D02*
X130635238Y-134907200D01*
X130635238Y-134907200D02*
X130587619Y-134954819D01*
X130587619Y-134954819D02*
X130540000Y-134907200D01*
X130540000Y-134907200D02*
X130587619Y-134859580D01*
X130587619Y-134859580D02*
X130587619Y-134954819D01*
X130587619Y-134335771D02*
X130635238Y-134383390D01*
X130635238Y-134383390D02*
X130587619Y-134431009D01*
X130587619Y-134431009D02*
X130540000Y-134383390D01*
X130540000Y-134383390D02*
X130587619Y-134335771D01*
X130587619Y-134335771D02*
X130587619Y-134431009D01*
X130968571Y-133954819D02*
X131587618Y-133954819D01*
X131587618Y-133954819D02*
X131254285Y-134335771D01*
X131254285Y-134335771D02*
X131397142Y-134335771D01*
X131397142Y-134335771D02*
X131492380Y-134383390D01*
X131492380Y-134383390D02*
X131539999Y-134431009D01*
X131539999Y-134431009D02*
X131587618Y-134526247D01*
X131587618Y-134526247D02*
X131587618Y-134764342D01*
X131587618Y-134764342D02*
X131539999Y-134859580D01*
X131539999Y-134859580D02*
X131492380Y-134907200D01*
X131492380Y-134907200D02*
X131397142Y-134954819D01*
X131397142Y-134954819D02*
X131111428Y-134954819D01*
X131111428Y-134954819D02*
X131016190Y-134907200D01*
X131016190Y-134907200D02*
X130968571Y-134859580D01*
X146542381Y-136504860D02*
X146685238Y-136552479D01*
X146685238Y-136552479D02*
X146923333Y-136552479D01*
X146923333Y-136552479D02*
X147018571Y-136504860D01*
X147018571Y-136504860D02*
X147066190Y-136457240D01*
X147066190Y-136457240D02*
X147113809Y-136362002D01*
X147113809Y-136362002D02*
X147113809Y-136266764D01*
X147113809Y-136266764D02*
X147066190Y-136171526D01*
X147066190Y-136171526D02*
X147018571Y-136123907D01*
X147018571Y-136123907D02*
X146923333Y-136076288D01*
X146923333Y-136076288D02*
X146732857Y-136028669D01*
X146732857Y-136028669D02*
X146637619Y-135981050D01*
X146637619Y-135981050D02*
X146590000Y-135933431D01*
X146590000Y-135933431D02*
X146542381Y-135838193D01*
X146542381Y-135838193D02*
X146542381Y-135742955D01*
X146542381Y-135742955D02*
X146590000Y-135647717D01*
X146590000Y-135647717D02*
X146637619Y-135600098D01*
X146637619Y-135600098D02*
X146732857Y-135552479D01*
X146732857Y-135552479D02*
X146970952Y-135552479D01*
X146970952Y-135552479D02*
X147113809Y-135600098D01*
X147447143Y-135552479D02*
X147685238Y-136552479D01*
X147685238Y-136552479D02*
X147875714Y-135838193D01*
X147875714Y-135838193D02*
X148066190Y-136552479D01*
X148066190Y-136552479D02*
X148304286Y-135552479D01*
X149209047Y-136552479D02*
X148637619Y-136552479D01*
X148923333Y-136552479D02*
X148923333Y-135552479D01*
X148923333Y-135552479D02*
X148828095Y-135695336D01*
X148828095Y-135695336D02*
X148732857Y-135790574D01*
X148732857Y-135790574D02*
X148637619Y-135838193D01*
X149637619Y-136457240D02*
X149685238Y-136504860D01*
X149685238Y-136504860D02*
X149637619Y-136552479D01*
X149637619Y-136552479D02*
X149590000Y-136504860D01*
X149590000Y-136504860D02*
X149637619Y-136457240D01*
X149637619Y-136457240D02*
X149637619Y-136552479D01*
X149637619Y-135933431D02*
X149685238Y-135981050D01*
X149685238Y-135981050D02*
X149637619Y-136028669D01*
X149637619Y-136028669D02*
X149590000Y-135981050D01*
X149590000Y-135981050D02*
X149637619Y-135933431D01*
X149637619Y-135933431D02*
X149637619Y-136028669D01*
X150542380Y-135885812D02*
X150542380Y-136552479D01*
X150304285Y-135504860D02*
X150066190Y-136219145D01*
X150066190Y-136219145D02*
X150685237Y-136219145D01*
X108442381Y-60304860D02*
X108585238Y-60352479D01*
X108585238Y-60352479D02*
X108823333Y-60352479D01*
X108823333Y-60352479D02*
X108918571Y-60304860D01*
X108918571Y-60304860D02*
X108966190Y-60257240D01*
X108966190Y-60257240D02*
X109013809Y-60162002D01*
X109013809Y-60162002D02*
X109013809Y-60066764D01*
X109013809Y-60066764D02*
X108966190Y-59971526D01*
X108966190Y-59971526D02*
X108918571Y-59923907D01*
X108918571Y-59923907D02*
X108823333Y-59876288D01*
X108823333Y-59876288D02*
X108632857Y-59828669D01*
X108632857Y-59828669D02*
X108537619Y-59781050D01*
X108537619Y-59781050D02*
X108490000Y-59733431D01*
X108490000Y-59733431D02*
X108442381Y-59638193D01*
X108442381Y-59638193D02*
X108442381Y-59542955D01*
X108442381Y-59542955D02*
X108490000Y-59447717D01*
X108490000Y-59447717D02*
X108537619Y-59400098D01*
X108537619Y-59400098D02*
X108632857Y-59352479D01*
X108632857Y-59352479D02*
X108870952Y-59352479D01*
X108870952Y-59352479D02*
X109013809Y-59400098D01*
X109347143Y-59352479D02*
X109585238Y-60352479D01*
X109585238Y-60352479D02*
X109775714Y-59638193D01*
X109775714Y-59638193D02*
X109966190Y-60352479D01*
X109966190Y-60352479D02*
X110204286Y-59352479D01*
X111061428Y-59352479D02*
X110585238Y-59352479D01*
X110585238Y-59352479D02*
X110537619Y-59828669D01*
X110537619Y-59828669D02*
X110585238Y-59781050D01*
X110585238Y-59781050D02*
X110680476Y-59733431D01*
X110680476Y-59733431D02*
X110918571Y-59733431D01*
X110918571Y-59733431D02*
X111013809Y-59781050D01*
X111013809Y-59781050D02*
X111061428Y-59828669D01*
X111061428Y-59828669D02*
X111109047Y-59923907D01*
X111109047Y-59923907D02*
X111109047Y-60162002D01*
X111109047Y-60162002D02*
X111061428Y-60257240D01*
X111061428Y-60257240D02*
X111013809Y-60304860D01*
X111013809Y-60304860D02*
X110918571Y-60352479D01*
X110918571Y-60352479D02*
X110680476Y-60352479D01*
X110680476Y-60352479D02*
X110585238Y-60304860D01*
X110585238Y-60304860D02*
X110537619Y-60257240D01*
X111537619Y-60257240D02*
X111585238Y-60304860D01*
X111585238Y-60304860D02*
X111537619Y-60352479D01*
X111537619Y-60352479D02*
X111490000Y-60304860D01*
X111490000Y-60304860D02*
X111537619Y-60257240D01*
X111537619Y-60257240D02*
X111537619Y-60352479D01*
X111537619Y-59733431D02*
X111585238Y-59781050D01*
X111585238Y-59781050D02*
X111537619Y-59828669D01*
X111537619Y-59828669D02*
X111490000Y-59781050D01*
X111490000Y-59781050D02*
X111537619Y-59733431D01*
X111537619Y-59733431D02*
X111537619Y-59828669D01*
X111966190Y-59447717D02*
X112013809Y-59400098D01*
X112013809Y-59400098D02*
X112109047Y-59352479D01*
X112109047Y-59352479D02*
X112347142Y-59352479D01*
X112347142Y-59352479D02*
X112442380Y-59400098D01*
X112442380Y-59400098D02*
X112489999Y-59447717D01*
X112489999Y-59447717D02*
X112537618Y-59542955D01*
X112537618Y-59542955D02*
X112537618Y-59638193D01*
X112537618Y-59638193D02*
X112489999Y-59781050D01*
X112489999Y-59781050D02*
X111918571Y-60352479D01*
X111918571Y-60352479D02*
X112537618Y-60352479D01*
X146542381Y-60304860D02*
X146685238Y-60352479D01*
X146685238Y-60352479D02*
X146923333Y-60352479D01*
X146923333Y-60352479D02*
X147018571Y-60304860D01*
X147018571Y-60304860D02*
X147066190Y-60257240D01*
X147066190Y-60257240D02*
X147113809Y-60162002D01*
X147113809Y-60162002D02*
X147113809Y-60066764D01*
X147113809Y-60066764D02*
X147066190Y-59971526D01*
X147066190Y-59971526D02*
X147018571Y-59923907D01*
X147018571Y-59923907D02*
X146923333Y-59876288D01*
X146923333Y-59876288D02*
X146732857Y-59828669D01*
X146732857Y-59828669D02*
X146637619Y-59781050D01*
X146637619Y-59781050D02*
X146590000Y-59733431D01*
X146590000Y-59733431D02*
X146542381Y-59638193D01*
X146542381Y-59638193D02*
X146542381Y-59542955D01*
X146542381Y-59542955D02*
X146590000Y-59447717D01*
X146590000Y-59447717D02*
X146637619Y-59400098D01*
X146637619Y-59400098D02*
X146732857Y-59352479D01*
X146732857Y-59352479D02*
X146970952Y-59352479D01*
X146970952Y-59352479D02*
X147113809Y-59400098D01*
X147447143Y-59352479D02*
X147685238Y-60352479D01*
X147685238Y-60352479D02*
X147875714Y-59638193D01*
X147875714Y-59638193D02*
X148066190Y-60352479D01*
X148066190Y-60352479D02*
X148304286Y-59352479D01*
X149161428Y-59352479D02*
X148685238Y-59352479D01*
X148685238Y-59352479D02*
X148637619Y-59828669D01*
X148637619Y-59828669D02*
X148685238Y-59781050D01*
X148685238Y-59781050D02*
X148780476Y-59733431D01*
X148780476Y-59733431D02*
X149018571Y-59733431D01*
X149018571Y-59733431D02*
X149113809Y-59781050D01*
X149113809Y-59781050D02*
X149161428Y-59828669D01*
X149161428Y-59828669D02*
X149209047Y-59923907D01*
X149209047Y-59923907D02*
X149209047Y-60162002D01*
X149209047Y-60162002D02*
X149161428Y-60257240D01*
X149161428Y-60257240D02*
X149113809Y-60304860D01*
X149113809Y-60304860D02*
X149018571Y-60352479D01*
X149018571Y-60352479D02*
X148780476Y-60352479D01*
X148780476Y-60352479D02*
X148685238Y-60304860D01*
X148685238Y-60304860D02*
X148637619Y-60257240D01*
X149637619Y-60257240D02*
X149685238Y-60304860D01*
X149685238Y-60304860D02*
X149637619Y-60352479D01*
X149637619Y-60352479D02*
X149590000Y-60304860D01*
X149590000Y-60304860D02*
X149637619Y-60257240D01*
X149637619Y-60257240D02*
X149637619Y-60352479D01*
X149637619Y-59733431D02*
X149685238Y-59781050D01*
X149685238Y-59781050D02*
X149637619Y-59828669D01*
X149637619Y-59828669D02*
X149590000Y-59781050D01*
X149590000Y-59781050D02*
X149637619Y-59733431D01*
X149637619Y-59733431D02*
X149637619Y-59828669D01*
X150542380Y-59685812D02*
X150542380Y-60352479D01*
X150304285Y-59304860D02*
X150066190Y-60019145D01*
X150066190Y-60019145D02*
X150685237Y-60019145D01*
X165592381Y-63482400D02*
X165735238Y-63530019D01*
X165735238Y-63530019D02*
X165973333Y-63530019D01*
X165973333Y-63530019D02*
X166068571Y-63482400D01*
X166068571Y-63482400D02*
X166116190Y-63434780D01*
X166116190Y-63434780D02*
X166163809Y-63339542D01*
X166163809Y-63339542D02*
X166163809Y-63244304D01*
X166163809Y-63244304D02*
X166116190Y-63149066D01*
X166116190Y-63149066D02*
X166068571Y-63101447D01*
X166068571Y-63101447D02*
X165973333Y-63053828D01*
X165973333Y-63053828D02*
X165782857Y-63006209D01*
X165782857Y-63006209D02*
X165687619Y-62958590D01*
X165687619Y-62958590D02*
X165640000Y-62910971D01*
X165640000Y-62910971D02*
X165592381Y-62815733D01*
X165592381Y-62815733D02*
X165592381Y-62720495D01*
X165592381Y-62720495D02*
X165640000Y-62625257D01*
X165640000Y-62625257D02*
X165687619Y-62577638D01*
X165687619Y-62577638D02*
X165782857Y-62530019D01*
X165782857Y-62530019D02*
X166020952Y-62530019D01*
X166020952Y-62530019D02*
X166163809Y-62577638D01*
X166497143Y-62530019D02*
X166735238Y-63530019D01*
X166735238Y-63530019D02*
X166925714Y-62815733D01*
X166925714Y-62815733D02*
X167116190Y-63530019D01*
X167116190Y-63530019D02*
X167354286Y-62530019D01*
X168211428Y-62530019D02*
X167735238Y-62530019D01*
X167735238Y-62530019D02*
X167687619Y-63006209D01*
X167687619Y-63006209D02*
X167735238Y-62958590D01*
X167735238Y-62958590D02*
X167830476Y-62910971D01*
X167830476Y-62910971D02*
X168068571Y-62910971D01*
X168068571Y-62910971D02*
X168163809Y-62958590D01*
X168163809Y-62958590D02*
X168211428Y-63006209D01*
X168211428Y-63006209D02*
X168259047Y-63101447D01*
X168259047Y-63101447D02*
X168259047Y-63339542D01*
X168259047Y-63339542D02*
X168211428Y-63434780D01*
X168211428Y-63434780D02*
X168163809Y-63482400D01*
X168163809Y-63482400D02*
X168068571Y-63530019D01*
X168068571Y-63530019D02*
X167830476Y-63530019D01*
X167830476Y-63530019D02*
X167735238Y-63482400D01*
X167735238Y-63482400D02*
X167687619Y-63434780D01*
X168687619Y-63434780D02*
X168735238Y-63482400D01*
X168735238Y-63482400D02*
X168687619Y-63530019D01*
X168687619Y-63530019D02*
X168640000Y-63482400D01*
X168640000Y-63482400D02*
X168687619Y-63434780D01*
X168687619Y-63434780D02*
X168687619Y-63530019D01*
X168687619Y-62910971D02*
X168735238Y-62958590D01*
X168735238Y-62958590D02*
X168687619Y-63006209D01*
X168687619Y-63006209D02*
X168640000Y-62958590D01*
X168640000Y-62958590D02*
X168687619Y-62910971D01*
X168687619Y-62910971D02*
X168687619Y-63006209D01*
X169639999Y-62530019D02*
X169163809Y-62530019D01*
X169163809Y-62530019D02*
X169116190Y-63006209D01*
X169116190Y-63006209D02*
X169163809Y-62958590D01*
X169163809Y-62958590D02*
X169259047Y-62910971D01*
X169259047Y-62910971D02*
X169497142Y-62910971D01*
X169497142Y-62910971D02*
X169592380Y-62958590D01*
X169592380Y-62958590D02*
X169639999Y-63006209D01*
X169639999Y-63006209D02*
X169687618Y-63101447D01*
X169687618Y-63101447D02*
X169687618Y-63339542D01*
X169687618Y-63339542D02*
X169639999Y-63434780D01*
X169639999Y-63434780D02*
X169592380Y-63482400D01*
X169592380Y-63482400D02*
X169497142Y-63530019D01*
X169497142Y-63530019D02*
X169259047Y-63530019D01*
X169259047Y-63530019D02*
X169163809Y-63482400D01*
X169163809Y-63482400D02*
X169116190Y-63434780D01*
X89392381Y-80624860D02*
X89535238Y-80672479D01*
X89535238Y-80672479D02*
X89773333Y-80672479D01*
X89773333Y-80672479D02*
X89868571Y-80624860D01*
X89868571Y-80624860D02*
X89916190Y-80577240D01*
X89916190Y-80577240D02*
X89963809Y-80482002D01*
X89963809Y-80482002D02*
X89963809Y-80386764D01*
X89963809Y-80386764D02*
X89916190Y-80291526D01*
X89916190Y-80291526D02*
X89868571Y-80243907D01*
X89868571Y-80243907D02*
X89773333Y-80196288D01*
X89773333Y-80196288D02*
X89582857Y-80148669D01*
X89582857Y-80148669D02*
X89487619Y-80101050D01*
X89487619Y-80101050D02*
X89440000Y-80053431D01*
X89440000Y-80053431D02*
X89392381Y-79958193D01*
X89392381Y-79958193D02*
X89392381Y-79862955D01*
X89392381Y-79862955D02*
X89440000Y-79767717D01*
X89440000Y-79767717D02*
X89487619Y-79720098D01*
X89487619Y-79720098D02*
X89582857Y-79672479D01*
X89582857Y-79672479D02*
X89820952Y-79672479D01*
X89820952Y-79672479D02*
X89963809Y-79720098D01*
X90297143Y-79672479D02*
X90535238Y-80672479D01*
X90535238Y-80672479D02*
X90725714Y-79958193D01*
X90725714Y-79958193D02*
X90916190Y-80672479D01*
X90916190Y-80672479D02*
X91154286Y-79672479D01*
X91963809Y-80005812D02*
X91963809Y-80672479D01*
X91725714Y-79624860D02*
X91487619Y-80339145D01*
X91487619Y-80339145D02*
X92106666Y-80339145D01*
X92487619Y-80577240D02*
X92535238Y-80624860D01*
X92535238Y-80624860D02*
X92487619Y-80672479D01*
X92487619Y-80672479D02*
X92440000Y-80624860D01*
X92440000Y-80624860D02*
X92487619Y-80577240D01*
X92487619Y-80577240D02*
X92487619Y-80672479D01*
X92487619Y-80053431D02*
X92535238Y-80101050D01*
X92535238Y-80101050D02*
X92487619Y-80148669D01*
X92487619Y-80148669D02*
X92440000Y-80101050D01*
X92440000Y-80101050D02*
X92487619Y-80053431D01*
X92487619Y-80053431D02*
X92487619Y-80148669D01*
X93487618Y-80672479D02*
X92916190Y-80672479D01*
X93201904Y-80672479D02*
X93201904Y-79672479D01*
X93201904Y-79672479D02*
X93106666Y-79815336D01*
X93106666Y-79815336D02*
X93011428Y-79910574D01*
X93011428Y-79910574D02*
X92916190Y-79958193D01*
X189404881Y-101579860D02*
X189547738Y-101627479D01*
X189547738Y-101627479D02*
X189785833Y-101627479D01*
X189785833Y-101627479D02*
X189881071Y-101579860D01*
X189881071Y-101579860D02*
X189928690Y-101532240D01*
X189928690Y-101532240D02*
X189976309Y-101437002D01*
X189976309Y-101437002D02*
X189976309Y-101341764D01*
X189976309Y-101341764D02*
X189928690Y-101246526D01*
X189928690Y-101246526D02*
X189881071Y-101198907D01*
X189881071Y-101198907D02*
X189785833Y-101151288D01*
X189785833Y-101151288D02*
X189595357Y-101103669D01*
X189595357Y-101103669D02*
X189500119Y-101056050D01*
X189500119Y-101056050D02*
X189452500Y-101008431D01*
X189452500Y-101008431D02*
X189404881Y-100913193D01*
X189404881Y-100913193D02*
X189404881Y-100817955D01*
X189404881Y-100817955D02*
X189452500Y-100722717D01*
X189452500Y-100722717D02*
X189500119Y-100675098D01*
X189500119Y-100675098D02*
X189595357Y-100627479D01*
X189595357Y-100627479D02*
X189833452Y-100627479D01*
X189833452Y-100627479D02*
X189976309Y-100675098D01*
X190309643Y-100627479D02*
X190547738Y-101627479D01*
X190547738Y-101627479D02*
X190738214Y-100913193D01*
X190738214Y-100913193D02*
X190928690Y-101627479D01*
X190928690Y-101627479D02*
X191166786Y-100627479D01*
X191452500Y-100627479D02*
X192071547Y-100627479D01*
X192071547Y-100627479D02*
X191738214Y-101008431D01*
X191738214Y-101008431D02*
X191881071Y-101008431D01*
X191881071Y-101008431D02*
X191976309Y-101056050D01*
X191976309Y-101056050D02*
X192023928Y-101103669D01*
X192023928Y-101103669D02*
X192071547Y-101198907D01*
X192071547Y-101198907D02*
X192071547Y-101437002D01*
X192071547Y-101437002D02*
X192023928Y-101532240D01*
X192023928Y-101532240D02*
X191976309Y-101579860D01*
X191976309Y-101579860D02*
X191881071Y-101627479D01*
X191881071Y-101627479D02*
X191595357Y-101627479D01*
X191595357Y-101627479D02*
X191500119Y-101579860D01*
X191500119Y-101579860D02*
X191452500Y-101532240D01*
X192500119Y-101532240D02*
X192547738Y-101579860D01*
X192547738Y-101579860D02*
X192500119Y-101627479D01*
X192500119Y-101627479D02*
X192452500Y-101579860D01*
X192452500Y-101579860D02*
X192500119Y-101532240D01*
X192500119Y-101532240D02*
X192500119Y-101627479D01*
X192500119Y-101008431D02*
X192547738Y-101056050D01*
X192547738Y-101056050D02*
X192500119Y-101103669D01*
X192500119Y-101103669D02*
X192452500Y-101056050D01*
X192452500Y-101056050D02*
X192500119Y-101008431D01*
X192500119Y-101008431D02*
X192500119Y-101103669D01*
X193404880Y-100627479D02*
X193214404Y-100627479D01*
X193214404Y-100627479D02*
X193119166Y-100675098D01*
X193119166Y-100675098D02*
X193071547Y-100722717D01*
X193071547Y-100722717D02*
X192976309Y-100865574D01*
X192976309Y-100865574D02*
X192928690Y-101056050D01*
X192928690Y-101056050D02*
X192928690Y-101437002D01*
X192928690Y-101437002D02*
X192976309Y-101532240D01*
X192976309Y-101532240D02*
X193023928Y-101579860D01*
X193023928Y-101579860D02*
X193119166Y-101627479D01*
X193119166Y-101627479D02*
X193309642Y-101627479D01*
X193309642Y-101627479D02*
X193404880Y-101579860D01*
X193404880Y-101579860D02*
X193452499Y-101532240D01*
X193452499Y-101532240D02*
X193500118Y-101437002D01*
X193500118Y-101437002D02*
X193500118Y-101198907D01*
X193500118Y-101198907D02*
X193452499Y-101103669D01*
X193452499Y-101103669D02*
X193404880Y-101056050D01*
X193404880Y-101056050D02*
X193309642Y-101008431D01*
X193309642Y-101008431D02*
X193119166Y-101008431D01*
X193119166Y-101008431D02*
X193023928Y-101056050D01*
X193023928Y-101056050D02*
X192976309Y-101103669D01*
X192976309Y-101103669D02*
X192928690Y-101198907D01*
X108442381Y-79354860D02*
X108585238Y-79402479D01*
X108585238Y-79402479D02*
X108823333Y-79402479D01*
X108823333Y-79402479D02*
X108918571Y-79354860D01*
X108918571Y-79354860D02*
X108966190Y-79307240D01*
X108966190Y-79307240D02*
X109013809Y-79212002D01*
X109013809Y-79212002D02*
X109013809Y-79116764D01*
X109013809Y-79116764D02*
X108966190Y-79021526D01*
X108966190Y-79021526D02*
X108918571Y-78973907D01*
X108918571Y-78973907D02*
X108823333Y-78926288D01*
X108823333Y-78926288D02*
X108632857Y-78878669D01*
X108632857Y-78878669D02*
X108537619Y-78831050D01*
X108537619Y-78831050D02*
X108490000Y-78783431D01*
X108490000Y-78783431D02*
X108442381Y-78688193D01*
X108442381Y-78688193D02*
X108442381Y-78592955D01*
X108442381Y-78592955D02*
X108490000Y-78497717D01*
X108490000Y-78497717D02*
X108537619Y-78450098D01*
X108537619Y-78450098D02*
X108632857Y-78402479D01*
X108632857Y-78402479D02*
X108870952Y-78402479D01*
X108870952Y-78402479D02*
X109013809Y-78450098D01*
X109347143Y-78402479D02*
X109585238Y-79402479D01*
X109585238Y-79402479D02*
X109775714Y-78688193D01*
X109775714Y-78688193D02*
X109966190Y-79402479D01*
X109966190Y-79402479D02*
X110204286Y-78402479D01*
X111013809Y-78735812D02*
X111013809Y-79402479D01*
X110775714Y-78354860D02*
X110537619Y-79069145D01*
X110537619Y-79069145D02*
X111156666Y-79069145D01*
X111537619Y-79307240D02*
X111585238Y-79354860D01*
X111585238Y-79354860D02*
X111537619Y-79402479D01*
X111537619Y-79402479D02*
X111490000Y-79354860D01*
X111490000Y-79354860D02*
X111537619Y-79307240D01*
X111537619Y-79307240D02*
X111537619Y-79402479D01*
X111537619Y-78783431D02*
X111585238Y-78831050D01*
X111585238Y-78831050D02*
X111537619Y-78878669D01*
X111537619Y-78878669D02*
X111490000Y-78831050D01*
X111490000Y-78831050D02*
X111537619Y-78783431D01*
X111537619Y-78783431D02*
X111537619Y-78878669D01*
X111966190Y-78497717D02*
X112013809Y-78450098D01*
X112013809Y-78450098D02*
X112109047Y-78402479D01*
X112109047Y-78402479D02*
X112347142Y-78402479D01*
X112347142Y-78402479D02*
X112442380Y-78450098D01*
X112442380Y-78450098D02*
X112489999Y-78497717D01*
X112489999Y-78497717D02*
X112537618Y-78592955D01*
X112537618Y-78592955D02*
X112537618Y-78688193D01*
X112537618Y-78688193D02*
X112489999Y-78831050D01*
X112489999Y-78831050D02*
X111918571Y-79402479D01*
X111918571Y-79402479D02*
X112537618Y-79402479D01*
X127492381Y-58707200D02*
X127635238Y-58754819D01*
X127635238Y-58754819D02*
X127873333Y-58754819D01*
X127873333Y-58754819D02*
X127968571Y-58707200D01*
X127968571Y-58707200D02*
X128016190Y-58659580D01*
X128016190Y-58659580D02*
X128063809Y-58564342D01*
X128063809Y-58564342D02*
X128063809Y-58469104D01*
X128063809Y-58469104D02*
X128016190Y-58373866D01*
X128016190Y-58373866D02*
X127968571Y-58326247D01*
X127968571Y-58326247D02*
X127873333Y-58278628D01*
X127873333Y-58278628D02*
X127682857Y-58231009D01*
X127682857Y-58231009D02*
X127587619Y-58183390D01*
X127587619Y-58183390D02*
X127540000Y-58135771D01*
X127540000Y-58135771D02*
X127492381Y-58040533D01*
X127492381Y-58040533D02*
X127492381Y-57945295D01*
X127492381Y-57945295D02*
X127540000Y-57850057D01*
X127540000Y-57850057D02*
X127587619Y-57802438D01*
X127587619Y-57802438D02*
X127682857Y-57754819D01*
X127682857Y-57754819D02*
X127920952Y-57754819D01*
X127920952Y-57754819D02*
X128063809Y-57802438D01*
X128397143Y-57754819D02*
X128635238Y-58754819D01*
X128635238Y-58754819D02*
X128825714Y-58040533D01*
X128825714Y-58040533D02*
X129016190Y-58754819D01*
X129016190Y-58754819D02*
X129254286Y-57754819D01*
X130111428Y-57754819D02*
X129635238Y-57754819D01*
X129635238Y-57754819D02*
X129587619Y-58231009D01*
X129587619Y-58231009D02*
X129635238Y-58183390D01*
X129635238Y-58183390D02*
X129730476Y-58135771D01*
X129730476Y-58135771D02*
X129968571Y-58135771D01*
X129968571Y-58135771D02*
X130063809Y-58183390D01*
X130063809Y-58183390D02*
X130111428Y-58231009D01*
X130111428Y-58231009D02*
X130159047Y-58326247D01*
X130159047Y-58326247D02*
X130159047Y-58564342D01*
X130159047Y-58564342D02*
X130111428Y-58659580D01*
X130111428Y-58659580D02*
X130063809Y-58707200D01*
X130063809Y-58707200D02*
X129968571Y-58754819D01*
X129968571Y-58754819D02*
X129730476Y-58754819D01*
X129730476Y-58754819D02*
X129635238Y-58707200D01*
X129635238Y-58707200D02*
X129587619Y-58659580D01*
X130587619Y-58659580D02*
X130635238Y-58707200D01*
X130635238Y-58707200D02*
X130587619Y-58754819D01*
X130587619Y-58754819D02*
X130540000Y-58707200D01*
X130540000Y-58707200D02*
X130587619Y-58659580D01*
X130587619Y-58659580D02*
X130587619Y-58754819D01*
X130587619Y-58135771D02*
X130635238Y-58183390D01*
X130635238Y-58183390D02*
X130587619Y-58231009D01*
X130587619Y-58231009D02*
X130540000Y-58183390D01*
X130540000Y-58183390D02*
X130587619Y-58135771D01*
X130587619Y-58135771D02*
X130587619Y-58231009D01*
X130968571Y-57754819D02*
X131587618Y-57754819D01*
X131587618Y-57754819D02*
X131254285Y-58135771D01*
X131254285Y-58135771D02*
X131397142Y-58135771D01*
X131397142Y-58135771D02*
X131492380Y-58183390D01*
X131492380Y-58183390D02*
X131539999Y-58231009D01*
X131539999Y-58231009D02*
X131587618Y-58326247D01*
X131587618Y-58326247D02*
X131587618Y-58564342D01*
X131587618Y-58564342D02*
X131539999Y-58659580D01*
X131539999Y-58659580D02*
X131492380Y-58707200D01*
X131492380Y-58707200D02*
X131397142Y-58754819D01*
X131397142Y-58754819D02*
X131111428Y-58754819D01*
X131111428Y-58754819D02*
X131016190Y-58707200D01*
X131016190Y-58707200D02*
X130968571Y-58659580D01*
X127492381Y-77757200D02*
X127635238Y-77804819D01*
X127635238Y-77804819D02*
X127873333Y-77804819D01*
X127873333Y-77804819D02*
X127968571Y-77757200D01*
X127968571Y-77757200D02*
X128016190Y-77709580D01*
X128016190Y-77709580D02*
X128063809Y-77614342D01*
X128063809Y-77614342D02*
X128063809Y-77519104D01*
X128063809Y-77519104D02*
X128016190Y-77423866D01*
X128016190Y-77423866D02*
X127968571Y-77376247D01*
X127968571Y-77376247D02*
X127873333Y-77328628D01*
X127873333Y-77328628D02*
X127682857Y-77281009D01*
X127682857Y-77281009D02*
X127587619Y-77233390D01*
X127587619Y-77233390D02*
X127540000Y-77185771D01*
X127540000Y-77185771D02*
X127492381Y-77090533D01*
X127492381Y-77090533D02*
X127492381Y-76995295D01*
X127492381Y-76995295D02*
X127540000Y-76900057D01*
X127540000Y-76900057D02*
X127587619Y-76852438D01*
X127587619Y-76852438D02*
X127682857Y-76804819D01*
X127682857Y-76804819D02*
X127920952Y-76804819D01*
X127920952Y-76804819D02*
X128063809Y-76852438D01*
X128397143Y-76804819D02*
X128635238Y-77804819D01*
X128635238Y-77804819D02*
X128825714Y-77090533D01*
X128825714Y-77090533D02*
X129016190Y-77804819D01*
X129016190Y-77804819D02*
X129254286Y-76804819D01*
X130063809Y-77138152D02*
X130063809Y-77804819D01*
X129825714Y-76757200D02*
X129587619Y-77471485D01*
X129587619Y-77471485D02*
X130206666Y-77471485D01*
X130587619Y-77709580D02*
X130635238Y-77757200D01*
X130635238Y-77757200D02*
X130587619Y-77804819D01*
X130587619Y-77804819D02*
X130540000Y-77757200D01*
X130540000Y-77757200D02*
X130587619Y-77709580D01*
X130587619Y-77709580D02*
X130587619Y-77804819D01*
X130587619Y-77185771D02*
X130635238Y-77233390D01*
X130635238Y-77233390D02*
X130587619Y-77281009D01*
X130587619Y-77281009D02*
X130540000Y-77233390D01*
X130540000Y-77233390D02*
X130587619Y-77185771D01*
X130587619Y-77185771D02*
X130587619Y-77281009D01*
X130968571Y-76804819D02*
X131587618Y-76804819D01*
X131587618Y-76804819D02*
X131254285Y-77185771D01*
X131254285Y-77185771D02*
X131397142Y-77185771D01*
X131397142Y-77185771D02*
X131492380Y-77233390D01*
X131492380Y-77233390D02*
X131539999Y-77281009D01*
X131539999Y-77281009D02*
X131587618Y-77376247D01*
X131587618Y-77376247D02*
X131587618Y-77614342D01*
X131587618Y-77614342D02*
X131539999Y-77709580D01*
X131539999Y-77709580D02*
X131492380Y-77757200D01*
X131492380Y-77757200D02*
X131397142Y-77804819D01*
X131397142Y-77804819D02*
X131111428Y-77804819D01*
X131111428Y-77804819D02*
X131016190Y-77757200D01*
X131016190Y-77757200D02*
X130968571Y-77709580D01*
X108442381Y-136504860D02*
X108585238Y-136552479D01*
X108585238Y-136552479D02*
X108823333Y-136552479D01*
X108823333Y-136552479D02*
X108918571Y-136504860D01*
X108918571Y-136504860D02*
X108966190Y-136457240D01*
X108966190Y-136457240D02*
X109013809Y-136362002D01*
X109013809Y-136362002D02*
X109013809Y-136266764D01*
X109013809Y-136266764D02*
X108966190Y-136171526D01*
X108966190Y-136171526D02*
X108918571Y-136123907D01*
X108918571Y-136123907D02*
X108823333Y-136076288D01*
X108823333Y-136076288D02*
X108632857Y-136028669D01*
X108632857Y-136028669D02*
X108537619Y-135981050D01*
X108537619Y-135981050D02*
X108490000Y-135933431D01*
X108490000Y-135933431D02*
X108442381Y-135838193D01*
X108442381Y-135838193D02*
X108442381Y-135742955D01*
X108442381Y-135742955D02*
X108490000Y-135647717D01*
X108490000Y-135647717D02*
X108537619Y-135600098D01*
X108537619Y-135600098D02*
X108632857Y-135552479D01*
X108632857Y-135552479D02*
X108870952Y-135552479D01*
X108870952Y-135552479D02*
X109013809Y-135600098D01*
X109347143Y-135552479D02*
X109585238Y-136552479D01*
X109585238Y-136552479D02*
X109775714Y-135838193D01*
X109775714Y-135838193D02*
X109966190Y-136552479D01*
X109966190Y-136552479D02*
X110204286Y-135552479D01*
X111109047Y-136552479D02*
X110537619Y-136552479D01*
X110823333Y-136552479D02*
X110823333Y-135552479D01*
X110823333Y-135552479D02*
X110728095Y-135695336D01*
X110728095Y-135695336D02*
X110632857Y-135790574D01*
X110632857Y-135790574D02*
X110537619Y-135838193D01*
X111537619Y-136457240D02*
X111585238Y-136504860D01*
X111585238Y-136504860D02*
X111537619Y-136552479D01*
X111537619Y-136552479D02*
X111490000Y-136504860D01*
X111490000Y-136504860D02*
X111537619Y-136457240D01*
X111537619Y-136457240D02*
X111537619Y-136552479D01*
X111537619Y-135933431D02*
X111585238Y-135981050D01*
X111585238Y-135981050D02*
X111537619Y-136028669D01*
X111537619Y-136028669D02*
X111490000Y-135981050D01*
X111490000Y-135981050D02*
X111537619Y-135933431D01*
X111537619Y-135933431D02*
X111537619Y-136028669D01*
X111966190Y-135647717D02*
X112013809Y-135600098D01*
X112013809Y-135600098D02*
X112109047Y-135552479D01*
X112109047Y-135552479D02*
X112347142Y-135552479D01*
X112347142Y-135552479D02*
X112442380Y-135600098D01*
X112442380Y-135600098D02*
X112489999Y-135647717D01*
X112489999Y-135647717D02*
X112537618Y-135742955D01*
X112537618Y-135742955D02*
X112537618Y-135838193D01*
X112537618Y-135838193D02*
X112489999Y-135981050D01*
X112489999Y-135981050D02*
X111918571Y-136552479D01*
X111918571Y-136552479D02*
X112537618Y-136552479D01*
X89392381Y-61577400D02*
X89535238Y-61625019D01*
X89535238Y-61625019D02*
X89773333Y-61625019D01*
X89773333Y-61625019D02*
X89868571Y-61577400D01*
X89868571Y-61577400D02*
X89916190Y-61529780D01*
X89916190Y-61529780D02*
X89963809Y-61434542D01*
X89963809Y-61434542D02*
X89963809Y-61339304D01*
X89963809Y-61339304D02*
X89916190Y-61244066D01*
X89916190Y-61244066D02*
X89868571Y-61196447D01*
X89868571Y-61196447D02*
X89773333Y-61148828D01*
X89773333Y-61148828D02*
X89582857Y-61101209D01*
X89582857Y-61101209D02*
X89487619Y-61053590D01*
X89487619Y-61053590D02*
X89440000Y-61005971D01*
X89440000Y-61005971D02*
X89392381Y-60910733D01*
X89392381Y-60910733D02*
X89392381Y-60815495D01*
X89392381Y-60815495D02*
X89440000Y-60720257D01*
X89440000Y-60720257D02*
X89487619Y-60672638D01*
X89487619Y-60672638D02*
X89582857Y-60625019D01*
X89582857Y-60625019D02*
X89820952Y-60625019D01*
X89820952Y-60625019D02*
X89963809Y-60672638D01*
X90297143Y-60625019D02*
X90535238Y-61625019D01*
X90535238Y-61625019D02*
X90725714Y-60910733D01*
X90725714Y-60910733D02*
X90916190Y-61625019D01*
X90916190Y-61625019D02*
X91154286Y-60625019D01*
X92011428Y-60625019D02*
X91535238Y-60625019D01*
X91535238Y-60625019D02*
X91487619Y-61101209D01*
X91487619Y-61101209D02*
X91535238Y-61053590D01*
X91535238Y-61053590D02*
X91630476Y-61005971D01*
X91630476Y-61005971D02*
X91868571Y-61005971D01*
X91868571Y-61005971D02*
X91963809Y-61053590D01*
X91963809Y-61053590D02*
X92011428Y-61101209D01*
X92011428Y-61101209D02*
X92059047Y-61196447D01*
X92059047Y-61196447D02*
X92059047Y-61434542D01*
X92059047Y-61434542D02*
X92011428Y-61529780D01*
X92011428Y-61529780D02*
X91963809Y-61577400D01*
X91963809Y-61577400D02*
X91868571Y-61625019D01*
X91868571Y-61625019D02*
X91630476Y-61625019D01*
X91630476Y-61625019D02*
X91535238Y-61577400D01*
X91535238Y-61577400D02*
X91487619Y-61529780D01*
X92487619Y-61529780D02*
X92535238Y-61577400D01*
X92535238Y-61577400D02*
X92487619Y-61625019D01*
X92487619Y-61625019D02*
X92440000Y-61577400D01*
X92440000Y-61577400D02*
X92487619Y-61529780D01*
X92487619Y-61529780D02*
X92487619Y-61625019D01*
X92487619Y-61005971D02*
X92535238Y-61053590D01*
X92535238Y-61053590D02*
X92487619Y-61101209D01*
X92487619Y-61101209D02*
X92440000Y-61053590D01*
X92440000Y-61053590D02*
X92487619Y-61005971D01*
X92487619Y-61005971D02*
X92487619Y-61101209D01*
X93487618Y-61625019D02*
X92916190Y-61625019D01*
X93201904Y-61625019D02*
X93201904Y-60625019D01*
X93201904Y-60625019D02*
X93106666Y-60767876D01*
X93106666Y-60767876D02*
X93011428Y-60863114D01*
X93011428Y-60863114D02*
X92916190Y-60910733D01*
X89392381Y-118724860D02*
X89535238Y-118772479D01*
X89535238Y-118772479D02*
X89773333Y-118772479D01*
X89773333Y-118772479D02*
X89868571Y-118724860D01*
X89868571Y-118724860D02*
X89916190Y-118677240D01*
X89916190Y-118677240D02*
X89963809Y-118582002D01*
X89963809Y-118582002D02*
X89963809Y-118486764D01*
X89963809Y-118486764D02*
X89916190Y-118391526D01*
X89916190Y-118391526D02*
X89868571Y-118343907D01*
X89868571Y-118343907D02*
X89773333Y-118296288D01*
X89773333Y-118296288D02*
X89582857Y-118248669D01*
X89582857Y-118248669D02*
X89487619Y-118201050D01*
X89487619Y-118201050D02*
X89440000Y-118153431D01*
X89440000Y-118153431D02*
X89392381Y-118058193D01*
X89392381Y-118058193D02*
X89392381Y-117962955D01*
X89392381Y-117962955D02*
X89440000Y-117867717D01*
X89440000Y-117867717D02*
X89487619Y-117820098D01*
X89487619Y-117820098D02*
X89582857Y-117772479D01*
X89582857Y-117772479D02*
X89820952Y-117772479D01*
X89820952Y-117772479D02*
X89963809Y-117820098D01*
X90297143Y-117772479D02*
X90535238Y-118772479D01*
X90535238Y-118772479D02*
X90725714Y-118058193D01*
X90725714Y-118058193D02*
X90916190Y-118772479D01*
X90916190Y-118772479D02*
X91154286Y-117772479D01*
X91487619Y-117867717D02*
X91535238Y-117820098D01*
X91535238Y-117820098D02*
X91630476Y-117772479D01*
X91630476Y-117772479D02*
X91868571Y-117772479D01*
X91868571Y-117772479D02*
X91963809Y-117820098D01*
X91963809Y-117820098D02*
X92011428Y-117867717D01*
X92011428Y-117867717D02*
X92059047Y-117962955D01*
X92059047Y-117962955D02*
X92059047Y-118058193D01*
X92059047Y-118058193D02*
X92011428Y-118201050D01*
X92011428Y-118201050D02*
X91440000Y-118772479D01*
X91440000Y-118772479D02*
X92059047Y-118772479D01*
X92487619Y-118677240D02*
X92535238Y-118724860D01*
X92535238Y-118724860D02*
X92487619Y-118772479D01*
X92487619Y-118772479D02*
X92440000Y-118724860D01*
X92440000Y-118724860D02*
X92487619Y-118677240D01*
X92487619Y-118677240D02*
X92487619Y-118772479D01*
X92487619Y-118153431D02*
X92535238Y-118201050D01*
X92535238Y-118201050D02*
X92487619Y-118248669D01*
X92487619Y-118248669D02*
X92440000Y-118201050D01*
X92440000Y-118201050D02*
X92487619Y-118153431D01*
X92487619Y-118153431D02*
X92487619Y-118248669D01*
X93487618Y-118772479D02*
X92916190Y-118772479D01*
X93201904Y-118772479D02*
X93201904Y-117772479D01*
X93201904Y-117772479D02*
X93106666Y-117915336D01*
X93106666Y-117915336D02*
X93011428Y-118010574D01*
X93011428Y-118010574D02*
X92916190Y-118058193D01*
X89392381Y-99674860D02*
X89535238Y-99722479D01*
X89535238Y-99722479D02*
X89773333Y-99722479D01*
X89773333Y-99722479D02*
X89868571Y-99674860D01*
X89868571Y-99674860D02*
X89916190Y-99627240D01*
X89916190Y-99627240D02*
X89963809Y-99532002D01*
X89963809Y-99532002D02*
X89963809Y-99436764D01*
X89963809Y-99436764D02*
X89916190Y-99341526D01*
X89916190Y-99341526D02*
X89868571Y-99293907D01*
X89868571Y-99293907D02*
X89773333Y-99246288D01*
X89773333Y-99246288D02*
X89582857Y-99198669D01*
X89582857Y-99198669D02*
X89487619Y-99151050D01*
X89487619Y-99151050D02*
X89440000Y-99103431D01*
X89440000Y-99103431D02*
X89392381Y-99008193D01*
X89392381Y-99008193D02*
X89392381Y-98912955D01*
X89392381Y-98912955D02*
X89440000Y-98817717D01*
X89440000Y-98817717D02*
X89487619Y-98770098D01*
X89487619Y-98770098D02*
X89582857Y-98722479D01*
X89582857Y-98722479D02*
X89820952Y-98722479D01*
X89820952Y-98722479D02*
X89963809Y-98770098D01*
X90297143Y-98722479D02*
X90535238Y-99722479D01*
X90535238Y-99722479D02*
X90725714Y-99008193D01*
X90725714Y-99008193D02*
X90916190Y-99722479D01*
X90916190Y-99722479D02*
X91154286Y-98722479D01*
X91440000Y-98722479D02*
X92059047Y-98722479D01*
X92059047Y-98722479D02*
X91725714Y-99103431D01*
X91725714Y-99103431D02*
X91868571Y-99103431D01*
X91868571Y-99103431D02*
X91963809Y-99151050D01*
X91963809Y-99151050D02*
X92011428Y-99198669D01*
X92011428Y-99198669D02*
X92059047Y-99293907D01*
X92059047Y-99293907D02*
X92059047Y-99532002D01*
X92059047Y-99532002D02*
X92011428Y-99627240D01*
X92011428Y-99627240D02*
X91963809Y-99674860D01*
X91963809Y-99674860D02*
X91868571Y-99722479D01*
X91868571Y-99722479D02*
X91582857Y-99722479D01*
X91582857Y-99722479D02*
X91487619Y-99674860D01*
X91487619Y-99674860D02*
X91440000Y-99627240D01*
X92487619Y-99627240D02*
X92535238Y-99674860D01*
X92535238Y-99674860D02*
X92487619Y-99722479D01*
X92487619Y-99722479D02*
X92440000Y-99674860D01*
X92440000Y-99674860D02*
X92487619Y-99627240D01*
X92487619Y-99627240D02*
X92487619Y-99722479D01*
X92487619Y-99103431D02*
X92535238Y-99151050D01*
X92535238Y-99151050D02*
X92487619Y-99198669D01*
X92487619Y-99198669D02*
X92440000Y-99151050D01*
X92440000Y-99151050D02*
X92487619Y-99103431D01*
X92487619Y-99103431D02*
X92487619Y-99198669D01*
X93487618Y-99722479D02*
X92916190Y-99722479D01*
X93201904Y-99722479D02*
X93201904Y-98722479D01*
X93201904Y-98722479D02*
X93106666Y-98865336D01*
X93106666Y-98865336D02*
X93011428Y-98960574D01*
X93011428Y-98960574D02*
X92916190Y-99008193D01*
X42725407Y-165329279D02*
X42875004Y-165312063D01*
X42875004Y-165312063D02*
X43090792Y-165211439D01*
X43090792Y-165211439D02*
X43156982Y-165128032D01*
X43156982Y-165128032D02*
X43180015Y-165064750D01*
X43180015Y-165064750D02*
X43182923Y-164958310D01*
X43182923Y-164958310D02*
X43142674Y-164871995D01*
X43142674Y-164871995D02*
X43059267Y-164805805D01*
X43059267Y-164805805D02*
X42995984Y-164782772D01*
X42995984Y-164782772D02*
X42889545Y-164779864D01*
X42889545Y-164779864D02*
X42696790Y-164817205D01*
X42696790Y-164817205D02*
X42590350Y-164814297D01*
X42590350Y-164814297D02*
X42527068Y-164791264D01*
X42527068Y-164791264D02*
X42443661Y-164725074D01*
X42443661Y-164725074D02*
X42403412Y-164638759D01*
X42403412Y-164638759D02*
X42406320Y-164532319D01*
X42406320Y-164532319D02*
X42429353Y-164469037D01*
X42429353Y-164469037D02*
X42495543Y-164385630D01*
X42495543Y-164385630D02*
X42711331Y-164285007D01*
X42711331Y-164285007D02*
X42860928Y-164267790D01*
X43142906Y-164083760D02*
X43781312Y-164889444D01*
X43781312Y-164889444D02*
X43652072Y-164161583D01*
X43652072Y-164161583D02*
X44126572Y-164728447D01*
X44126572Y-164728447D02*
X43919741Y-163721516D01*
X44437631Y-163480020D02*
X44523946Y-163439770D01*
X44523946Y-163439770D02*
X44630386Y-163442678D01*
X44630386Y-163442678D02*
X44693668Y-163465711D01*
X44693668Y-163465711D02*
X44777075Y-163531902D01*
X44777075Y-163531902D02*
X44900731Y-163684407D01*
X44900731Y-163684407D02*
X45001355Y-163900195D01*
X45001355Y-163900195D02*
X45038696Y-164092949D01*
X45038696Y-164092949D02*
X45035788Y-164199389D01*
X45035788Y-164199389D02*
X45012755Y-164262671D01*
X45012755Y-164262671D02*
X44946565Y-164346078D01*
X44946565Y-164346078D02*
X44860250Y-164386327D01*
X44860250Y-164386327D02*
X44753810Y-164383419D01*
X44753810Y-164383419D02*
X44690528Y-164360386D01*
X44690528Y-164360386D02*
X44607121Y-164294196D01*
X44607121Y-164294196D02*
X44483465Y-164141691D01*
X44483465Y-164141691D02*
X44382841Y-163925903D01*
X44382841Y-163925903D02*
X44345500Y-163733148D01*
X44345500Y-163733148D02*
X44348408Y-163626709D01*
X44348408Y-163626709D02*
X44371441Y-163563426D01*
X44371441Y-163563426D02*
X44437631Y-163480020D01*
X45510520Y-163978017D02*
X45573803Y-164001050D01*
X45573803Y-164001050D02*
X45550770Y-164064333D01*
X45550770Y-164064333D02*
X45487488Y-164041300D01*
X45487488Y-164041300D02*
X45510520Y-163978017D01*
X45510520Y-163978017D02*
X45550770Y-164064333D01*
X45289149Y-163503285D02*
X45352431Y-163526318D01*
X45352431Y-163526318D02*
X45329398Y-163589600D01*
X45329398Y-163589600D02*
X45266116Y-163566567D01*
X45266116Y-163566567D02*
X45289149Y-163503285D01*
X45289149Y-163503285D02*
X45329398Y-163589600D01*
X46457077Y-163641714D02*
X45939187Y-163883211D01*
X46198132Y-163762463D02*
X45775514Y-162856155D01*
X45775514Y-162856155D02*
X45749573Y-163025877D01*
X45749573Y-163025877D02*
X45703507Y-163152441D01*
X45703507Y-163152441D02*
X45637317Y-163235848D01*
X146542381Y-79354860D02*
X146685238Y-79402479D01*
X146685238Y-79402479D02*
X146923333Y-79402479D01*
X146923333Y-79402479D02*
X147018571Y-79354860D01*
X147018571Y-79354860D02*
X147066190Y-79307240D01*
X147066190Y-79307240D02*
X147113809Y-79212002D01*
X147113809Y-79212002D02*
X147113809Y-79116764D01*
X147113809Y-79116764D02*
X147066190Y-79021526D01*
X147066190Y-79021526D02*
X147018571Y-78973907D01*
X147018571Y-78973907D02*
X146923333Y-78926288D01*
X146923333Y-78926288D02*
X146732857Y-78878669D01*
X146732857Y-78878669D02*
X146637619Y-78831050D01*
X146637619Y-78831050D02*
X146590000Y-78783431D01*
X146590000Y-78783431D02*
X146542381Y-78688193D01*
X146542381Y-78688193D02*
X146542381Y-78592955D01*
X146542381Y-78592955D02*
X146590000Y-78497717D01*
X146590000Y-78497717D02*
X146637619Y-78450098D01*
X146637619Y-78450098D02*
X146732857Y-78402479D01*
X146732857Y-78402479D02*
X146970952Y-78402479D01*
X146970952Y-78402479D02*
X147113809Y-78450098D01*
X147447143Y-78402479D02*
X147685238Y-79402479D01*
X147685238Y-79402479D02*
X147875714Y-78688193D01*
X147875714Y-78688193D02*
X148066190Y-79402479D01*
X148066190Y-79402479D02*
X148304286Y-78402479D01*
X149113809Y-78735812D02*
X149113809Y-79402479D01*
X148875714Y-78354860D02*
X148637619Y-79069145D01*
X148637619Y-79069145D02*
X149256666Y-79069145D01*
X149637619Y-79307240D02*
X149685238Y-79354860D01*
X149685238Y-79354860D02*
X149637619Y-79402479D01*
X149637619Y-79402479D02*
X149590000Y-79354860D01*
X149590000Y-79354860D02*
X149637619Y-79307240D01*
X149637619Y-79307240D02*
X149637619Y-79402479D01*
X149637619Y-78783431D02*
X149685238Y-78831050D01*
X149685238Y-78831050D02*
X149637619Y-78878669D01*
X149637619Y-78878669D02*
X149590000Y-78831050D01*
X149590000Y-78831050D02*
X149637619Y-78783431D01*
X149637619Y-78783431D02*
X149637619Y-78878669D01*
X150542380Y-78735812D02*
X150542380Y-79402479D01*
X150304285Y-78354860D02*
X150066190Y-79069145D01*
X150066190Y-79069145D02*
X150685237Y-79069145D01*
X76727200Y-90957778D02*
X76774819Y-90814921D01*
X76774819Y-90814921D02*
X76774819Y-90576826D01*
X76774819Y-90576826D02*
X76727200Y-90481588D01*
X76727200Y-90481588D02*
X76679580Y-90433969D01*
X76679580Y-90433969D02*
X76584342Y-90386350D01*
X76584342Y-90386350D02*
X76489104Y-90386350D01*
X76489104Y-90386350D02*
X76393866Y-90433969D01*
X76393866Y-90433969D02*
X76346247Y-90481588D01*
X76346247Y-90481588D02*
X76298628Y-90576826D01*
X76298628Y-90576826D02*
X76251009Y-90767302D01*
X76251009Y-90767302D02*
X76203390Y-90862540D01*
X76203390Y-90862540D02*
X76155771Y-90910159D01*
X76155771Y-90910159D02*
X76060533Y-90957778D01*
X76060533Y-90957778D02*
X75965295Y-90957778D01*
X75965295Y-90957778D02*
X75870057Y-90910159D01*
X75870057Y-90910159D02*
X75822438Y-90862540D01*
X75822438Y-90862540D02*
X75774819Y-90767302D01*
X75774819Y-90767302D02*
X75774819Y-90529207D01*
X75774819Y-90529207D02*
X75822438Y-90386350D01*
X75774819Y-90053016D02*
X76774819Y-89814921D01*
X76774819Y-89814921D02*
X76060533Y-89624445D01*
X76060533Y-89624445D02*
X76774819Y-89433969D01*
X76774819Y-89433969D02*
X75774819Y-89195874D01*
X76108152Y-88386350D02*
X76774819Y-88386350D01*
X75727200Y-88624445D02*
X76441485Y-88862540D01*
X76441485Y-88862540D02*
X76441485Y-88243493D01*
X76679580Y-87862540D02*
X76727200Y-87814921D01*
X76727200Y-87814921D02*
X76774819Y-87862540D01*
X76774819Y-87862540D02*
X76727200Y-87910159D01*
X76727200Y-87910159D02*
X76679580Y-87862540D01*
X76679580Y-87862540D02*
X76774819Y-87862540D01*
X76155771Y-87862540D02*
X76203390Y-87814921D01*
X76203390Y-87814921D02*
X76251009Y-87862540D01*
X76251009Y-87862540D02*
X76203390Y-87910159D01*
X76203390Y-87910159D02*
X76155771Y-87862540D01*
X76155771Y-87862540D02*
X76251009Y-87862540D01*
X75774819Y-87195874D02*
X75774819Y-87100636D01*
X75774819Y-87100636D02*
X75822438Y-87005398D01*
X75822438Y-87005398D02*
X75870057Y-86957779D01*
X75870057Y-86957779D02*
X75965295Y-86910160D01*
X75965295Y-86910160D02*
X76155771Y-86862541D01*
X76155771Y-86862541D02*
X76393866Y-86862541D01*
X76393866Y-86862541D02*
X76584342Y-86910160D01*
X76584342Y-86910160D02*
X76679580Y-86957779D01*
X76679580Y-86957779D02*
X76727200Y-87005398D01*
X76727200Y-87005398D02*
X76774819Y-87100636D01*
X76774819Y-87100636D02*
X76774819Y-87195874D01*
X76774819Y-87195874D02*
X76727200Y-87291112D01*
X76727200Y-87291112D02*
X76679580Y-87338731D01*
X76679580Y-87338731D02*
X76584342Y-87386350D01*
X76584342Y-87386350D02*
X76393866Y-87433969D01*
X76393866Y-87433969D02*
X76155771Y-87433969D01*
X76155771Y-87433969D02*
X75965295Y-87386350D01*
X75965295Y-87386350D02*
X75870057Y-87338731D01*
X75870057Y-87338731D02*
X75822438Y-87291112D01*
X75822438Y-87291112D02*
X75774819Y-87195874D01*
X83630240Y-149720907D02*
X83647456Y-149870504D01*
X83647456Y-149870504D02*
X83748080Y-150086292D01*
X83748080Y-150086292D02*
X83831487Y-150152482D01*
X83831487Y-150152482D02*
X83894769Y-150175515D01*
X83894769Y-150175515D02*
X84001209Y-150178423D01*
X84001209Y-150178423D02*
X84087524Y-150138174D01*
X84087524Y-150138174D02*
X84153714Y-150054767D01*
X84153714Y-150054767D02*
X84176747Y-149991484D01*
X84176747Y-149991484D02*
X84179655Y-149885045D01*
X84179655Y-149885045D02*
X84142314Y-149692290D01*
X84142314Y-149692290D02*
X84145222Y-149585850D01*
X84145222Y-149585850D02*
X84168255Y-149522568D01*
X84168255Y-149522568D02*
X84234445Y-149439161D01*
X84234445Y-149439161D02*
X84320760Y-149398912D01*
X84320760Y-149398912D02*
X84427200Y-149401820D01*
X84427200Y-149401820D02*
X84490482Y-149424853D01*
X84490482Y-149424853D02*
X84573889Y-149491043D01*
X84573889Y-149491043D02*
X84674512Y-149706831D01*
X84674512Y-149706831D02*
X84691729Y-149856428D01*
X84875759Y-150138406D02*
X84070075Y-150776812D01*
X84070075Y-150776812D02*
X84797936Y-150647572D01*
X84797936Y-150647572D02*
X84231072Y-151122072D01*
X84231072Y-151122072D02*
X85238003Y-150915241D01*
X85479499Y-151433131D02*
X85519749Y-151519446D01*
X85519749Y-151519446D02*
X85516841Y-151625886D01*
X85516841Y-151625886D02*
X85493808Y-151689168D01*
X85493808Y-151689168D02*
X85427617Y-151772575D01*
X85427617Y-151772575D02*
X85275112Y-151896231D01*
X85275112Y-151896231D02*
X85059324Y-151996855D01*
X85059324Y-151996855D02*
X84866570Y-152034196D01*
X84866570Y-152034196D02*
X84760130Y-152031288D01*
X84760130Y-152031288D02*
X84696848Y-152008255D01*
X84696848Y-152008255D02*
X84613441Y-151942065D01*
X84613441Y-151942065D02*
X84573192Y-151855750D01*
X84573192Y-151855750D02*
X84576100Y-151749310D01*
X84576100Y-151749310D02*
X84599133Y-151686028D01*
X84599133Y-151686028D02*
X84665323Y-151602621D01*
X84665323Y-151602621D02*
X84817828Y-151478965D01*
X84817828Y-151478965D02*
X85033616Y-151378341D01*
X85033616Y-151378341D02*
X85226371Y-151341000D01*
X85226371Y-151341000D02*
X85332810Y-151343908D01*
X85332810Y-151343908D02*
X85396093Y-151366941D01*
X85396093Y-151366941D02*
X85479499Y-151433131D01*
X84981502Y-152506020D02*
X84958469Y-152569303D01*
X84958469Y-152569303D02*
X84895186Y-152546270D01*
X84895186Y-152546270D02*
X84918219Y-152482988D01*
X84918219Y-152482988D02*
X84981502Y-152506020D01*
X84981502Y-152506020D02*
X84895186Y-152546270D01*
X85456234Y-152284649D02*
X85433201Y-152347931D01*
X85433201Y-152347931D02*
X85369919Y-152324898D01*
X85369919Y-152324898D02*
X85392952Y-152261616D01*
X85392952Y-152261616D02*
X85456234Y-152284649D01*
X85456234Y-152284649D02*
X85369919Y-152324898D01*
X86203988Y-152986801D02*
X86002741Y-152555226D01*
X86002741Y-152555226D02*
X85551041Y-152713316D01*
X85551041Y-152713316D02*
X85614323Y-152736348D01*
X85614323Y-152736348D02*
X85697730Y-152802539D01*
X85697730Y-152802539D02*
X85798353Y-153018326D01*
X85798353Y-153018326D02*
X85795445Y-153124766D01*
X85795445Y-153124766D02*
X85772413Y-153188048D01*
X85772413Y-153188048D02*
X85706222Y-153271455D01*
X85706222Y-153271455D02*
X85490435Y-153372078D01*
X85490435Y-153372078D02*
X85383995Y-153369170D01*
X85383995Y-153369170D02*
X85320713Y-153346137D01*
X85320713Y-153346137D02*
X85237306Y-153279947D01*
X85237306Y-153279947D02*
X85136682Y-153064160D01*
X85136682Y-153064160D02*
X85139591Y-152957720D01*
X85139591Y-152957720D02*
X85162623Y-152894438D01*
X34676147Y-148064899D02*
X34825744Y-148047683D01*
X34825744Y-148047683D02*
X35041532Y-147947059D01*
X35041532Y-147947059D02*
X35107722Y-147863652D01*
X35107722Y-147863652D02*
X35130755Y-147800370D01*
X35130755Y-147800370D02*
X35133663Y-147693930D01*
X35133663Y-147693930D02*
X35093414Y-147607615D01*
X35093414Y-147607615D02*
X35010007Y-147541425D01*
X35010007Y-147541425D02*
X34946724Y-147518392D01*
X34946724Y-147518392D02*
X34840285Y-147515484D01*
X34840285Y-147515484D02*
X34647530Y-147552825D01*
X34647530Y-147552825D02*
X34541090Y-147549917D01*
X34541090Y-147549917D02*
X34477808Y-147526884D01*
X34477808Y-147526884D02*
X34394401Y-147460694D01*
X34394401Y-147460694D02*
X34354152Y-147374379D01*
X34354152Y-147374379D02*
X34357060Y-147267939D01*
X34357060Y-147267939D02*
X34380093Y-147204657D01*
X34380093Y-147204657D02*
X34446283Y-147121250D01*
X34446283Y-147121250D02*
X34662071Y-147020627D01*
X34662071Y-147020627D02*
X34811668Y-147003410D01*
X35093646Y-146819380D02*
X35732052Y-147625064D01*
X35732052Y-147625064D02*
X35602812Y-146897203D01*
X35602812Y-146897203D02*
X36077312Y-147464067D01*
X36077312Y-147464067D02*
X35870481Y-146457136D01*
X36388371Y-146215640D02*
X36474686Y-146175390D01*
X36474686Y-146175390D02*
X36581126Y-146178298D01*
X36581126Y-146178298D02*
X36644408Y-146201331D01*
X36644408Y-146201331D02*
X36727815Y-146267522D01*
X36727815Y-146267522D02*
X36851471Y-146420027D01*
X36851471Y-146420027D02*
X36952095Y-146635815D01*
X36952095Y-146635815D02*
X36989436Y-146828569D01*
X36989436Y-146828569D02*
X36986528Y-146935009D01*
X36986528Y-146935009D02*
X36963495Y-146998291D01*
X36963495Y-146998291D02*
X36897305Y-147081698D01*
X36897305Y-147081698D02*
X36810990Y-147121947D01*
X36810990Y-147121947D02*
X36704550Y-147119039D01*
X36704550Y-147119039D02*
X36641268Y-147096006D01*
X36641268Y-147096006D02*
X36557861Y-147029816D01*
X36557861Y-147029816D02*
X36434205Y-146877311D01*
X36434205Y-146877311D02*
X36333581Y-146661523D01*
X36333581Y-146661523D02*
X36296240Y-146468768D01*
X36296240Y-146468768D02*
X36299148Y-146362329D01*
X36299148Y-146362329D02*
X36322181Y-146299046D01*
X36322181Y-146299046D02*
X36388371Y-146215640D01*
X37461260Y-146713637D02*
X37524543Y-146736670D01*
X37524543Y-146736670D02*
X37501510Y-146799953D01*
X37501510Y-146799953D02*
X37438228Y-146776920D01*
X37438228Y-146776920D02*
X37461260Y-146713637D01*
X37461260Y-146713637D02*
X37501510Y-146799953D01*
X37239889Y-146238905D02*
X37303171Y-146261938D01*
X37303171Y-146261938D02*
X37280138Y-146325220D01*
X37280138Y-146325220D02*
X37216856Y-146302187D01*
X37216856Y-146302187D02*
X37239889Y-146238905D01*
X37239889Y-146238905D02*
X37280138Y-146325220D01*
X37683096Y-145611899D02*
X37769411Y-145571650D01*
X37769411Y-145571650D02*
X37875851Y-145574558D01*
X37875851Y-145574558D02*
X37939133Y-145597591D01*
X37939133Y-145597591D02*
X38022540Y-145663781D01*
X38022540Y-145663781D02*
X38146196Y-145816287D01*
X38146196Y-145816287D02*
X38246820Y-146032074D01*
X38246820Y-146032074D02*
X38284161Y-146224829D01*
X38284161Y-146224829D02*
X38281253Y-146331269D01*
X38281253Y-146331269D02*
X38258220Y-146394551D01*
X38258220Y-146394551D02*
X38192030Y-146477958D01*
X38192030Y-146477958D02*
X38105715Y-146518207D01*
X38105715Y-146518207D02*
X37999275Y-146515299D01*
X37999275Y-146515299D02*
X37935993Y-146492266D01*
X37935993Y-146492266D02*
X37852586Y-146426076D01*
X37852586Y-146426076D02*
X37728930Y-146273571D01*
X37728930Y-146273571D02*
X37628306Y-146057783D01*
X37628306Y-146057783D02*
X37590965Y-145865028D01*
X37590965Y-145865028D02*
X37593873Y-145758588D01*
X37593873Y-145758588D02*
X37616906Y-145695306D01*
X37616906Y-145695306D02*
X37683096Y-145611899D01*
X189404881Y-120629860D02*
X189547738Y-120677479D01*
X189547738Y-120677479D02*
X189785833Y-120677479D01*
X189785833Y-120677479D02*
X189881071Y-120629860D01*
X189881071Y-120629860D02*
X189928690Y-120582240D01*
X189928690Y-120582240D02*
X189976309Y-120487002D01*
X189976309Y-120487002D02*
X189976309Y-120391764D01*
X189976309Y-120391764D02*
X189928690Y-120296526D01*
X189928690Y-120296526D02*
X189881071Y-120248907D01*
X189881071Y-120248907D02*
X189785833Y-120201288D01*
X189785833Y-120201288D02*
X189595357Y-120153669D01*
X189595357Y-120153669D02*
X189500119Y-120106050D01*
X189500119Y-120106050D02*
X189452500Y-120058431D01*
X189452500Y-120058431D02*
X189404881Y-119963193D01*
X189404881Y-119963193D02*
X189404881Y-119867955D01*
X189404881Y-119867955D02*
X189452500Y-119772717D01*
X189452500Y-119772717D02*
X189500119Y-119725098D01*
X189500119Y-119725098D02*
X189595357Y-119677479D01*
X189595357Y-119677479D02*
X189833452Y-119677479D01*
X189833452Y-119677479D02*
X189976309Y-119725098D01*
X190309643Y-119677479D02*
X190547738Y-120677479D01*
X190547738Y-120677479D02*
X190738214Y-119963193D01*
X190738214Y-119963193D02*
X190928690Y-120677479D01*
X190928690Y-120677479D02*
X191166786Y-119677479D01*
X191500119Y-119772717D02*
X191547738Y-119725098D01*
X191547738Y-119725098D02*
X191642976Y-119677479D01*
X191642976Y-119677479D02*
X191881071Y-119677479D01*
X191881071Y-119677479D02*
X191976309Y-119725098D01*
X191976309Y-119725098D02*
X192023928Y-119772717D01*
X192023928Y-119772717D02*
X192071547Y-119867955D01*
X192071547Y-119867955D02*
X192071547Y-119963193D01*
X192071547Y-119963193D02*
X192023928Y-120106050D01*
X192023928Y-120106050D02*
X191452500Y-120677479D01*
X191452500Y-120677479D02*
X192071547Y-120677479D01*
X192500119Y-120582240D02*
X192547738Y-120629860D01*
X192547738Y-120629860D02*
X192500119Y-120677479D01*
X192500119Y-120677479D02*
X192452500Y-120629860D01*
X192452500Y-120629860D02*
X192500119Y-120582240D01*
X192500119Y-120582240D02*
X192500119Y-120677479D01*
X192500119Y-120058431D02*
X192547738Y-120106050D01*
X192547738Y-120106050D02*
X192500119Y-120153669D01*
X192500119Y-120153669D02*
X192452500Y-120106050D01*
X192452500Y-120106050D02*
X192500119Y-120058431D01*
X192500119Y-120058431D02*
X192500119Y-120153669D01*
X193404880Y-119677479D02*
X193214404Y-119677479D01*
X193214404Y-119677479D02*
X193119166Y-119725098D01*
X193119166Y-119725098D02*
X193071547Y-119772717D01*
X193071547Y-119772717D02*
X192976309Y-119915574D01*
X192976309Y-119915574D02*
X192928690Y-120106050D01*
X192928690Y-120106050D02*
X192928690Y-120487002D01*
X192928690Y-120487002D02*
X192976309Y-120582240D01*
X192976309Y-120582240D02*
X193023928Y-120629860D01*
X193023928Y-120629860D02*
X193119166Y-120677479D01*
X193119166Y-120677479D02*
X193309642Y-120677479D01*
X193309642Y-120677479D02*
X193404880Y-120629860D01*
X193404880Y-120629860D02*
X193452499Y-120582240D01*
X193452499Y-120582240D02*
X193500118Y-120487002D01*
X193500118Y-120487002D02*
X193500118Y-120248907D01*
X193500118Y-120248907D02*
X193452499Y-120153669D01*
X193452499Y-120153669D02*
X193404880Y-120106050D01*
X193404880Y-120106050D02*
X193309642Y-120058431D01*
X193309642Y-120058431D02*
X193119166Y-120058431D01*
X193119166Y-120058431D02*
X193023928Y-120106050D01*
X193023928Y-120106050D02*
X192976309Y-120153669D01*
X192976309Y-120153669D02*
X192928690Y-120248907D01*
X66365860Y-157772707D02*
X66383076Y-157922304D01*
X66383076Y-157922304D02*
X66483700Y-158138092D01*
X66483700Y-158138092D02*
X66567107Y-158204282D01*
X66567107Y-158204282D02*
X66630389Y-158227315D01*
X66630389Y-158227315D02*
X66736829Y-158230223D01*
X66736829Y-158230223D02*
X66823144Y-158189974D01*
X66823144Y-158189974D02*
X66889334Y-158106567D01*
X66889334Y-158106567D02*
X66912367Y-158043284D01*
X66912367Y-158043284D02*
X66915275Y-157936845D01*
X66915275Y-157936845D02*
X66877934Y-157744090D01*
X66877934Y-157744090D02*
X66880842Y-157637650D01*
X66880842Y-157637650D02*
X66903875Y-157574368D01*
X66903875Y-157574368D02*
X66970065Y-157490961D01*
X66970065Y-157490961D02*
X67056380Y-157450712D01*
X67056380Y-157450712D02*
X67162820Y-157453620D01*
X67162820Y-157453620D02*
X67226102Y-157476653D01*
X67226102Y-157476653D02*
X67309509Y-157542843D01*
X67309509Y-157542843D02*
X67410132Y-157758631D01*
X67410132Y-157758631D02*
X67427349Y-157908228D01*
X67611379Y-158190206D02*
X66805695Y-158828612D01*
X66805695Y-158828612D02*
X67533556Y-158699372D01*
X67533556Y-158699372D02*
X66966692Y-159173872D01*
X66966692Y-159173872D02*
X67973623Y-158967041D01*
X68215119Y-159484931D02*
X68255369Y-159571246D01*
X68255369Y-159571246D02*
X68252461Y-159677686D01*
X68252461Y-159677686D02*
X68229428Y-159740968D01*
X68229428Y-159740968D02*
X68163237Y-159824375D01*
X68163237Y-159824375D02*
X68010732Y-159948031D01*
X68010732Y-159948031D02*
X67794944Y-160048655D01*
X67794944Y-160048655D02*
X67602190Y-160085996D01*
X67602190Y-160085996D02*
X67495750Y-160083088D01*
X67495750Y-160083088D02*
X67432468Y-160060055D01*
X67432468Y-160060055D02*
X67349061Y-159993865D01*
X67349061Y-159993865D02*
X67308812Y-159907550D01*
X67308812Y-159907550D02*
X67311720Y-159801110D01*
X67311720Y-159801110D02*
X67334753Y-159737828D01*
X67334753Y-159737828D02*
X67400943Y-159654421D01*
X67400943Y-159654421D02*
X67553448Y-159530765D01*
X67553448Y-159530765D02*
X67769236Y-159430141D01*
X67769236Y-159430141D02*
X67961991Y-159392800D01*
X67961991Y-159392800D02*
X68068430Y-159395708D01*
X68068430Y-159395708D02*
X68131713Y-159418741D01*
X68131713Y-159418741D02*
X68215119Y-159484931D01*
X67717122Y-160557820D02*
X67694089Y-160621103D01*
X67694089Y-160621103D02*
X67630806Y-160598070D01*
X67630806Y-160598070D02*
X67653839Y-160534788D01*
X67653839Y-160534788D02*
X67717122Y-160557820D01*
X67717122Y-160557820D02*
X67630806Y-160598070D01*
X68191854Y-160336449D02*
X68168821Y-160399731D01*
X68168821Y-160399731D02*
X68105539Y-160376698D01*
X68105539Y-160376698D02*
X68128572Y-160313416D01*
X68128572Y-160313416D02*
X68191854Y-160336449D01*
X68191854Y-160336449D02*
X68105539Y-160376698D01*
X68617380Y-161136317D02*
X68013175Y-161418062D01*
X68862017Y-160759532D02*
X68114031Y-160845614D01*
X68114031Y-160845614D02*
X68375652Y-161406662D01*
X146542381Y-98404860D02*
X146685238Y-98452479D01*
X146685238Y-98452479D02*
X146923333Y-98452479D01*
X146923333Y-98452479D02*
X147018571Y-98404860D01*
X147018571Y-98404860D02*
X147066190Y-98357240D01*
X147066190Y-98357240D02*
X147113809Y-98262002D01*
X147113809Y-98262002D02*
X147113809Y-98166764D01*
X147113809Y-98166764D02*
X147066190Y-98071526D01*
X147066190Y-98071526D02*
X147018571Y-98023907D01*
X147018571Y-98023907D02*
X146923333Y-97976288D01*
X146923333Y-97976288D02*
X146732857Y-97928669D01*
X146732857Y-97928669D02*
X146637619Y-97881050D01*
X146637619Y-97881050D02*
X146590000Y-97833431D01*
X146590000Y-97833431D02*
X146542381Y-97738193D01*
X146542381Y-97738193D02*
X146542381Y-97642955D01*
X146542381Y-97642955D02*
X146590000Y-97547717D01*
X146590000Y-97547717D02*
X146637619Y-97500098D01*
X146637619Y-97500098D02*
X146732857Y-97452479D01*
X146732857Y-97452479D02*
X146970952Y-97452479D01*
X146970952Y-97452479D02*
X147113809Y-97500098D01*
X147447143Y-97452479D02*
X147685238Y-98452479D01*
X147685238Y-98452479D02*
X147875714Y-97738193D01*
X147875714Y-97738193D02*
X148066190Y-98452479D01*
X148066190Y-98452479D02*
X148304286Y-97452479D01*
X148590000Y-97452479D02*
X149209047Y-97452479D01*
X149209047Y-97452479D02*
X148875714Y-97833431D01*
X148875714Y-97833431D02*
X149018571Y-97833431D01*
X149018571Y-97833431D02*
X149113809Y-97881050D01*
X149113809Y-97881050D02*
X149161428Y-97928669D01*
X149161428Y-97928669D02*
X149209047Y-98023907D01*
X149209047Y-98023907D02*
X149209047Y-98262002D01*
X149209047Y-98262002D02*
X149161428Y-98357240D01*
X149161428Y-98357240D02*
X149113809Y-98404860D01*
X149113809Y-98404860D02*
X149018571Y-98452479D01*
X149018571Y-98452479D02*
X148732857Y-98452479D01*
X148732857Y-98452479D02*
X148637619Y-98404860D01*
X148637619Y-98404860D02*
X148590000Y-98357240D01*
X149637619Y-98357240D02*
X149685238Y-98404860D01*
X149685238Y-98404860D02*
X149637619Y-98452479D01*
X149637619Y-98452479D02*
X149590000Y-98404860D01*
X149590000Y-98404860D02*
X149637619Y-98357240D01*
X149637619Y-98357240D02*
X149637619Y-98452479D01*
X149637619Y-97833431D02*
X149685238Y-97881050D01*
X149685238Y-97881050D02*
X149637619Y-97928669D01*
X149637619Y-97928669D02*
X149590000Y-97881050D01*
X149590000Y-97881050D02*
X149637619Y-97833431D01*
X149637619Y-97833431D02*
X149637619Y-97928669D01*
X150542380Y-97785812D02*
X150542380Y-98452479D01*
X150304285Y-97404860D02*
X150066190Y-98119145D01*
X150066190Y-98119145D02*
X150685237Y-98119145D01*
X165592381Y-120629860D02*
X165735238Y-120677479D01*
X165735238Y-120677479D02*
X165973333Y-120677479D01*
X165973333Y-120677479D02*
X166068571Y-120629860D01*
X166068571Y-120629860D02*
X166116190Y-120582240D01*
X166116190Y-120582240D02*
X166163809Y-120487002D01*
X166163809Y-120487002D02*
X166163809Y-120391764D01*
X166163809Y-120391764D02*
X166116190Y-120296526D01*
X166116190Y-120296526D02*
X166068571Y-120248907D01*
X166068571Y-120248907D02*
X165973333Y-120201288D01*
X165973333Y-120201288D02*
X165782857Y-120153669D01*
X165782857Y-120153669D02*
X165687619Y-120106050D01*
X165687619Y-120106050D02*
X165640000Y-120058431D01*
X165640000Y-120058431D02*
X165592381Y-119963193D01*
X165592381Y-119963193D02*
X165592381Y-119867955D01*
X165592381Y-119867955D02*
X165640000Y-119772717D01*
X165640000Y-119772717D02*
X165687619Y-119725098D01*
X165687619Y-119725098D02*
X165782857Y-119677479D01*
X165782857Y-119677479D02*
X166020952Y-119677479D01*
X166020952Y-119677479D02*
X166163809Y-119725098D01*
X166497143Y-119677479D02*
X166735238Y-120677479D01*
X166735238Y-120677479D02*
X166925714Y-119963193D01*
X166925714Y-119963193D02*
X167116190Y-120677479D01*
X167116190Y-120677479D02*
X167354286Y-119677479D01*
X167687619Y-119772717D02*
X167735238Y-119725098D01*
X167735238Y-119725098D02*
X167830476Y-119677479D01*
X167830476Y-119677479D02*
X168068571Y-119677479D01*
X168068571Y-119677479D02*
X168163809Y-119725098D01*
X168163809Y-119725098D02*
X168211428Y-119772717D01*
X168211428Y-119772717D02*
X168259047Y-119867955D01*
X168259047Y-119867955D02*
X168259047Y-119963193D01*
X168259047Y-119963193D02*
X168211428Y-120106050D01*
X168211428Y-120106050D02*
X167640000Y-120677479D01*
X167640000Y-120677479D02*
X168259047Y-120677479D01*
X168687619Y-120582240D02*
X168735238Y-120629860D01*
X168735238Y-120629860D02*
X168687619Y-120677479D01*
X168687619Y-120677479D02*
X168640000Y-120629860D01*
X168640000Y-120629860D02*
X168687619Y-120582240D01*
X168687619Y-120582240D02*
X168687619Y-120677479D01*
X168687619Y-120058431D02*
X168735238Y-120106050D01*
X168735238Y-120106050D02*
X168687619Y-120153669D01*
X168687619Y-120153669D02*
X168640000Y-120106050D01*
X168640000Y-120106050D02*
X168687619Y-120058431D01*
X168687619Y-120058431D02*
X168687619Y-120153669D01*
X169639999Y-119677479D02*
X169163809Y-119677479D01*
X169163809Y-119677479D02*
X169116190Y-120153669D01*
X169116190Y-120153669D02*
X169163809Y-120106050D01*
X169163809Y-120106050D02*
X169259047Y-120058431D01*
X169259047Y-120058431D02*
X169497142Y-120058431D01*
X169497142Y-120058431D02*
X169592380Y-120106050D01*
X169592380Y-120106050D02*
X169639999Y-120153669D01*
X169639999Y-120153669D02*
X169687618Y-120248907D01*
X169687618Y-120248907D02*
X169687618Y-120487002D01*
X169687618Y-120487002D02*
X169639999Y-120582240D01*
X169639999Y-120582240D02*
X169592380Y-120629860D01*
X169592380Y-120629860D02*
X169497142Y-120677479D01*
X169497142Y-120677479D02*
X169259047Y-120677479D01*
X169259047Y-120677479D02*
X169163809Y-120629860D01*
X169163809Y-120629860D02*
X169116190Y-120582240D01*
X50777207Y-182596199D02*
X50926804Y-182578983D01*
X50926804Y-182578983D02*
X51142592Y-182478359D01*
X51142592Y-182478359D02*
X51208782Y-182394952D01*
X51208782Y-182394952D02*
X51231815Y-182331670D01*
X51231815Y-182331670D02*
X51234723Y-182225230D01*
X51234723Y-182225230D02*
X51194474Y-182138915D01*
X51194474Y-182138915D02*
X51111067Y-182072725D01*
X51111067Y-182072725D02*
X51047784Y-182049692D01*
X51047784Y-182049692D02*
X50941345Y-182046784D01*
X50941345Y-182046784D02*
X50748590Y-182084125D01*
X50748590Y-182084125D02*
X50642150Y-182081217D01*
X50642150Y-182081217D02*
X50578868Y-182058184D01*
X50578868Y-182058184D02*
X50495461Y-181991994D01*
X50495461Y-181991994D02*
X50455212Y-181905679D01*
X50455212Y-181905679D02*
X50458120Y-181799239D01*
X50458120Y-181799239D02*
X50481153Y-181735957D01*
X50481153Y-181735957D02*
X50547343Y-181652550D01*
X50547343Y-181652550D02*
X50763131Y-181551927D01*
X50763131Y-181551927D02*
X50912728Y-181534710D01*
X51194706Y-181350680D02*
X51833112Y-182156364D01*
X51833112Y-182156364D02*
X51703872Y-181428503D01*
X51703872Y-181428503D02*
X52178372Y-181995367D01*
X52178372Y-181995367D02*
X51971541Y-180988436D01*
X52489431Y-180746940D02*
X52575746Y-180706690D01*
X52575746Y-180706690D02*
X52682186Y-180709598D01*
X52682186Y-180709598D02*
X52745468Y-180732631D01*
X52745468Y-180732631D02*
X52828875Y-180798822D01*
X52828875Y-180798822D02*
X52952531Y-180951327D01*
X52952531Y-180951327D02*
X53053155Y-181167115D01*
X53053155Y-181167115D02*
X53090496Y-181359869D01*
X53090496Y-181359869D02*
X53087588Y-181466309D01*
X53087588Y-181466309D02*
X53064555Y-181529591D01*
X53064555Y-181529591D02*
X52998365Y-181612998D01*
X52998365Y-181612998D02*
X52912050Y-181653247D01*
X52912050Y-181653247D02*
X52805610Y-181650339D01*
X52805610Y-181650339D02*
X52742328Y-181627306D01*
X52742328Y-181627306D02*
X52658921Y-181561116D01*
X52658921Y-181561116D02*
X52535265Y-181408611D01*
X52535265Y-181408611D02*
X52434641Y-181192823D01*
X52434641Y-181192823D02*
X52397300Y-181000068D01*
X52397300Y-181000068D02*
X52400208Y-180893629D01*
X52400208Y-180893629D02*
X52423241Y-180830346D01*
X52423241Y-180830346D02*
X52489431Y-180746940D01*
X53562320Y-181244937D02*
X53625603Y-181267970D01*
X53625603Y-181267970D02*
X53602570Y-181331253D01*
X53602570Y-181331253D02*
X53539288Y-181308220D01*
X53539288Y-181308220D02*
X53562320Y-181244937D01*
X53562320Y-181244937D02*
X53602570Y-181331253D01*
X53340949Y-180770205D02*
X53404231Y-180793238D01*
X53404231Y-180793238D02*
X53381198Y-180856520D01*
X53381198Y-180856520D02*
X53317916Y-180833487D01*
X53317916Y-180833487D02*
X53340949Y-180770205D01*
X53340949Y-180770205D02*
X53381198Y-180856520D01*
X53608618Y-180330138D02*
X53631651Y-180266856D01*
X53631651Y-180266856D02*
X53697841Y-180183449D01*
X53697841Y-180183449D02*
X53913629Y-180082825D01*
X53913629Y-180082825D02*
X54020069Y-180085734D01*
X54020069Y-180085734D02*
X54083351Y-180108766D01*
X54083351Y-180108766D02*
X54166758Y-180174957D01*
X54166758Y-180174957D02*
X54207007Y-180261272D01*
X54207007Y-180261272D02*
X54224224Y-180410869D01*
X54224224Y-180410869D02*
X53947829Y-181170255D01*
X53947829Y-181170255D02*
X54508877Y-180908634D01*
X76727200Y-119532778D02*
X76774819Y-119389921D01*
X76774819Y-119389921D02*
X76774819Y-119151826D01*
X76774819Y-119151826D02*
X76727200Y-119056588D01*
X76727200Y-119056588D02*
X76679580Y-119008969D01*
X76679580Y-119008969D02*
X76584342Y-118961350D01*
X76584342Y-118961350D02*
X76489104Y-118961350D01*
X76489104Y-118961350D02*
X76393866Y-119008969D01*
X76393866Y-119008969D02*
X76346247Y-119056588D01*
X76346247Y-119056588D02*
X76298628Y-119151826D01*
X76298628Y-119151826D02*
X76251009Y-119342302D01*
X76251009Y-119342302D02*
X76203390Y-119437540D01*
X76203390Y-119437540D02*
X76155771Y-119485159D01*
X76155771Y-119485159D02*
X76060533Y-119532778D01*
X76060533Y-119532778D02*
X75965295Y-119532778D01*
X75965295Y-119532778D02*
X75870057Y-119485159D01*
X75870057Y-119485159D02*
X75822438Y-119437540D01*
X75822438Y-119437540D02*
X75774819Y-119342302D01*
X75774819Y-119342302D02*
X75774819Y-119104207D01*
X75774819Y-119104207D02*
X75822438Y-118961350D01*
X75774819Y-118628016D02*
X76774819Y-118389921D01*
X76774819Y-118389921D02*
X76060533Y-118199445D01*
X76060533Y-118199445D02*
X76774819Y-118008969D01*
X76774819Y-118008969D02*
X75774819Y-117770874D01*
X75870057Y-117437540D02*
X75822438Y-117389921D01*
X75822438Y-117389921D02*
X75774819Y-117294683D01*
X75774819Y-117294683D02*
X75774819Y-117056588D01*
X75774819Y-117056588D02*
X75822438Y-116961350D01*
X75822438Y-116961350D02*
X75870057Y-116913731D01*
X75870057Y-116913731D02*
X75965295Y-116866112D01*
X75965295Y-116866112D02*
X76060533Y-116866112D01*
X76060533Y-116866112D02*
X76203390Y-116913731D01*
X76203390Y-116913731D02*
X76774819Y-117485159D01*
X76774819Y-117485159D02*
X76774819Y-116866112D01*
X76679580Y-116437540D02*
X76727200Y-116389921D01*
X76727200Y-116389921D02*
X76774819Y-116437540D01*
X76774819Y-116437540D02*
X76727200Y-116485159D01*
X76727200Y-116485159D02*
X76679580Y-116437540D01*
X76679580Y-116437540D02*
X76774819Y-116437540D01*
X76155771Y-116437540D02*
X76203390Y-116389921D01*
X76203390Y-116389921D02*
X76251009Y-116437540D01*
X76251009Y-116437540D02*
X76203390Y-116485159D01*
X76203390Y-116485159D02*
X76155771Y-116437540D01*
X76155771Y-116437540D02*
X76251009Y-116437540D01*
X75774819Y-115770874D02*
X75774819Y-115675636D01*
X75774819Y-115675636D02*
X75822438Y-115580398D01*
X75822438Y-115580398D02*
X75870057Y-115532779D01*
X75870057Y-115532779D02*
X75965295Y-115485160D01*
X75965295Y-115485160D02*
X76155771Y-115437541D01*
X76155771Y-115437541D02*
X76393866Y-115437541D01*
X76393866Y-115437541D02*
X76584342Y-115485160D01*
X76584342Y-115485160D02*
X76679580Y-115532779D01*
X76679580Y-115532779D02*
X76727200Y-115580398D01*
X76727200Y-115580398D02*
X76774819Y-115675636D01*
X76774819Y-115675636D02*
X76774819Y-115770874D01*
X76774819Y-115770874D02*
X76727200Y-115866112D01*
X76727200Y-115866112D02*
X76679580Y-115913731D01*
X76679580Y-115913731D02*
X76584342Y-115961350D01*
X76584342Y-115961350D02*
X76393866Y-116008969D01*
X76393866Y-116008969D02*
X76155771Y-116008969D01*
X76155771Y-116008969D02*
X75965295Y-115961350D01*
X75965295Y-115961350D02*
X75870057Y-115913731D01*
X75870057Y-115913731D02*
X75822438Y-115866112D01*
X75822438Y-115866112D02*
X75774819Y-115770874D01*
X184642381Y-139679860D02*
X184785238Y-139727479D01*
X184785238Y-139727479D02*
X185023333Y-139727479D01*
X185023333Y-139727479D02*
X185118571Y-139679860D01*
X185118571Y-139679860D02*
X185166190Y-139632240D01*
X185166190Y-139632240D02*
X185213809Y-139537002D01*
X185213809Y-139537002D02*
X185213809Y-139441764D01*
X185213809Y-139441764D02*
X185166190Y-139346526D01*
X185166190Y-139346526D02*
X185118571Y-139298907D01*
X185118571Y-139298907D02*
X185023333Y-139251288D01*
X185023333Y-139251288D02*
X184832857Y-139203669D01*
X184832857Y-139203669D02*
X184737619Y-139156050D01*
X184737619Y-139156050D02*
X184690000Y-139108431D01*
X184690000Y-139108431D02*
X184642381Y-139013193D01*
X184642381Y-139013193D02*
X184642381Y-138917955D01*
X184642381Y-138917955D02*
X184690000Y-138822717D01*
X184690000Y-138822717D02*
X184737619Y-138775098D01*
X184737619Y-138775098D02*
X184832857Y-138727479D01*
X184832857Y-138727479D02*
X185070952Y-138727479D01*
X185070952Y-138727479D02*
X185213809Y-138775098D01*
X185547143Y-138727479D02*
X185785238Y-139727479D01*
X185785238Y-139727479D02*
X185975714Y-139013193D01*
X185975714Y-139013193D02*
X186166190Y-139727479D01*
X186166190Y-139727479D02*
X186404286Y-138727479D01*
X187309047Y-139727479D02*
X186737619Y-139727479D01*
X187023333Y-139727479D02*
X187023333Y-138727479D01*
X187023333Y-138727479D02*
X186928095Y-138870336D01*
X186928095Y-138870336D02*
X186832857Y-138965574D01*
X186832857Y-138965574D02*
X186737619Y-139013193D01*
X187737619Y-139632240D02*
X187785238Y-139679860D01*
X187785238Y-139679860D02*
X187737619Y-139727479D01*
X187737619Y-139727479D02*
X187690000Y-139679860D01*
X187690000Y-139679860D02*
X187737619Y-139632240D01*
X187737619Y-139632240D02*
X187737619Y-139727479D01*
X187737619Y-139108431D02*
X187785238Y-139156050D01*
X187785238Y-139156050D02*
X187737619Y-139203669D01*
X187737619Y-139203669D02*
X187690000Y-139156050D01*
X187690000Y-139156050D02*
X187737619Y-139108431D01*
X187737619Y-139108431D02*
X187737619Y-139203669D01*
X188642380Y-138727479D02*
X188451904Y-138727479D01*
X188451904Y-138727479D02*
X188356666Y-138775098D01*
X188356666Y-138775098D02*
X188309047Y-138822717D01*
X188309047Y-138822717D02*
X188213809Y-138965574D01*
X188213809Y-138965574D02*
X188166190Y-139156050D01*
X188166190Y-139156050D02*
X188166190Y-139537002D01*
X188166190Y-139537002D02*
X188213809Y-139632240D01*
X188213809Y-139632240D02*
X188261428Y-139679860D01*
X188261428Y-139679860D02*
X188356666Y-139727479D01*
X188356666Y-139727479D02*
X188547142Y-139727479D01*
X188547142Y-139727479D02*
X188642380Y-139679860D01*
X188642380Y-139679860D02*
X188689999Y-139632240D01*
X188689999Y-139632240D02*
X188737618Y-139537002D01*
X188737618Y-139537002D02*
X188737618Y-139298907D01*
X188737618Y-139298907D02*
X188689999Y-139203669D01*
X188689999Y-139203669D02*
X188642380Y-139156050D01*
X188642380Y-139156050D02*
X188547142Y-139108431D01*
X188547142Y-139108431D02*
X188356666Y-139108431D01*
X188356666Y-139108431D02*
X188261428Y-139156050D01*
X188261428Y-139156050D02*
X188213809Y-139203669D01*
X188213809Y-139203669D02*
X188166190Y-139298907D01*
X165592381Y-82529860D02*
X165735238Y-82577479D01*
X165735238Y-82577479D02*
X165973333Y-82577479D01*
X165973333Y-82577479D02*
X166068571Y-82529860D01*
X166068571Y-82529860D02*
X166116190Y-82482240D01*
X166116190Y-82482240D02*
X166163809Y-82387002D01*
X166163809Y-82387002D02*
X166163809Y-82291764D01*
X166163809Y-82291764D02*
X166116190Y-82196526D01*
X166116190Y-82196526D02*
X166068571Y-82148907D01*
X166068571Y-82148907D02*
X165973333Y-82101288D01*
X165973333Y-82101288D02*
X165782857Y-82053669D01*
X165782857Y-82053669D02*
X165687619Y-82006050D01*
X165687619Y-82006050D02*
X165640000Y-81958431D01*
X165640000Y-81958431D02*
X165592381Y-81863193D01*
X165592381Y-81863193D02*
X165592381Y-81767955D01*
X165592381Y-81767955D02*
X165640000Y-81672717D01*
X165640000Y-81672717D02*
X165687619Y-81625098D01*
X165687619Y-81625098D02*
X165782857Y-81577479D01*
X165782857Y-81577479D02*
X166020952Y-81577479D01*
X166020952Y-81577479D02*
X166163809Y-81625098D01*
X166497143Y-81577479D02*
X166735238Y-82577479D01*
X166735238Y-82577479D02*
X166925714Y-81863193D01*
X166925714Y-81863193D02*
X167116190Y-82577479D01*
X167116190Y-82577479D02*
X167354286Y-81577479D01*
X168163809Y-81910812D02*
X168163809Y-82577479D01*
X167925714Y-81529860D02*
X167687619Y-82244145D01*
X167687619Y-82244145D02*
X168306666Y-82244145D01*
X168687619Y-82482240D02*
X168735238Y-82529860D01*
X168735238Y-82529860D02*
X168687619Y-82577479D01*
X168687619Y-82577479D02*
X168640000Y-82529860D01*
X168640000Y-82529860D02*
X168687619Y-82482240D01*
X168687619Y-82482240D02*
X168687619Y-82577479D01*
X168687619Y-81958431D02*
X168735238Y-82006050D01*
X168735238Y-82006050D02*
X168687619Y-82053669D01*
X168687619Y-82053669D02*
X168640000Y-82006050D01*
X168640000Y-82006050D02*
X168687619Y-81958431D01*
X168687619Y-81958431D02*
X168687619Y-82053669D01*
X169639999Y-81577479D02*
X169163809Y-81577479D01*
X169163809Y-81577479D02*
X169116190Y-82053669D01*
X169116190Y-82053669D02*
X169163809Y-82006050D01*
X169163809Y-82006050D02*
X169259047Y-81958431D01*
X169259047Y-81958431D02*
X169497142Y-81958431D01*
X169497142Y-81958431D02*
X169592380Y-82006050D01*
X169592380Y-82006050D02*
X169639999Y-82053669D01*
X169639999Y-82053669D02*
X169687618Y-82148907D01*
X169687618Y-82148907D02*
X169687618Y-82387002D01*
X169687618Y-82387002D02*
X169639999Y-82482240D01*
X169639999Y-82482240D02*
X169592380Y-82529860D01*
X169592380Y-82529860D02*
X169497142Y-82577479D01*
X169497142Y-82577479D02*
X169259047Y-82577479D01*
X169259047Y-82577479D02*
X169163809Y-82529860D01*
X169163809Y-82529860D02*
X169116190Y-82482240D01*
X189404881Y-82529860D02*
X189547738Y-82577479D01*
X189547738Y-82577479D02*
X189785833Y-82577479D01*
X189785833Y-82577479D02*
X189881071Y-82529860D01*
X189881071Y-82529860D02*
X189928690Y-82482240D01*
X189928690Y-82482240D02*
X189976309Y-82387002D01*
X189976309Y-82387002D02*
X189976309Y-82291764D01*
X189976309Y-82291764D02*
X189928690Y-82196526D01*
X189928690Y-82196526D02*
X189881071Y-82148907D01*
X189881071Y-82148907D02*
X189785833Y-82101288D01*
X189785833Y-82101288D02*
X189595357Y-82053669D01*
X189595357Y-82053669D02*
X189500119Y-82006050D01*
X189500119Y-82006050D02*
X189452500Y-81958431D01*
X189452500Y-81958431D02*
X189404881Y-81863193D01*
X189404881Y-81863193D02*
X189404881Y-81767955D01*
X189404881Y-81767955D02*
X189452500Y-81672717D01*
X189452500Y-81672717D02*
X189500119Y-81625098D01*
X189500119Y-81625098D02*
X189595357Y-81577479D01*
X189595357Y-81577479D02*
X189833452Y-81577479D01*
X189833452Y-81577479D02*
X189976309Y-81625098D01*
X190309643Y-81577479D02*
X190547738Y-82577479D01*
X190547738Y-82577479D02*
X190738214Y-81863193D01*
X190738214Y-81863193D02*
X190928690Y-82577479D01*
X190928690Y-82577479D02*
X191166786Y-81577479D01*
X191976309Y-81910812D02*
X191976309Y-82577479D01*
X191738214Y-81529860D02*
X191500119Y-82244145D01*
X191500119Y-82244145D02*
X192119166Y-82244145D01*
X192500119Y-82482240D02*
X192547738Y-82529860D01*
X192547738Y-82529860D02*
X192500119Y-82577479D01*
X192500119Y-82577479D02*
X192452500Y-82529860D01*
X192452500Y-82529860D02*
X192500119Y-82482240D01*
X192500119Y-82482240D02*
X192500119Y-82577479D01*
X192500119Y-81958431D02*
X192547738Y-82006050D01*
X192547738Y-82006050D02*
X192500119Y-82053669D01*
X192500119Y-82053669D02*
X192452500Y-82006050D01*
X192452500Y-82006050D02*
X192500119Y-81958431D01*
X192500119Y-81958431D02*
X192500119Y-82053669D01*
X193404880Y-81577479D02*
X193214404Y-81577479D01*
X193214404Y-81577479D02*
X193119166Y-81625098D01*
X193119166Y-81625098D02*
X193071547Y-81672717D01*
X193071547Y-81672717D02*
X192976309Y-81815574D01*
X192976309Y-81815574D02*
X192928690Y-82006050D01*
X192928690Y-82006050D02*
X192928690Y-82387002D01*
X192928690Y-82387002D02*
X192976309Y-82482240D01*
X192976309Y-82482240D02*
X193023928Y-82529860D01*
X193023928Y-82529860D02*
X193119166Y-82577479D01*
X193119166Y-82577479D02*
X193309642Y-82577479D01*
X193309642Y-82577479D02*
X193404880Y-82529860D01*
X193404880Y-82529860D02*
X193452499Y-82482240D01*
X193452499Y-82482240D02*
X193500118Y-82387002D01*
X193500118Y-82387002D02*
X193500118Y-82148907D01*
X193500118Y-82148907D02*
X193452499Y-82053669D01*
X193452499Y-82053669D02*
X193404880Y-82006050D01*
X193404880Y-82006050D02*
X193309642Y-81958431D01*
X193309642Y-81958431D02*
X193119166Y-81958431D01*
X193119166Y-81958431D02*
X193023928Y-82006050D01*
X193023928Y-82006050D02*
X192976309Y-82053669D01*
X192976309Y-82053669D02*
X192928690Y-82148907D01*
X127492381Y-96807200D02*
X127635238Y-96854819D01*
X127635238Y-96854819D02*
X127873333Y-96854819D01*
X127873333Y-96854819D02*
X127968571Y-96807200D01*
X127968571Y-96807200D02*
X128016190Y-96759580D01*
X128016190Y-96759580D02*
X128063809Y-96664342D01*
X128063809Y-96664342D02*
X128063809Y-96569104D01*
X128063809Y-96569104D02*
X128016190Y-96473866D01*
X128016190Y-96473866D02*
X127968571Y-96426247D01*
X127968571Y-96426247D02*
X127873333Y-96378628D01*
X127873333Y-96378628D02*
X127682857Y-96331009D01*
X127682857Y-96331009D02*
X127587619Y-96283390D01*
X127587619Y-96283390D02*
X127540000Y-96235771D01*
X127540000Y-96235771D02*
X127492381Y-96140533D01*
X127492381Y-96140533D02*
X127492381Y-96045295D01*
X127492381Y-96045295D02*
X127540000Y-95950057D01*
X127540000Y-95950057D02*
X127587619Y-95902438D01*
X127587619Y-95902438D02*
X127682857Y-95854819D01*
X127682857Y-95854819D02*
X127920952Y-95854819D01*
X127920952Y-95854819D02*
X128063809Y-95902438D01*
X128397143Y-95854819D02*
X128635238Y-96854819D01*
X128635238Y-96854819D02*
X128825714Y-96140533D01*
X128825714Y-96140533D02*
X129016190Y-96854819D01*
X129016190Y-96854819D02*
X129254286Y-95854819D01*
X129540000Y-95854819D02*
X130159047Y-95854819D01*
X130159047Y-95854819D02*
X129825714Y-96235771D01*
X129825714Y-96235771D02*
X129968571Y-96235771D01*
X129968571Y-96235771D02*
X130063809Y-96283390D01*
X130063809Y-96283390D02*
X130111428Y-96331009D01*
X130111428Y-96331009D02*
X130159047Y-96426247D01*
X130159047Y-96426247D02*
X130159047Y-96664342D01*
X130159047Y-96664342D02*
X130111428Y-96759580D01*
X130111428Y-96759580D02*
X130063809Y-96807200D01*
X130063809Y-96807200D02*
X129968571Y-96854819D01*
X129968571Y-96854819D02*
X129682857Y-96854819D01*
X129682857Y-96854819D02*
X129587619Y-96807200D01*
X129587619Y-96807200D02*
X129540000Y-96759580D01*
X130587619Y-96759580D02*
X130635238Y-96807200D01*
X130635238Y-96807200D02*
X130587619Y-96854819D01*
X130587619Y-96854819D02*
X130540000Y-96807200D01*
X130540000Y-96807200D02*
X130587619Y-96759580D01*
X130587619Y-96759580D02*
X130587619Y-96854819D01*
X130587619Y-96235771D02*
X130635238Y-96283390D01*
X130635238Y-96283390D02*
X130587619Y-96331009D01*
X130587619Y-96331009D02*
X130540000Y-96283390D01*
X130540000Y-96283390D02*
X130587619Y-96235771D01*
X130587619Y-96235771D02*
X130587619Y-96331009D01*
X130968571Y-95854819D02*
X131587618Y-95854819D01*
X131587618Y-95854819D02*
X131254285Y-96235771D01*
X131254285Y-96235771D02*
X131397142Y-96235771D01*
X131397142Y-96235771D02*
X131492380Y-96283390D01*
X131492380Y-96283390D02*
X131539999Y-96331009D01*
X131539999Y-96331009D02*
X131587618Y-96426247D01*
X131587618Y-96426247D02*
X131587618Y-96664342D01*
X131587618Y-96664342D02*
X131539999Y-96759580D01*
X131539999Y-96759580D02*
X131492380Y-96807200D01*
X131492380Y-96807200D02*
X131397142Y-96854819D01*
X131397142Y-96854819D02*
X131111428Y-96854819D01*
X131111428Y-96854819D02*
X131016190Y-96807200D01*
X131016190Y-96807200D02*
X130968571Y-96759580D01*
X165592381Y-101579860D02*
X165735238Y-101627479D01*
X165735238Y-101627479D02*
X165973333Y-101627479D01*
X165973333Y-101627479D02*
X166068571Y-101579860D01*
X166068571Y-101579860D02*
X166116190Y-101532240D01*
X166116190Y-101532240D02*
X166163809Y-101437002D01*
X166163809Y-101437002D02*
X166163809Y-101341764D01*
X166163809Y-101341764D02*
X166116190Y-101246526D01*
X166116190Y-101246526D02*
X166068571Y-101198907D01*
X166068571Y-101198907D02*
X165973333Y-101151288D01*
X165973333Y-101151288D02*
X165782857Y-101103669D01*
X165782857Y-101103669D02*
X165687619Y-101056050D01*
X165687619Y-101056050D02*
X165640000Y-101008431D01*
X165640000Y-101008431D02*
X165592381Y-100913193D01*
X165592381Y-100913193D02*
X165592381Y-100817955D01*
X165592381Y-100817955D02*
X165640000Y-100722717D01*
X165640000Y-100722717D02*
X165687619Y-100675098D01*
X165687619Y-100675098D02*
X165782857Y-100627479D01*
X165782857Y-100627479D02*
X166020952Y-100627479D01*
X166020952Y-100627479D02*
X166163809Y-100675098D01*
X166497143Y-100627479D02*
X166735238Y-101627479D01*
X166735238Y-101627479D02*
X166925714Y-100913193D01*
X166925714Y-100913193D02*
X167116190Y-101627479D01*
X167116190Y-101627479D02*
X167354286Y-100627479D01*
X167640000Y-100627479D02*
X168259047Y-100627479D01*
X168259047Y-100627479D02*
X167925714Y-101008431D01*
X167925714Y-101008431D02*
X168068571Y-101008431D01*
X168068571Y-101008431D02*
X168163809Y-101056050D01*
X168163809Y-101056050D02*
X168211428Y-101103669D01*
X168211428Y-101103669D02*
X168259047Y-101198907D01*
X168259047Y-101198907D02*
X168259047Y-101437002D01*
X168259047Y-101437002D02*
X168211428Y-101532240D01*
X168211428Y-101532240D02*
X168163809Y-101579860D01*
X168163809Y-101579860D02*
X168068571Y-101627479D01*
X168068571Y-101627479D02*
X167782857Y-101627479D01*
X167782857Y-101627479D02*
X167687619Y-101579860D01*
X167687619Y-101579860D02*
X167640000Y-101532240D01*
X168687619Y-101532240D02*
X168735238Y-101579860D01*
X168735238Y-101579860D02*
X168687619Y-101627479D01*
X168687619Y-101627479D02*
X168640000Y-101579860D01*
X168640000Y-101579860D02*
X168687619Y-101532240D01*
X168687619Y-101532240D02*
X168687619Y-101627479D01*
X168687619Y-101008431D02*
X168735238Y-101056050D01*
X168735238Y-101056050D02*
X168687619Y-101103669D01*
X168687619Y-101103669D02*
X168640000Y-101056050D01*
X168640000Y-101056050D02*
X168687619Y-101008431D01*
X168687619Y-101008431D02*
X168687619Y-101103669D01*
X169639999Y-100627479D02*
X169163809Y-100627479D01*
X169163809Y-100627479D02*
X169116190Y-101103669D01*
X169116190Y-101103669D02*
X169163809Y-101056050D01*
X169163809Y-101056050D02*
X169259047Y-101008431D01*
X169259047Y-101008431D02*
X169497142Y-101008431D01*
X169497142Y-101008431D02*
X169592380Y-101056050D01*
X169592380Y-101056050D02*
X169639999Y-101103669D01*
X169639999Y-101103669D02*
X169687618Y-101198907D01*
X169687618Y-101198907D02*
X169687618Y-101437002D01*
X169687618Y-101437002D02*
X169639999Y-101532240D01*
X169639999Y-101532240D02*
X169592380Y-101579860D01*
X169592380Y-101579860D02*
X169497142Y-101627479D01*
X169497142Y-101627479D02*
X169259047Y-101627479D01*
X169259047Y-101627479D02*
X169163809Y-101579860D01*
X169163809Y-101579860D02*
X169116190Y-101532240D01*
X165592381Y-139679860D02*
X165735238Y-139727479D01*
X165735238Y-139727479D02*
X165973333Y-139727479D01*
X165973333Y-139727479D02*
X166068571Y-139679860D01*
X166068571Y-139679860D02*
X166116190Y-139632240D01*
X166116190Y-139632240D02*
X166163809Y-139537002D01*
X166163809Y-139537002D02*
X166163809Y-139441764D01*
X166163809Y-139441764D02*
X166116190Y-139346526D01*
X166116190Y-139346526D02*
X166068571Y-139298907D01*
X166068571Y-139298907D02*
X165973333Y-139251288D01*
X165973333Y-139251288D02*
X165782857Y-139203669D01*
X165782857Y-139203669D02*
X165687619Y-139156050D01*
X165687619Y-139156050D02*
X165640000Y-139108431D01*
X165640000Y-139108431D02*
X165592381Y-139013193D01*
X165592381Y-139013193D02*
X165592381Y-138917955D01*
X165592381Y-138917955D02*
X165640000Y-138822717D01*
X165640000Y-138822717D02*
X165687619Y-138775098D01*
X165687619Y-138775098D02*
X165782857Y-138727479D01*
X165782857Y-138727479D02*
X166020952Y-138727479D01*
X166020952Y-138727479D02*
X166163809Y-138775098D01*
X166497143Y-138727479D02*
X166735238Y-139727479D01*
X166735238Y-139727479D02*
X166925714Y-139013193D01*
X166925714Y-139013193D02*
X167116190Y-139727479D01*
X167116190Y-139727479D02*
X167354286Y-138727479D01*
X168259047Y-139727479D02*
X167687619Y-139727479D01*
X167973333Y-139727479D02*
X167973333Y-138727479D01*
X167973333Y-138727479D02*
X167878095Y-138870336D01*
X167878095Y-138870336D02*
X167782857Y-138965574D01*
X167782857Y-138965574D02*
X167687619Y-139013193D01*
X168687619Y-139632240D02*
X168735238Y-139679860D01*
X168735238Y-139679860D02*
X168687619Y-139727479D01*
X168687619Y-139727479D02*
X168640000Y-139679860D01*
X168640000Y-139679860D02*
X168687619Y-139632240D01*
X168687619Y-139632240D02*
X168687619Y-139727479D01*
X168687619Y-139108431D02*
X168735238Y-139156050D01*
X168735238Y-139156050D02*
X168687619Y-139203669D01*
X168687619Y-139203669D02*
X168640000Y-139156050D01*
X168640000Y-139156050D02*
X168687619Y-139108431D01*
X168687619Y-139108431D02*
X168687619Y-139203669D01*
X169639999Y-138727479D02*
X169163809Y-138727479D01*
X169163809Y-138727479D02*
X169116190Y-139203669D01*
X169116190Y-139203669D02*
X169163809Y-139156050D01*
X169163809Y-139156050D02*
X169259047Y-139108431D01*
X169259047Y-139108431D02*
X169497142Y-139108431D01*
X169497142Y-139108431D02*
X169592380Y-139156050D01*
X169592380Y-139156050D02*
X169639999Y-139203669D01*
X169639999Y-139203669D02*
X169687618Y-139298907D01*
X169687618Y-139298907D02*
X169687618Y-139537002D01*
X169687618Y-139537002D02*
X169639999Y-139632240D01*
X169639999Y-139632240D02*
X169592380Y-139679860D01*
X169592380Y-139679860D02*
X169497142Y-139727479D01*
X169497142Y-139727479D02*
X169259047Y-139727479D01*
X169259047Y-139727479D02*
X169163809Y-139679860D01*
X169163809Y-139679860D02*
X169116190Y-139632240D01*
X146542381Y-117454860D02*
X146685238Y-117502479D01*
X146685238Y-117502479D02*
X146923333Y-117502479D01*
X146923333Y-117502479D02*
X147018571Y-117454860D01*
X147018571Y-117454860D02*
X147066190Y-117407240D01*
X147066190Y-117407240D02*
X147113809Y-117312002D01*
X147113809Y-117312002D02*
X147113809Y-117216764D01*
X147113809Y-117216764D02*
X147066190Y-117121526D01*
X147066190Y-117121526D02*
X147018571Y-117073907D01*
X147018571Y-117073907D02*
X146923333Y-117026288D01*
X146923333Y-117026288D02*
X146732857Y-116978669D01*
X146732857Y-116978669D02*
X146637619Y-116931050D01*
X146637619Y-116931050D02*
X146590000Y-116883431D01*
X146590000Y-116883431D02*
X146542381Y-116788193D01*
X146542381Y-116788193D02*
X146542381Y-116692955D01*
X146542381Y-116692955D02*
X146590000Y-116597717D01*
X146590000Y-116597717D02*
X146637619Y-116550098D01*
X146637619Y-116550098D02*
X146732857Y-116502479D01*
X146732857Y-116502479D02*
X146970952Y-116502479D01*
X146970952Y-116502479D02*
X147113809Y-116550098D01*
X147447143Y-116502479D02*
X147685238Y-117502479D01*
X147685238Y-117502479D02*
X147875714Y-116788193D01*
X147875714Y-116788193D02*
X148066190Y-117502479D01*
X148066190Y-117502479D02*
X148304286Y-116502479D01*
X148637619Y-116597717D02*
X148685238Y-116550098D01*
X148685238Y-116550098D02*
X148780476Y-116502479D01*
X148780476Y-116502479D02*
X149018571Y-116502479D01*
X149018571Y-116502479D02*
X149113809Y-116550098D01*
X149113809Y-116550098D02*
X149161428Y-116597717D01*
X149161428Y-116597717D02*
X149209047Y-116692955D01*
X149209047Y-116692955D02*
X149209047Y-116788193D01*
X149209047Y-116788193D02*
X149161428Y-116931050D01*
X149161428Y-116931050D02*
X148590000Y-117502479D01*
X148590000Y-117502479D02*
X149209047Y-117502479D01*
X149637619Y-117407240D02*
X149685238Y-117454860D01*
X149685238Y-117454860D02*
X149637619Y-117502479D01*
X149637619Y-117502479D02*
X149590000Y-117454860D01*
X149590000Y-117454860D02*
X149637619Y-117407240D01*
X149637619Y-117407240D02*
X149637619Y-117502479D01*
X149637619Y-116883431D02*
X149685238Y-116931050D01*
X149685238Y-116931050D02*
X149637619Y-116978669D01*
X149637619Y-116978669D02*
X149590000Y-116931050D01*
X149590000Y-116931050D02*
X149637619Y-116883431D01*
X149637619Y-116883431D02*
X149637619Y-116978669D01*
X150542380Y-116835812D02*
X150542380Y-117502479D01*
X150304285Y-116454860D02*
X150066190Y-117169145D01*
X150066190Y-117169145D02*
X150685237Y-117169145D01*
X108442381Y-117454860D02*
X108585238Y-117502479D01*
X108585238Y-117502479D02*
X108823333Y-117502479D01*
X108823333Y-117502479D02*
X108918571Y-117454860D01*
X108918571Y-117454860D02*
X108966190Y-117407240D01*
X108966190Y-117407240D02*
X109013809Y-117312002D01*
X109013809Y-117312002D02*
X109013809Y-117216764D01*
X109013809Y-117216764D02*
X108966190Y-117121526D01*
X108966190Y-117121526D02*
X108918571Y-117073907D01*
X108918571Y-117073907D02*
X108823333Y-117026288D01*
X108823333Y-117026288D02*
X108632857Y-116978669D01*
X108632857Y-116978669D02*
X108537619Y-116931050D01*
X108537619Y-116931050D02*
X108490000Y-116883431D01*
X108490000Y-116883431D02*
X108442381Y-116788193D01*
X108442381Y-116788193D02*
X108442381Y-116692955D01*
X108442381Y-116692955D02*
X108490000Y-116597717D01*
X108490000Y-116597717D02*
X108537619Y-116550098D01*
X108537619Y-116550098D02*
X108632857Y-116502479D01*
X108632857Y-116502479D02*
X108870952Y-116502479D01*
X108870952Y-116502479D02*
X109013809Y-116550098D01*
X109347143Y-116502479D02*
X109585238Y-117502479D01*
X109585238Y-117502479D02*
X109775714Y-116788193D01*
X109775714Y-116788193D02*
X109966190Y-117502479D01*
X109966190Y-117502479D02*
X110204286Y-116502479D01*
X110537619Y-116597717D02*
X110585238Y-116550098D01*
X110585238Y-116550098D02*
X110680476Y-116502479D01*
X110680476Y-116502479D02*
X110918571Y-116502479D01*
X110918571Y-116502479D02*
X111013809Y-116550098D01*
X111013809Y-116550098D02*
X111061428Y-116597717D01*
X111061428Y-116597717D02*
X111109047Y-116692955D01*
X111109047Y-116692955D02*
X111109047Y-116788193D01*
X111109047Y-116788193D02*
X111061428Y-116931050D01*
X111061428Y-116931050D02*
X110490000Y-117502479D01*
X110490000Y-117502479D02*
X111109047Y-117502479D01*
X111537619Y-117407240D02*
X111585238Y-117454860D01*
X111585238Y-117454860D02*
X111537619Y-117502479D01*
X111537619Y-117502479D02*
X111490000Y-117454860D01*
X111490000Y-117454860D02*
X111537619Y-117407240D01*
X111537619Y-117407240D02*
X111537619Y-117502479D01*
X111537619Y-116883431D02*
X111585238Y-116931050D01*
X111585238Y-116931050D02*
X111537619Y-116978669D01*
X111537619Y-116978669D02*
X111490000Y-116931050D01*
X111490000Y-116931050D02*
X111537619Y-116883431D01*
X111537619Y-116883431D02*
X111537619Y-116978669D01*
X111966190Y-116597717D02*
X112013809Y-116550098D01*
X112013809Y-116550098D02*
X112109047Y-116502479D01*
X112109047Y-116502479D02*
X112347142Y-116502479D01*
X112347142Y-116502479D02*
X112442380Y-116550098D01*
X112442380Y-116550098D02*
X112489999Y-116597717D01*
X112489999Y-116597717D02*
X112537618Y-116692955D01*
X112537618Y-116692955D02*
X112537618Y-116788193D01*
X112537618Y-116788193D02*
X112489999Y-116931050D01*
X112489999Y-116931050D02*
X111918571Y-117502479D01*
X111918571Y-117502479D02*
X112537618Y-117502479D01*
X127492381Y-115857200D02*
X127635238Y-115904819D01*
X127635238Y-115904819D02*
X127873333Y-115904819D01*
X127873333Y-115904819D02*
X127968571Y-115857200D01*
X127968571Y-115857200D02*
X128016190Y-115809580D01*
X128016190Y-115809580D02*
X128063809Y-115714342D01*
X128063809Y-115714342D02*
X128063809Y-115619104D01*
X128063809Y-115619104D02*
X128016190Y-115523866D01*
X128016190Y-115523866D02*
X127968571Y-115476247D01*
X127968571Y-115476247D02*
X127873333Y-115428628D01*
X127873333Y-115428628D02*
X127682857Y-115381009D01*
X127682857Y-115381009D02*
X127587619Y-115333390D01*
X127587619Y-115333390D02*
X127540000Y-115285771D01*
X127540000Y-115285771D02*
X127492381Y-115190533D01*
X127492381Y-115190533D02*
X127492381Y-115095295D01*
X127492381Y-115095295D02*
X127540000Y-115000057D01*
X127540000Y-115000057D02*
X127587619Y-114952438D01*
X127587619Y-114952438D02*
X127682857Y-114904819D01*
X127682857Y-114904819D02*
X127920952Y-114904819D01*
X127920952Y-114904819D02*
X128063809Y-114952438D01*
X128397143Y-114904819D02*
X128635238Y-115904819D01*
X128635238Y-115904819D02*
X128825714Y-115190533D01*
X128825714Y-115190533D02*
X129016190Y-115904819D01*
X129016190Y-115904819D02*
X129254286Y-114904819D01*
X129587619Y-115000057D02*
X129635238Y-114952438D01*
X129635238Y-114952438D02*
X129730476Y-114904819D01*
X129730476Y-114904819D02*
X129968571Y-114904819D01*
X129968571Y-114904819D02*
X130063809Y-114952438D01*
X130063809Y-114952438D02*
X130111428Y-115000057D01*
X130111428Y-115000057D02*
X130159047Y-115095295D01*
X130159047Y-115095295D02*
X130159047Y-115190533D01*
X130159047Y-115190533D02*
X130111428Y-115333390D01*
X130111428Y-115333390D02*
X129540000Y-115904819D01*
X129540000Y-115904819D02*
X130159047Y-115904819D01*
X130587619Y-115809580D02*
X130635238Y-115857200D01*
X130635238Y-115857200D02*
X130587619Y-115904819D01*
X130587619Y-115904819D02*
X130540000Y-115857200D01*
X130540000Y-115857200D02*
X130587619Y-115809580D01*
X130587619Y-115809580D02*
X130587619Y-115904819D01*
X130587619Y-115285771D02*
X130635238Y-115333390D01*
X130635238Y-115333390D02*
X130587619Y-115381009D01*
X130587619Y-115381009D02*
X130540000Y-115333390D01*
X130540000Y-115333390D02*
X130587619Y-115285771D01*
X130587619Y-115285771D02*
X130587619Y-115381009D01*
X130968571Y-114904819D02*
X131587618Y-114904819D01*
X131587618Y-114904819D02*
X131254285Y-115285771D01*
X131254285Y-115285771D02*
X131397142Y-115285771D01*
X131397142Y-115285771D02*
X131492380Y-115333390D01*
X131492380Y-115333390D02*
X131539999Y-115381009D01*
X131539999Y-115381009D02*
X131587618Y-115476247D01*
X131587618Y-115476247D02*
X131587618Y-115714342D01*
X131587618Y-115714342D02*
X131539999Y-115809580D01*
X131539999Y-115809580D02*
X131492380Y-115857200D01*
X131492380Y-115857200D02*
X131397142Y-115904819D01*
X131397142Y-115904819D02*
X131111428Y-115904819D01*
X131111428Y-115904819D02*
X131016190Y-115857200D01*
X131016190Y-115857200D02*
X130968571Y-115809580D01*
X108442381Y-98404860D02*
X108585238Y-98452479D01*
X108585238Y-98452479D02*
X108823333Y-98452479D01*
X108823333Y-98452479D02*
X108918571Y-98404860D01*
X108918571Y-98404860D02*
X108966190Y-98357240D01*
X108966190Y-98357240D02*
X109013809Y-98262002D01*
X109013809Y-98262002D02*
X109013809Y-98166764D01*
X109013809Y-98166764D02*
X108966190Y-98071526D01*
X108966190Y-98071526D02*
X108918571Y-98023907D01*
X108918571Y-98023907D02*
X108823333Y-97976288D01*
X108823333Y-97976288D02*
X108632857Y-97928669D01*
X108632857Y-97928669D02*
X108537619Y-97881050D01*
X108537619Y-97881050D02*
X108490000Y-97833431D01*
X108490000Y-97833431D02*
X108442381Y-97738193D01*
X108442381Y-97738193D02*
X108442381Y-97642955D01*
X108442381Y-97642955D02*
X108490000Y-97547717D01*
X108490000Y-97547717D02*
X108537619Y-97500098D01*
X108537619Y-97500098D02*
X108632857Y-97452479D01*
X108632857Y-97452479D02*
X108870952Y-97452479D01*
X108870952Y-97452479D02*
X109013809Y-97500098D01*
X109347143Y-97452479D02*
X109585238Y-98452479D01*
X109585238Y-98452479D02*
X109775714Y-97738193D01*
X109775714Y-97738193D02*
X109966190Y-98452479D01*
X109966190Y-98452479D02*
X110204286Y-97452479D01*
X110490000Y-97452479D02*
X111109047Y-97452479D01*
X111109047Y-97452479D02*
X110775714Y-97833431D01*
X110775714Y-97833431D02*
X110918571Y-97833431D01*
X110918571Y-97833431D02*
X111013809Y-97881050D01*
X111013809Y-97881050D02*
X111061428Y-97928669D01*
X111061428Y-97928669D02*
X111109047Y-98023907D01*
X111109047Y-98023907D02*
X111109047Y-98262002D01*
X111109047Y-98262002D02*
X111061428Y-98357240D01*
X111061428Y-98357240D02*
X111013809Y-98404860D01*
X111013809Y-98404860D02*
X110918571Y-98452479D01*
X110918571Y-98452479D02*
X110632857Y-98452479D01*
X110632857Y-98452479D02*
X110537619Y-98404860D01*
X110537619Y-98404860D02*
X110490000Y-98357240D01*
X111537619Y-98357240D02*
X111585238Y-98404860D01*
X111585238Y-98404860D02*
X111537619Y-98452479D01*
X111537619Y-98452479D02*
X111490000Y-98404860D01*
X111490000Y-98404860D02*
X111537619Y-98357240D01*
X111537619Y-98357240D02*
X111537619Y-98452479D01*
X111537619Y-97833431D02*
X111585238Y-97881050D01*
X111585238Y-97881050D02*
X111537619Y-97928669D01*
X111537619Y-97928669D02*
X111490000Y-97881050D01*
X111490000Y-97881050D02*
X111537619Y-97833431D01*
X111537619Y-97833431D02*
X111537619Y-97928669D01*
X111966190Y-97547717D02*
X112013809Y-97500098D01*
X112013809Y-97500098D02*
X112109047Y-97452479D01*
X112109047Y-97452479D02*
X112347142Y-97452479D01*
X112347142Y-97452479D02*
X112442380Y-97500098D01*
X112442380Y-97500098D02*
X112489999Y-97547717D01*
X112489999Y-97547717D02*
X112537618Y-97642955D01*
X112537618Y-97642955D02*
X112537618Y-97738193D01*
X112537618Y-97738193D02*
X112489999Y-97881050D01*
X112489999Y-97881050D02*
X111918571Y-98452479D01*
X111918571Y-98452479D02*
X112537618Y-98452479D01*
X70342381Y-61577400D02*
X70485238Y-61625019D01*
X70485238Y-61625019D02*
X70723333Y-61625019D01*
X70723333Y-61625019D02*
X70818571Y-61577400D01*
X70818571Y-61577400D02*
X70866190Y-61529780D01*
X70866190Y-61529780D02*
X70913809Y-61434542D01*
X70913809Y-61434542D02*
X70913809Y-61339304D01*
X70913809Y-61339304D02*
X70866190Y-61244066D01*
X70866190Y-61244066D02*
X70818571Y-61196447D01*
X70818571Y-61196447D02*
X70723333Y-61148828D01*
X70723333Y-61148828D02*
X70532857Y-61101209D01*
X70532857Y-61101209D02*
X70437619Y-61053590D01*
X70437619Y-61053590D02*
X70390000Y-61005971D01*
X70390000Y-61005971D02*
X70342381Y-60910733D01*
X70342381Y-60910733D02*
X70342381Y-60815495D01*
X70342381Y-60815495D02*
X70390000Y-60720257D01*
X70390000Y-60720257D02*
X70437619Y-60672638D01*
X70437619Y-60672638D02*
X70532857Y-60625019D01*
X70532857Y-60625019D02*
X70770952Y-60625019D01*
X70770952Y-60625019D02*
X70913809Y-60672638D01*
X71247143Y-60625019D02*
X71485238Y-61625019D01*
X71485238Y-61625019D02*
X71675714Y-60910733D01*
X71675714Y-60910733D02*
X71866190Y-61625019D01*
X71866190Y-61625019D02*
X72104286Y-60625019D01*
X72961428Y-60625019D02*
X72485238Y-60625019D01*
X72485238Y-60625019D02*
X72437619Y-61101209D01*
X72437619Y-61101209D02*
X72485238Y-61053590D01*
X72485238Y-61053590D02*
X72580476Y-61005971D01*
X72580476Y-61005971D02*
X72818571Y-61005971D01*
X72818571Y-61005971D02*
X72913809Y-61053590D01*
X72913809Y-61053590D02*
X72961428Y-61101209D01*
X72961428Y-61101209D02*
X73009047Y-61196447D01*
X73009047Y-61196447D02*
X73009047Y-61434542D01*
X73009047Y-61434542D02*
X72961428Y-61529780D01*
X72961428Y-61529780D02*
X72913809Y-61577400D01*
X72913809Y-61577400D02*
X72818571Y-61625019D01*
X72818571Y-61625019D02*
X72580476Y-61625019D01*
X72580476Y-61625019D02*
X72485238Y-61577400D01*
X72485238Y-61577400D02*
X72437619Y-61529780D01*
X73437619Y-61529780D02*
X73485238Y-61577400D01*
X73485238Y-61577400D02*
X73437619Y-61625019D01*
X73437619Y-61625019D02*
X73390000Y-61577400D01*
X73390000Y-61577400D02*
X73437619Y-61529780D01*
X73437619Y-61529780D02*
X73437619Y-61625019D01*
X73437619Y-61005971D02*
X73485238Y-61053590D01*
X73485238Y-61053590D02*
X73437619Y-61101209D01*
X73437619Y-61101209D02*
X73390000Y-61053590D01*
X73390000Y-61053590D02*
X73437619Y-61005971D01*
X73437619Y-61005971D02*
X73437619Y-61101209D01*
X74104285Y-60625019D02*
X74199523Y-60625019D01*
X74199523Y-60625019D02*
X74294761Y-60672638D01*
X74294761Y-60672638D02*
X74342380Y-60720257D01*
X74342380Y-60720257D02*
X74389999Y-60815495D01*
X74389999Y-60815495D02*
X74437618Y-61005971D01*
X74437618Y-61005971D02*
X74437618Y-61244066D01*
X74437618Y-61244066D02*
X74389999Y-61434542D01*
X74389999Y-61434542D02*
X74342380Y-61529780D01*
X74342380Y-61529780D02*
X74294761Y-61577400D01*
X74294761Y-61577400D02*
X74199523Y-61625019D01*
X74199523Y-61625019D02*
X74104285Y-61625019D01*
X74104285Y-61625019D02*
X74009047Y-61577400D01*
X74009047Y-61577400D02*
X73961428Y-61529780D01*
X73961428Y-61529780D02*
X73913809Y-61434542D01*
X73913809Y-61434542D02*
X73866190Y-61244066D01*
X73866190Y-61244066D02*
X73866190Y-61005971D01*
X73866190Y-61005971D02*
X73913809Y-60815495D01*
X73913809Y-60815495D02*
X73961428Y-60720257D01*
X73961428Y-60720257D02*
X74009047Y-60672638D01*
X74009047Y-60672638D02*
X74104285Y-60625019D01*
D12*
%TO.C,D30*%
X159770000Y-76600000D02*
X160420000Y-76600000D01*
X161020000Y-75480000D02*
X161020000Y-77720000D01*
X161140000Y-75480000D02*
X161140000Y-77720000D01*
X161260000Y-75480000D02*
X161260000Y-77720000D01*
X165310000Y-76600000D02*
X164660000Y-76600000D01*
X160420000Y-75480000D02*
X164660000Y-75480000D01*
X164660000Y-77720000D01*
X160420000Y-77720000D01*
X160420000Y-75480000D01*
%TO.C,D32*%
X82650000Y-53450000D02*
X82000000Y-53450000D01*
X81400000Y-54570000D02*
X81400000Y-52330000D01*
X81280000Y-54570000D02*
X81280000Y-52330000D01*
X81160000Y-54570000D02*
X81160000Y-52330000D01*
X77110000Y-53450000D02*
X77760000Y-53450000D01*
X82000000Y-54570000D02*
X77760000Y-54570000D01*
X77760000Y-52330000D01*
X82000000Y-52330000D01*
X82000000Y-54570000D01*
%TO.C,D22*%
X155780000Y-92600000D02*
X155130000Y-92600000D01*
X154530000Y-93720000D02*
X154530000Y-91480000D01*
X154410000Y-93720000D02*
X154410000Y-91480000D01*
X154290000Y-93720000D02*
X154290000Y-91480000D01*
X150240000Y-92600000D02*
X150890000Y-92600000D01*
X155130000Y-93720000D02*
X150890000Y-93720000D01*
X150890000Y-91480000D01*
X155130000Y-91480000D01*
X155130000Y-93720000D01*
%TO.C,D36*%
X155780000Y-54090000D02*
X155130000Y-54090000D01*
X154530000Y-55210000D02*
X154530000Y-52970000D01*
X154410000Y-55210000D02*
X154410000Y-52970000D01*
X154290000Y-55210000D02*
X154290000Y-52970000D01*
X150240000Y-54090000D02*
X150890000Y-54090000D01*
X155130000Y-55210000D02*
X150890000Y-55210000D01*
X150890000Y-52970000D01*
X155130000Y-52970000D01*
X155130000Y-55210000D01*
%TO.C,D20*%
X102760000Y-92970000D02*
X103410000Y-92970000D01*
X104010000Y-91850000D02*
X104010000Y-94090000D01*
X104130000Y-91850000D02*
X104130000Y-94090000D01*
X104250000Y-91850000D02*
X104250000Y-94090000D01*
X108300000Y-92970000D02*
X107650000Y-92970000D01*
X103410000Y-91850000D02*
X107650000Y-91850000D01*
X107650000Y-94090000D01*
X103410000Y-94090000D01*
X103410000Y-91850000D01*
%TO.C,D1*%
X44110653Y-141150473D02*
X43835951Y-140561373D01*
X42567315Y-140490921D02*
X44597445Y-139544256D01*
X42516601Y-140382164D02*
X44546731Y-139435499D01*
X42465887Y-140273407D02*
X44496017Y-139326742D01*
X41769348Y-136129528D02*
X42044050Y-136718628D01*
X44851016Y-140088040D02*
X42820886Y-141034705D01*
X41028985Y-137191960D01*
X43059114Y-136245295D01*
X44851016Y-140088040D01*
%TO.C,D14*%
X102760000Y-111330000D02*
X103410000Y-111330000D01*
X104010000Y-110210000D02*
X104010000Y-112450000D01*
X104130000Y-110210000D02*
X104130000Y-112450000D01*
X104250000Y-110210000D02*
X104250000Y-112450000D01*
X108300000Y-111330000D02*
X107650000Y-111330000D01*
X103410000Y-110210000D02*
X107650000Y-110210000D01*
X107650000Y-112450000D01*
X103410000Y-112450000D01*
X103410000Y-110210000D01*
%TO.C,D23*%
X159770000Y-95760000D02*
X160420000Y-95760000D01*
X161020000Y-94640000D02*
X161020000Y-96880000D01*
X161140000Y-94640000D02*
X161140000Y-96880000D01*
X161260000Y-94640000D02*
X161260000Y-96880000D01*
X165310000Y-95760000D02*
X164660000Y-95760000D01*
X160420000Y-94640000D02*
X164660000Y-94640000D01*
X164660000Y-96880000D01*
X160420000Y-96880000D01*
X160420000Y-94640000D01*
%TO.C,D4*%
X62160653Y-133250473D02*
X61885951Y-132661373D01*
X60617315Y-132590921D02*
X62647445Y-131644256D01*
X60566601Y-132482164D02*
X62596731Y-131535499D01*
X60515887Y-132373407D02*
X62546017Y-131426742D01*
X59819348Y-128229528D02*
X60094050Y-128818628D01*
X62901016Y-132188040D02*
X60870886Y-133134705D01*
X59078985Y-129291960D01*
X61109114Y-128345295D01*
X62901016Y-132188040D01*
%TO.C,D28*%
X121590000Y-71760000D02*
X122240000Y-71760000D01*
X122840000Y-70640000D02*
X122840000Y-72880000D01*
X122960000Y-70640000D02*
X122960000Y-72880000D01*
X123080000Y-70640000D02*
X123080000Y-72880000D01*
X127130000Y-71760000D02*
X126480000Y-71760000D01*
X122240000Y-70640000D02*
X126480000Y-70640000D01*
X126480000Y-72880000D01*
X122240000Y-72880000D01*
X122240000Y-70640000D01*
%TO.C,D11*%
X182770000Y-133330000D02*
X183420000Y-133330000D01*
X184020000Y-132210000D02*
X184020000Y-134450000D01*
X184140000Y-132210000D02*
X184140000Y-134450000D01*
X184260000Y-132210000D02*
X184260000Y-134450000D01*
X188310000Y-133330000D02*
X187660000Y-133330000D01*
X183420000Y-132210000D02*
X187660000Y-132210000D01*
X187660000Y-134450000D01*
X183420000Y-134450000D01*
X183420000Y-132210000D01*
%TO.C,D15*%
X121590000Y-110260000D02*
X122240000Y-110260000D01*
X122840000Y-109140000D02*
X122840000Y-111380000D01*
X122960000Y-109140000D02*
X122960000Y-111380000D01*
X123080000Y-109140000D02*
X123080000Y-111380000D01*
X127130000Y-110260000D02*
X126480000Y-110260000D01*
X122240000Y-109140000D02*
X126480000Y-109140000D01*
X126480000Y-111380000D01*
X122240000Y-111380000D01*
X122240000Y-109140000D01*
%TO.C,D19*%
X83780000Y-93710000D02*
X84430000Y-93710000D01*
X85030000Y-92590000D02*
X85030000Y-94830000D01*
X85150000Y-92590000D02*
X85150000Y-94830000D01*
X85270000Y-92590000D02*
X85270000Y-94830000D01*
X89320000Y-93710000D02*
X88670000Y-93710000D01*
X84430000Y-92590000D02*
X88670000Y-92590000D01*
X88670000Y-94830000D01*
X84430000Y-94830000D01*
X84430000Y-92590000D01*
%TO.C,J1*%
X88811000Y-39708000D02*
X80811000Y-39708000D01*
X88811000Y-30408000D02*
X88811000Y-39708000D01*
D10*
X88111000Y-36458000D02*
X84111000Y-36458000D01*
X88111000Y-30408000D02*
X88111000Y-36458000D01*
X84111000Y-36458000D02*
X84111000Y-30458000D01*
D12*
X80811000Y-39708000D02*
X80811000Y-30408000D01*
X80811000Y-30408000D02*
X88811000Y-30408000D01*
%TO.C,D17*%
X159770000Y-114540000D02*
X160420000Y-114540000D01*
X161020000Y-113420000D02*
X161020000Y-115660000D01*
X161140000Y-113420000D02*
X161140000Y-115660000D01*
X161260000Y-113420000D02*
X161260000Y-115660000D01*
X165310000Y-114540000D02*
X164660000Y-114540000D01*
X160420000Y-113420000D02*
X164660000Y-113420000D01*
X164660000Y-115660000D01*
X160420000Y-115660000D01*
X160420000Y-113420000D01*
%TO.C,D5*%
X61170473Y-151349348D02*
X60581373Y-151624050D01*
X60510921Y-152892686D02*
X59564256Y-150862556D01*
X60402164Y-152943400D02*
X59455499Y-150913270D01*
X60293407Y-152994114D02*
X59346742Y-150963984D01*
X56149528Y-153690653D02*
X56738628Y-153415951D01*
X61054705Y-152639115D02*
X57211960Y-154431016D01*
X56265295Y-152400887D01*
X60108040Y-150608985D01*
X61054705Y-152639115D01*
%TO.C,D26*%
X83780000Y-74550000D02*
X84430000Y-74550000D01*
X85030000Y-73430000D02*
X85030000Y-75670000D01*
X85150000Y-73430000D02*
X85150000Y-75670000D01*
X85270000Y-73430000D02*
X85270000Y-75670000D01*
X89320000Y-74550000D02*
X88670000Y-74550000D01*
X84430000Y-73430000D02*
X88670000Y-73430000D01*
X88670000Y-75670000D01*
X84430000Y-75670000D01*
X84430000Y-73430000D01*
%TO.C,D24*%
X182770000Y-95940000D02*
X183420000Y-95940000D01*
X184020000Y-94820000D02*
X184020000Y-97060000D01*
X184140000Y-94820000D02*
X184140000Y-97060000D01*
X184260000Y-94820000D02*
X184260000Y-97060000D01*
X188310000Y-95940000D02*
X187660000Y-95940000D01*
X183420000Y-94820000D02*
X187660000Y-94820000D01*
X187660000Y-97060000D01*
X183420000Y-97060000D01*
X183420000Y-94820000D01*
%TO.C,D31*%
X182770000Y-76790000D02*
X183420000Y-76790000D01*
X184020000Y-75670000D02*
X184020000Y-77910000D01*
X184140000Y-75670000D02*
X184140000Y-77910000D01*
X184260000Y-75670000D02*
X184260000Y-77910000D01*
X188310000Y-76790000D02*
X187660000Y-76790000D01*
X183420000Y-75670000D02*
X187660000Y-75670000D01*
X187660000Y-77910000D01*
X183420000Y-77910000D01*
X183420000Y-75670000D01*
%TO.C,D2*%
X59080473Y-147259348D02*
X58491373Y-147534050D01*
X58420921Y-148802686D02*
X57474256Y-146772556D01*
X58312164Y-148853400D02*
X57365499Y-146823270D01*
X58203407Y-148904114D02*
X57256742Y-146873984D01*
X54059528Y-149600653D02*
X54648628Y-149325951D01*
X58964705Y-148549115D02*
X55121960Y-150341016D01*
X54175295Y-148310887D01*
X58018040Y-146518985D01*
X58964705Y-148549115D01*
%TO.C,D7*%
X102760000Y-130520000D02*
X103410000Y-130520000D01*
X104010000Y-129400000D02*
X104010000Y-131640000D01*
X104130000Y-129400000D02*
X104130000Y-131640000D01*
X104250000Y-129400000D02*
X104250000Y-131640000D01*
X108300000Y-130520000D02*
X107650000Y-130520000D01*
X103410000Y-129400000D02*
X107650000Y-129400000D01*
X107650000Y-131640000D01*
X103410000Y-131640000D01*
X103410000Y-129400000D01*
%TO.C,D13*%
X83780000Y-112830000D02*
X84430000Y-112830000D01*
X85030000Y-111710000D02*
X85030000Y-113950000D01*
X85150000Y-111710000D02*
X85150000Y-113950000D01*
X85270000Y-111710000D02*
X85270000Y-113950000D01*
X89320000Y-112830000D02*
X88670000Y-112830000D01*
X84430000Y-111710000D02*
X88670000Y-111710000D01*
X88670000Y-113950000D01*
X84430000Y-113950000D01*
X84430000Y-111710000D01*
%TO.C,D37*%
X159770000Y-57810000D02*
X160420000Y-57810000D01*
X161020000Y-56690000D02*
X161020000Y-58930000D01*
X161140000Y-56690000D02*
X161140000Y-58930000D01*
X161260000Y-56690000D02*
X161260000Y-58930000D01*
X165310000Y-57810000D02*
X164660000Y-57810000D01*
X160420000Y-56690000D02*
X164660000Y-56690000D01*
X164660000Y-58930000D01*
X160420000Y-58930000D01*
X160420000Y-56690000D01*
%TO.C,D34*%
X102760000Y-54090000D02*
X103410000Y-54090000D01*
X104010000Y-52970000D02*
X104010000Y-55210000D01*
X104130000Y-52970000D02*
X104130000Y-55210000D01*
X104250000Y-52970000D02*
X104250000Y-55210000D01*
X108300000Y-54090000D02*
X107650000Y-54090000D01*
X103410000Y-52970000D02*
X107650000Y-52970000D01*
X107650000Y-55210000D01*
X103410000Y-55210000D01*
X103410000Y-52970000D01*
%TO.C,SW1*%
D10*
X187952500Y-63505200D02*
X194952500Y-63505200D01*
X194952500Y-70505200D01*
X187952500Y-70505200D01*
X187952500Y-63505200D01*
D12*
%TO.C,D16*%
X155780000Y-111570000D02*
X155130000Y-111570000D01*
X154530000Y-112690000D02*
X154530000Y-110450000D01*
X154410000Y-112690000D02*
X154410000Y-110450000D01*
X154290000Y-112690000D02*
X154290000Y-110450000D01*
X150240000Y-111570000D02*
X150890000Y-111570000D01*
X155130000Y-112690000D02*
X150890000Y-112690000D01*
X150890000Y-110450000D01*
X155130000Y-110450000D01*
X155130000Y-112690000D01*
%TO.C,D27*%
X102760000Y-73440000D02*
X103410000Y-73440000D01*
X104010000Y-72320000D02*
X104010000Y-74560000D01*
X104130000Y-72320000D02*
X104130000Y-74560000D01*
X104250000Y-72320000D02*
X104250000Y-74560000D01*
X108300000Y-73440000D02*
X107650000Y-73440000D01*
X103410000Y-72320000D02*
X107650000Y-72320000D01*
X107650000Y-74560000D01*
X103410000Y-74560000D01*
X103410000Y-72320000D01*
%TO.C,D8*%
X121590000Y-129410000D02*
X122240000Y-129410000D01*
X122840000Y-128290000D02*
X122840000Y-130530000D01*
X122960000Y-128290000D02*
X122960000Y-130530000D01*
X123080000Y-128290000D02*
X123080000Y-130530000D01*
X127130000Y-129410000D02*
X126480000Y-129410000D01*
X122240000Y-128290000D02*
X126480000Y-128290000D01*
X126480000Y-130530000D01*
X122240000Y-130530000D01*
X122240000Y-128290000D01*
%TO.C,D21*%
X121590000Y-91110000D02*
X122240000Y-91110000D01*
X122840000Y-89990000D02*
X122840000Y-92230000D01*
X122960000Y-89990000D02*
X122960000Y-92230000D01*
X123080000Y-89990000D02*
X123080000Y-92230000D01*
X127130000Y-91110000D02*
X126480000Y-91110000D01*
X122240000Y-89990000D02*
X126480000Y-89990000D01*
X126480000Y-92230000D01*
X122240000Y-92230000D01*
X122240000Y-89990000D01*
%TO.C,D33*%
X83780000Y-55980000D02*
X84430000Y-55980000D01*
X85030000Y-54860000D02*
X85030000Y-57100000D01*
X85150000Y-54860000D02*
X85150000Y-57100000D01*
X85270000Y-54860000D02*
X85270000Y-57100000D01*
X89320000Y-55980000D02*
X88670000Y-55980000D01*
X84430000Y-54860000D02*
X88670000Y-54860000D01*
X88670000Y-57100000D01*
X84430000Y-57100000D01*
X84430000Y-54860000D01*
%TO.C,D12*%
X79300000Y-106590000D02*
X78650000Y-106590000D01*
X78050000Y-107710000D02*
X78050000Y-105470000D01*
X77930000Y-107710000D02*
X77930000Y-105470000D01*
X77810000Y-107710000D02*
X77810000Y-105470000D01*
X73760000Y-106590000D02*
X74410000Y-106590000D01*
X78650000Y-107710000D02*
X74410000Y-107710000D01*
X74410000Y-105470000D01*
X78650000Y-105470000D01*
X78650000Y-107710000D01*
%TO.C,D3*%
X60210653Y-174970473D02*
X59935951Y-174381373D01*
X58667315Y-174310921D02*
X60697445Y-173364256D01*
X58616601Y-174202164D02*
X60646731Y-173255499D01*
X58565887Y-174093407D02*
X60596017Y-173146742D01*
X57869348Y-169949528D02*
X58144050Y-170538628D01*
X60951016Y-173908040D02*
X58920886Y-174854705D01*
X57128985Y-171011960D01*
X59159114Y-170065295D01*
X60951016Y-173908040D01*
%TO.C,D6*%
X78490473Y-143289348D02*
X77901373Y-143564050D01*
X77830921Y-144832686D02*
X76884256Y-142802556D01*
X77722164Y-144883400D02*
X76775499Y-142853270D01*
X77613407Y-144934114D02*
X76666742Y-142903984D01*
X73469528Y-145630653D02*
X74058628Y-145355951D01*
X78374705Y-144579115D02*
X74531960Y-146371016D01*
X73585295Y-144340887D01*
X77428040Y-142548985D01*
X78374705Y-144579115D01*
%TO.C,D25*%
X79300000Y-79020000D02*
X78650000Y-79020000D01*
X78050000Y-80140000D02*
X78050000Y-77900000D01*
X77930000Y-80140000D02*
X77930000Y-77900000D01*
X77810000Y-80140000D02*
X77810000Y-77900000D01*
X73760000Y-79020000D02*
X74410000Y-79020000D01*
X78650000Y-80140000D02*
X74410000Y-80140000D01*
X74410000Y-77900000D01*
X78650000Y-77900000D01*
X78650000Y-80140000D01*
%TO.C,D18*%
X182770000Y-114730000D02*
X183420000Y-114730000D01*
X184020000Y-113610000D02*
X184020000Y-115850000D01*
X184140000Y-113610000D02*
X184140000Y-115850000D01*
X184260000Y-113610000D02*
X184260000Y-115850000D01*
X188310000Y-114730000D02*
X187660000Y-114730000D01*
X183420000Y-113610000D02*
X187660000Y-113610000D01*
X187660000Y-115850000D01*
X183420000Y-115850000D01*
X183420000Y-113610000D01*
%TO.C,D9*%
X155780000Y-130480000D02*
X155130000Y-130480000D01*
X154530000Y-131600000D02*
X154530000Y-129360000D01*
X154410000Y-131600000D02*
X154410000Y-129360000D01*
X154290000Y-131600000D02*
X154290000Y-129360000D01*
X150240000Y-130480000D02*
X150890000Y-130480000D01*
X155130000Y-131600000D02*
X150890000Y-131600000D01*
X150890000Y-129360000D01*
X155130000Y-129360000D01*
X155130000Y-131600000D01*
%TO.C,D10*%
X159770000Y-133710000D02*
X160420000Y-133710000D01*
X161020000Y-132590000D02*
X161020000Y-134830000D01*
X161140000Y-132590000D02*
X161140000Y-134830000D01*
X161260000Y-132590000D02*
X161260000Y-134830000D01*
X165310000Y-133710000D02*
X164660000Y-133710000D01*
X160420000Y-132590000D02*
X164660000Y-132590000D01*
X164660000Y-134830000D01*
X160420000Y-134830000D01*
X160420000Y-132590000D01*
%TO.C,D35*%
X121590000Y-53100000D02*
X122240000Y-53100000D01*
X122840000Y-51980000D02*
X122840000Y-54220000D01*
X122960000Y-51980000D02*
X122960000Y-54220000D01*
X123080000Y-51980000D02*
X123080000Y-54220000D01*
X127130000Y-53100000D02*
X126480000Y-53100000D01*
X122240000Y-51980000D02*
X126480000Y-51980000D01*
X126480000Y-54220000D01*
X122240000Y-54220000D01*
X122240000Y-51980000D01*
%TO.C,D29*%
X155780000Y-73070000D02*
X155130000Y-73070000D01*
X154530000Y-74190000D02*
X154530000Y-71950000D01*
X154410000Y-74190000D02*
X154410000Y-71950000D01*
X154290000Y-74190000D02*
X154290000Y-71950000D01*
X150240000Y-73070000D02*
X150890000Y-73070000D01*
X155130000Y-74190000D02*
X150890000Y-74190000D01*
X150890000Y-71950000D01*
X155130000Y-71950000D01*
X155130000Y-74190000D01*
%TD*%
M02*
