M48
; DRILL file {KiCad 9.0.7} date 2026-03-09T12:55:58+0900
; FORMAT={-:-/ absolute / metric / decimal}
; #@! TF.CreationDate,2026-03-09T12:55:58+09:00
; #@! TF.GenerationSoftware,Kicad,Pcbnew,9.0.7
; #@! TF.FileFunction,Plated,1,2,PTH
FMAT,2
METRIC
; #@! TA.AperFunction,Plated,PTH,ViaDrill
T1C0.300
; #@! TA.AperFunction,Plated,PTH,ComponentDrill
T2C0.300
; #@! TA.AperFunction,Plated,PTH,ComponentDrill
T3C0.600
; #@! TA.AperFunction,Plated,PTH,ComponentDrill
T4C0.800
; #@! TA.AperFunction,Plated,PTH,ComponentDrill
T5C1.000
%
G90
G05
T1
X85.94Y-38.91
X86.27Y-34.4
T2
X27.293Y-142.529
X35.342Y-159.794
X38.893Y-137.12
X43.394Y-177.061
X44.557Y-134.48
X46.943Y-154.384
X54.994Y-171.651
X56.158Y-129.071
X57.89Y-156.923
X63.299Y-168.524
X65.99Y-68.9
X68.59Y-82.51
X68.59Y-95.31
X68.59Y-111.085
X68.59Y-123.885
X75.154Y-148.871
X78.79Y-68.9
X80.564Y-160.472
X85.04Y-68.9
X85.04Y-87.948
X85.04Y-106.998
X85.04Y-126.048
X97.84Y-68.9
X97.84Y-87.948
X97.84Y-106.998
X97.84Y-126.048
X104.09Y-67.628
X104.09Y-86.678
X104.09Y-105.728
X104.09Y-124.778
X104.09Y-143.828
X116.89Y-67.628
X116.89Y-86.678
X116.89Y-105.728
X116.89Y-124.778
X116.89Y-143.828
X123.14Y-66.03
X123.14Y-85.08
X123.14Y-104.13
X123.14Y-123.18
X123.14Y-142.23
X135.94Y-66.03
X135.94Y-85.08
X135.94Y-104.13
X135.94Y-123.18
X135.94Y-142.23
X142.19Y-67.628
X142.19Y-86.678
X142.19Y-105.728
X142.19Y-124.778
X142.19Y-143.828
X154.99Y-67.628
X154.99Y-86.678
X154.99Y-105.728
X154.99Y-124.778
X154.99Y-143.828
X161.24Y-70.805
X161.24Y-89.853
X161.24Y-108.903
X161.24Y-127.953
X161.24Y-147.003
X174.04Y-70.805
X174.04Y-89.853
X174.04Y-108.903
X174.04Y-127.953
X174.04Y-147.003
X180.29Y-147.003
X185.052Y-89.853
X185.052Y-108.903
X185.052Y-127.953
X193.09Y-147.003
X197.852Y-89.853
X197.852Y-108.903
X197.852Y-127.953
T3
X133.55Y-41.3
X133.55Y-44.9
T4
X41.33Y-135.187
X44.55Y-142.093
X53.117Y-150.04
X55.207Y-154.13
X57.43Y-169.007
X59.38Y-127.287
X60.023Y-146.82
X60.65Y-175.913
X62.113Y-150.91
X62.6Y-134.193
X72.527Y-146.07
X72.72Y-79.02
X72.72Y-106.59
X76.07Y-53.45
X79.433Y-142.85
X80.34Y-79.02
X80.34Y-106.59
X82.74Y-55.98
X82.74Y-74.55
X82.74Y-93.71
X82.74Y-112.83
X83.69Y-53.45
X90.36Y-55.98
X90.36Y-74.55
X90.36Y-93.71
X90.36Y-112.83
X101.72Y-54.09
X101.72Y-73.44
X101.72Y-92.97
X101.72Y-111.33
X101.72Y-130.52
X109.34Y-54.09
X109.34Y-73.44
X109.34Y-92.97
X109.34Y-111.33
X109.34Y-130.52
X119.611Y-43.108
X119.611Y-48.708
X120.55Y-53.1
X120.55Y-71.76
X120.55Y-91.11
X120.55Y-110.26
X120.55Y-129.41
X128.17Y-53.1
X128.17Y-71.76
X128.17Y-91.11
X128.17Y-110.26
X128.17Y-129.41
X149.2Y-54.09
X149.2Y-73.07
X149.2Y-92.6
X149.2Y-111.57
X149.2Y-130.48
X156.82Y-54.09
X156.82Y-73.07
X156.82Y-92.6
X156.82Y-111.57
X156.82Y-130.48
X158.73Y-57.81
X158.73Y-76.6
X158.73Y-95.76
X158.73Y-114.54
X158.73Y-133.71
X166.35Y-57.81
X166.35Y-76.6
X166.35Y-95.76
X166.35Y-114.54
X166.35Y-133.71
X181.73Y-76.79
X181.73Y-95.94
X181.73Y-114.73
X181.73Y-133.33
X188.952Y-65.005
X188.952Y-67.005
X188.952Y-69.005
X189.35Y-76.79
X189.35Y-95.94
X189.35Y-114.73
X189.35Y-133.33
X193.952Y-67.005
X193.952Y-69.005
T5
X159.44Y-33.03
X159.44Y-48.03
X161.98Y-33.03
X161.98Y-48.03
X164.52Y-33.03
X164.52Y-48.03
X167.06Y-33.03
X167.06Y-48.03
X169.6Y-33.03
X169.6Y-48.03
X172.14Y-33.03
X172.14Y-48.03
X174.68Y-33.03
X174.68Y-48.03
X177.22Y-33.03
X177.22Y-48.03
X179.76Y-33.03
X179.76Y-48.03
X182.3Y-33.03
X182.3Y-48.03
X184.84Y-33.03
X184.84Y-48.03
X187.38Y-33.03
X187.38Y-48.03
X189.92Y-33.03
X189.92Y-48.03
X193.952Y-65.005
M30
